<svg xmlns="http://www.w3.org/2000/svg" viewBox="0 0 435 592.03"><defs><style>.cls-1{fill:#0f0f0e;}.cls-2{fill:#c08c74;}.cls-3{fill:#a06d58;}.cls-4{fill:#ee9273;}.cls-5{fill:#453132;}.cls-6{fill:#fdfdfd;}.cls-7{fill:#f6b69a;}.cls-8{fill:#885551;}.cls-9{fill:#2f2f66;}.cls-10{fill:#a0a0ea;}</style></defs><title>Asset 1</title><g id="Layer_2" data-name="Layer 2"><g id="Layer_1-2" data-name="Layer 1"><path class="cls-1" d="M217.74,561.11c.09,9.32.13,18.64.28,28,0,2.06-.51,3-2.78,3q-44.7-.22-89.41-.33c0-29.4.09-58.79-.13-88.19,0-4.52,1.33-5.72,5.64-5.49,6.29.34,12.63-.16,18.93.16,4.22.22,5.89-.8,5.67-5.42-.4-8.46-.11-16.94-.11-25.41.66-.06,1.32-.16,2-.16l182.89,0,.27,30.45c-.05,19.47,0,38.95-.2,58.41,0,3.37,1.2,4.28,4.37,4.22,9.15-.17,18.31-.09,27.46-.11l.18.19c-1.53,10.41-.86,20.89-.88,31.34l-2.15,0c-1-2.76-3.42-1.51-5.17-1.52-26.3-.08-52.59-.16-78.89,0-4.47,0-5.93-1-5.89-5.73.2-27.13-.08-54.25.13-81.38,0-4.93-1.46-6.29-6.18-5.94-5.45.4-10.89,1.69-16.37.91-11.77-1.68-23.58-.35-35.36-.85-2.86-.12-4.26.57-4.18,3.82.23,9.15.17,18.3.22,27.45l.16-.16c-9.17,0-18.33,0-27.49-.16-3.15-.06-4,1.15-3.93,4.1.15,7.17,0,14.33,0,21.5,0,6.66.42,7.18,7.35,7.34a161.71,161.71,0,0,0,17.48-.15C213.77,560.77,215.73,563.73,217.74,561.11Z"/><path class="cls-1" d="M372.6,560.18c-9.15,0-18.31-.06-27.46.11-3.17.06-4.4-.85-4.37-4.22,0-1.09,0-2.18,0-3.28H279.86c0,10.57,0,21.13-.06,31.69,0,4.73,1.42,5.76,5.89,5.73,26.3-.2,52.59-.12,78.89,0,1.75,0,4.13-1.24,5.17,1.52l2.15,0c0-10.45-.65-20.93.88-31.34Z"/><path class="cls-1" d="M211.66,561a161.71,161.71,0,0,1-17.48.15c-6.93-.16-7.35-.68-7.35-7.34v-1h-61q0,19.46,0,38.91,44.7.15,89.41.33c2.27,0,2.81-.9,2.78-3-.15-9.32-.19-18.64-.28-28C215.73,563.73,213.77,560.77,211.66,561Z"/><path class="cls-2" d="M186.85,555.48c0-.53,0-1.08,0-1.71,0-3.42,0-6.85,0-10.27h-61v12Z"/><path class="cls-2" d="M340.78,555.48q0-6,.08-12h-61q0,6,0,12Z"/><path class="cls-1" d="M124.84,313.06c9.29.08,18.59.34,27.87.14,3.76-.08,5.21.64,5.06,4.8-.3,8.12.06,16.25.15,24.38l-2.07.9h-5.91c-26.36-.45-52.71-.39-79.06,0a.94.94,0,0,0-.93,0l-5.07,0c-1.73.27-1.33,1.65-1.33,2.71q.09,29.58.23,59.17c-.08,1.81-.24,3.63-.24,5.44q-.06,40.92-.12,81.83c0,1.91.65,3.94-.56,5.75h0c-9.16,0-18.32-.13-27.47,0-2.75,0-3.62-.7-3.61-3.59q.14-74.19,0-148.37c0-3.13,1.23-3.45,3.79-3.41,7.82.14,15.65-.05,23.47.14,2.85.07,4.08-.34,4-3.69-.25-18.31-.29-36.63-.22-54.94,0-2.78-1-3.29-3.45-3.25-8,.13-16-.06-24,.12-2.78.06-3.72-.67-3.64-3.56.2-7.66-.19-15.34.17-23,.18-3.95-1.17-4.67-4.77-4.54-7.82.28-15.65,0-23.48.15-2.83.06-3.67-.79-3.66-3.65q.15-43.45,0-86.92c0-3.34,1.25-3.79,4.08-3.73,7.82.15,15.66-.14,23.47.14,3.61.13,4.37-1.07,4.35-4.48-.13-27.64.08-55.28-.22-82.92-.05-5,1.35-6,6-5.75,7.31.41,14.65,0,22,.18,2.62.06,3.43-.78,3.39-3.4-.15-8,.08-16-.11-24-.07-2.85.77-3.64,3.59-3.59,9.49.18,19,.1,28.48.11,0,8.78-.15,17.56.15,26.32.13,3.74-1.33,4.32-4.58,4.23-7.45-.2-14.91.16-22.35-.12-3.59-.14-5.31.77-4.85,4.52-.09.1-.27.22-.26.3a4.3,4.3,0,0,0,.26.71q.08,57.91.19,115.84c0,3.23-.93,4.26-4.24,4.16-7.64-.24-15.31.14-23-.13-3.27-.12-3.8,1-3.78,3.92q.18,27.21,0,54.42c0,3.18,1,3.79,4,3.77,18-.12,36,.08,53.92-.09,3.65,0,4.82.76,4.71,4.61-.26,9.13,0,18.29.12,27.43-.08,9.14-.06,18.28-.27,27.41-.07,2.71.91,3.37,3.45,3.35C107.23,312.87,116,313,124.84,313.06Z"/><path class="cls-1" d="M372.82,313.25c-.11-1.48-.32-3-.32-4.46q0-119.84,0-239.67c0-2,.22-4,.33-6,8.83,0,17.66.15,26.48-.15,3.65-.12,4.3,1.12,4.29,4.49-.15,28.32,0,56.64-.2,85,0,3.75.7,5.17,4.79,5,7.81-.36,15.66,0,23.48-.16,2.7-.06,3.32.81,3.31,3.37q-.12,43,0,86c0,2.8-.73,3.7-3.59,3.63-7.49-.19-15,.29-22.48-.2-4.86-.31-5.56,1.51-5.5,5.78.22,17.49,0,35,.17,52.48,0,3.71-.6,5.21-4.79,5C390.16,313,381.49,313.25,372.82,313.25Z"/><path class="cls-1" d="M340.72,31.43,95,31.48c-.1-9.65-.15-19.3-.36-28.95,0-2.16.91-2.55,2.67-2.42.83.06,1.67,0,2.5,0Q217.44.12,335.11,0C340,0,341.25,1.17,341,6,340.5,14.43,340.76,22.94,340.72,31.43Z"/><path class="cls-1" d="M340.94,313.26l32-.11c-.86,9-.07,17.94-.4,26.9-.09,2.64,1.52,2.43,3.23,2.43,7.82,0,15.65.12,23.47-.07,3-.07,4.33.4,4.32,4q-.18,74.16,0,148.33c0,3.08-1.14,3.53-3.75,3.49-9-.13-18-.07-27-.09l.07.09c-.83-1.9-.37-3.91-.38-5.86-.18-28.35.34-56.69-.57-85,.09-.12.26-.26.25-.37a5.46,5.46,0,0,0-.2-.87.62.62,0,0,0-.05-.83c0-19.76-.08-39.52,0-59.28,0-2.73-1.24-2.89-3.31-2.88-9.3,0-18.6,0-27.9,0Z"/><path class="cls-1" d="M155.83,467.35c0,8.47-.29,16.95.11,25.41.22,4.62-1.45,5.64-5.67,5.42-6.3-.32-12.64.18-18.93-.16-4.31-.23-5.67,1-5.64,5.49.22,29.4.12,58.79.13,88.19-9.32.06-18.65,0-28,.25-3.37.09-3.23-1.64-3.22-4,.06-18.32-.11-36.63.13-55,0-3.88-1.08-4.72-4.71-4.58-7.48.28-15-.23-22.47.22-4.26.26-4.8-1.36-4.72-5,.2-8.48,0-17,0-25.47h0a4.31,4.31,0,0,1,1.32-.45q26.21,0,52.4,0c8.51,0,8.34,0,8.56-8.47.19-7.39-1-14.84.72-22.18Z"/><path class="cls-1" d="M218.06,528.49c-.05-9.15,0-18.3-.22-27.45-.08-3.25,1.32-3.94,4.18-3.82,11.78.5,23.59-.83,35.36.85,5.48.78,10.92-.51,16.37-.91,4.72-.35,6.22,1,6.18,5.94-.21,27.13.07,54.25-.13,81.38,0,4.73,1.42,5.76,5.89,5.73,26.3-.2,52.59-.12,78.89,0,1.75,0,4.13-1.24,5.17,1.52-38.77,0-77.54,0-116.31.21-3.33,0-3.31-1.59-3.31-4,.05-18.31-.1-36.62.13-54.92,0-3.87-1.09-4.69-4.74-4.59C236.38,528.68,227.22,528.5,218.06,528.49Z"/><path class="cls-1" d="M372.6,560.18c-9.15,0-18.31-.06-27.46.11-3.17.06-4.4-.85-4.37-4.22.17-19.46.15-38.94.2-58.41,10.64.52,21.3-.46,31.92.53l-.07-.09Q372.72,529.14,372.6,560.18Z"/><path class="cls-1" d="M217.74,561.11c-2,2.62-4-.34-6.08-.15a161.71,161.71,0,0,1-17.48.15c-6.93-.16-7.35-.68-7.35-7.34,0-7.17.12-14.33,0-21.5-.06-2.95.78-4.16,3.93-4.1,9.16.19,18.32.12,27.49.16-1.5,5.09,0,10.24-.31,15.37C217.6,549.49,217.78,555.31,217.74,561.11Z"/><path class="cls-1" d="M371.9,591.71c0-10.45-.65-20.93.88-31.34,8.82,0,17.65.28,26.46,0,3.63-.1,4.49,1.12,4.39,4.53-.24,7.65-.22,15.32,0,23,.08,3-.53,4.11-3.76,4C390.55,591.67,381.23,591.76,371.9,591.71Z"/><path class="cls-1" d="M340.62,37.36c.05-1.7.11-3.39.16-5.09,9.13,0,18.26.13,27.39-.12,3.4-.09,4.51.73,4.48,4.31-.08,8.95-.58,17.91.27,26.85-10.22-1.12-20.47-.45-30.71-.36l-1.41-.33q-.09-12.24-.17-24.48A.59.59,0,0,0,340.62,37.36Z"/><path class="cls-3" d="M62.93,219.06c0,8.49-.19,17,.08,25.47.12,3.83-1.21,5-4.87,4.73-7.12-.48-14.25.19-21.41-.5-2.91-.28-2.83-1.22-2.83-3.11,0-17.65,0-35.3,0-52.94,0-2.56.88-3.56,3.49-3.52,7.32.11,14.65.14,22,0,3-.06,3.64,1.26,3.61,3.92-.11,8.65,0,17.31,0,26Z"/><path class="cls-3" d="M124.84,313.06c-8.8-.06-17.61-.19-26.41-.12-2.54,0-3.52-.64-3.45-3.35.21-9.13.19-18.27.27-27.41,8.28,0,16.56.15,24.83-.09,3.57-.1,5,.77,4.91,4.65C124.7,295.51,124.86,304.29,124.84,313.06Z"/><path class="cls-3" d="M340.76,343.07l-29.95.06c0-8.45.19-16.9-.06-25.33-.12-3.82,1.24-4.81,4.86-4.7,8.43.25,16.88.13,25.33.16Z"/><path class="cls-3" d="M186.89,343.07l-25,.2a3.77,3.77,0,0,1-3.21-1c.05-8.29.23-16.58.11-24.86-.05-3.23,1-4.39,4.26-4.28,6.62.21,13.27.19,19.89,0,3.11-.08,4,1.11,4,4.08C186.8,325.82,186.89,334.44,186.89,343.07Z"/><path class="cls-4" d="M340.62,37.36a.59.59,0,0,1,0,.78,3.34,3.34,0,0,1-.28-.57S340.53,37.43,340.62,37.36Z"/><path class="cls-4" d="M340.8,62.62l1.41.33Z"/><path class="cls-5" d="M63.33,68.25a4.3,4.3,0,0,1-.26-.71c0-.08.17-.2.26-.3Z"/><path class="cls-2" d="M368.77,405.35l3.17-.12a.61.61,0,0,1,0,.83c0,.41,0,.83,0,1.24.91,28.34.39,56.68.57,85,0,1.95-.45,4,.38,5.86-10.62-1-21.28,0-31.92-.53l-.27-30.45q.12-15.06.23-30.12c1.81-1.09,3.82-.93,5.81-.93,6.64,0,13.29-.09,19.93,0,2.78.05,4.32-.5,4.24-3.79-.18-7.63-.13-15.28,0-22.92A4.4,4.4,0,0,0,368.77,405.35Z"/><path class="cls-2" d="M65,404.27c1.51.15,3.42-.65,4,1.69-3.22,0-4.19,1.78-4.13,4.84.15,7,.22,14,0,21-.13,3.61,1.26,4.48,4.64,4.46,16.47-.14,33-.06,49.44-.07,2,0,4-.16,5.84.86,0,6.61.22,13.22.1,19.82a51.29,51.29,0,0,0,1,10.29c-1.71,7.34-.53,14.79-.72,22.18-.22,8.48,0,8.48-8.56,8.47q-26.2,0-52.4,0a4.31,4.31,0,0,0-1.32.45c1.21-1.81.55-3.84.56-5.75q.12-40.92.12-81.83c0-1.81.16-3.63.24-5.44Z"/><path class="cls-6" d="M65,404.27l-1.2.9q-.12-29.58-.23-59.17c0-1.06-.4-2.44,1.33-2.71Q64.93,373.79,65,404.27Z"/><path class="cls-6" d="M155.85,343.28a5,5,0,0,1-5.91,0Z"/><path class="cls-6" d="M70.88,343.26c-.3.58-.62.59-.93,0A.94.94,0,0,1,70.88,343.26Z"/><path class="cls-4" d="M371.94,407.3c0-.41,0-.83,0-1.24a4.59,4.59,0,0,1,.21.87C372.2,407,372,407.18,371.94,407.3Z"/><path class="cls-3" d="M124.76,437c-1.84-1-3.85-.86-5.84-.86-16.48,0-33-.07-49.44.07-3.38,0-4.77-.85-4.64-4.46.23-7,.16-14,0-21-.06-3.06.91-4.8,4.13-4.84a34.49,34.49,0,0,1,9.88-.61,34.85,34.85,0,0,0,16.09,0l25,.08c1.18,1.09,2.57.73,3.94.58l.2.21.71.91Z"/><path class="cls-3" d="M368.77,405.35a4.4,4.4,0,0,1,2.11,4.14c-.1,7.64-.15,15.29,0,22.92.08,3.29-1.46,3.84-4.24,3.79-6.64-.13-13.29,0-19.93,0-2,0-4-.16-5.81.93-.05-9.37-.11-18.73-.13-28.1,0-1.27-.31-2.68,1-3.62.37.49.75.46,1.13,0Z"/><path class="cls-7" d="M95,405.35a34.85,34.85,0,0,1-16.09,0Z"/><path class="cls-7" d="M123.88,406c-1.37.15-2.76.51-3.94-.58C121.52,403.8,122.91,403.46,123.88,406Z"/><path class="cls-7" d="M342.93,405.37c-.38.46-.76.49-1.13,0Z"/><path class="cls-7" d="M124.79,407.13l-.71-.91Z"/><path class="cls-2" d="M372.83,63.17a.57.57,0,0,1,0,.13h.1Z"/><path class="cls-2" d="M372.82,313.25l.09-.1h-.1A.28.28,0,0,1,372.82,313.25Z"/><path class="cls-2" d="M372.5,69.12c0-1.94.21-3.88.32-5.82-10.19-1.1-20.4-.44-30.61-.35l-1.41-.33q-.09-12.24-.17-24.49a2.93,2.93,0,0,1-.28-.56s.18-.14.27-.21c.05-1.7.11-3.39.16-5.09a.72.72,0,0,0-.06-.84L95,31.48a.69.69,0,0,0,0,.81c0,8.78-.15,17.56.15,26.32.13,3.74-1.33,4.32-4.58,4.23-7.45-.2-14.91.16-22.35-.12-3.59-.14-5.31.77-4.85,4.52v1q.08,57.91.19,115.84c0,3.23-.93,4.26-4.24,4.16-7.64-.24-15.31.14-23-.13-3.27-.12-3.8,1-3.78,3.92q.18,27.21,0,54.42c0,3.18,1,3.79,4,3.77,18-.12,36,.08,53.92-.09,3.65,0,4.82.76,4.71,4.61-.26,9.13,0,18.29.12,27.43,8.28,0,16.56.15,24.83-.09,3.57-.1,5,.77,4.91,4.65-.29,8.77-.13,17.55-.15,26.32,9.29.08,18.59.34,27.87.14,3.76-.08,5.21.64,5.06,4.8-.3,8.12.06,16.25.15,24.38l.8-.13c.05-8.29.23-16.58.11-24.86-.05-3.23,1-4.39,4.26-4.28,6.62.21,13.27.19,19.89,0,3.11-.08,4,1.11,4,4.08-.14,8.62-.05,17.24-.05,25.87l123.91.06c0-8.45.2-16.9-.05-25.33-.12-3.82,1.24-4.81,4.86-4.7,8.43.25,16.88.13,25.33.16l31.87-.1c-.11-1.46-.31-2.91-.31-4.37Q372.47,189,372.5,69.12ZM58.14,249.26c-7.12-.48-14.25.19-21.41-.5-2.91-.28-2.83-1.22-2.83-3.11,0-17.65,0-35.3,0-52.94,0-2.56.88-3.56,3.49-3.52,7.32.11,14.65.14,22,0,3-.06,3.64,1.26,3.61,3.92-.11,8.65,0,17.31,0,26h0c0,8.49-.19,17,.08,25.47C63.13,248.36,61.8,249.5,58.14,249.26Z"/><rect class="cls-1" x="133.33" y="113.49" width="84" height="31"/><rect class="cls-3" x="95.33" y="31.49" width="75" height="22"/><rect class="cls-3" x="284.33" y="31.49" width="56" height="22"/><rect class="cls-3" x="231.33" y="31.49" width="54" height="30"/><rect class="cls-3" x="170.33" y="31.49" width="62" height="30"/><rect class="cls-8" x="201.33" y="239.49" width="84" height="22"/><rect class="cls-1" x="133.33" y="163.49" width="84" height="15"/><rect class="cls-1" x="181.33" y="221.49" width="50" height="15"/><rect class="cls-1" x="172.33" y="236.49" width="25" height="15"/><rect class="cls-1" x="255.33" y="221.49" width="50" height="15" transform="translate(560.66 457.98) rotate(-180)"/><rect class="cls-2" x="372.33" y="556.49" width="31" height="35" transform="translate(775.66 1147.98) rotate(-180)"/><rect class="cls-2" x="250.33" y="555.49" width="91" height="36" transform="translate(591.66 1146.98) rotate(-180)"/><rect class="cls-1" x="289.33" y="236.49" width="25" height="15" transform="translate(603.66 487.98) rotate(-180)"/><rect class="cls-9" x="250.33" y="575.49" width="153" height="16" transform="translate(653.66 1166.98) rotate(-180)"/><rect class="cls-1" x="172.33" y="293.49" width="25" height="15"/><rect class="cls-1" x="291.33" y="293.49" width="25" height="15"/><rect class="cls-1" x="200.33" y="323.49" width="86" height="15"/><path class="cls-10" d="M373.33,369.49h-1.42q0-11.78.06-23.54c0-2.73-1.24-2.89-3.31-2.88-9.3,0-18.6,0-27.9,0l-29.95.06-123.92-.06-25,.2a3.77,3.77,0,0,1-3.21-1l-.8.13-2.07.9a5,5,0,0,1-5.91,0c-26.36-.45-52.71-.39-79.06,0-.3.58-.62.59-.93,0l-5.07,0q0,13.09,0,26.2h-.59v83H124.9c0,1.45,0,2.9,0,4.35a51.29,51.29,0,0,0,1,10.29l30,.22c.66-.06,1.32-.16,2-.16l182.89,0q.06-7.36.11-14.72h32.52Z"/><rect class="cls-1" x="211.33" y="338.49" width="64" height="15"/><rect class="cls-1" x="228.33" y="353.49" width="30" height="15"/><rect class="cls-1" x="192.33" y="308.49" width="102" height="15"/><rect class="cls-1" x="268.33" y="163.49" width="84" height="15"/><rect class="cls-1" x="268.33" y="113.49" width="84" height="31"/><rect class="cls-9" x="341.33" y="554.49" width="31" height="37"/><rect class="cls-2" x="65.33" y="556.49" width="31" height="35"/><rect class="cls-2" x="127.33" y="555.49" width="91" height="36"/><rect class="cls-9" x="65.33" y="575.49" width="153" height="16"/><rect class="cls-9" x="96.33" y="554.49" width="31" height="37" transform="translate(223.66 1145.98) rotate(-180)"/><path d="M311,384.14h-8.51v-10h1.39v-2.84h1.43v-2.85h2.85v2.83h1.43v2.84H311Z"/><path d="M291.08,375.62V377h2.86v1.43h2.84v1.43h1.43v1.42h1.43v1.42h1.41v1.42H291.1v-2.82h-1.42v-5.69Z"/><path d="M322.45,384.14H312.5v-1.41h1.39v-1.42h1.43v-1.43h1.42v-1.42h2.86V377h2.85v-1.42h1.41v5.67h-1.41Z"/><path d="M321,385.59V387H292.54v-1.39Z"/><path d="M295.39,388.43h22.77v1.39H295.39Z"/><path d="M303.9,394.1h-1.4v-1.39h-4.26v-1.43h5.66Z"/><path d="M315.31,391.29v1.4h-4.25v1.41h-1.42v-2.81Z"/><path d="M308.18,394.11h-2.82v-2.82h2.82Z"/></g></g></svg>