<svg xmlns="http://www.w3.org/2000/svg" xmlns:xlink="http://www.w3.org/1999/xlink" viewBox="0 0 1514.35 95.55"><defs><style>.cls-1{fill:none;}.cls-2{clip-path:url(#clip-path);}.cls-3{fill:#ff8582;}.cls-4{fill:#aa4fe0;}.cls-5{fill:#fb83b1;}.cls-6,.cls-8{fill:#ffca83;}.cls-7{fill:#c9286a;}.cls-8{opacity:0.2;}.cls-9{opacity:0.5;isolation:isolate;}.cls-10{clip-path:url(#clip-path-2);}.cls-11{clip-path:url(#clip-path-3);}.cls-12{clip-path:url(#clip-path-4);}.cls-13{clip-path:url(#clip-path-5);}.cls-14{clip-path:url(#clip-path-6);}</style><clipPath id="clip-path" transform="translate(37.2 -0.23)"><rect class="cls-1" width="467.55" height="85.07"/></clipPath><clipPath id="clip-path-2" transform="translate(37.2 -0.23)"><rect class="cls-1" y="5.15" width="462.72" height="10.32"/></clipPath><clipPath id="clip-path-3" transform="translate(37.2 -0.23)"><rect class="cls-1" x="467.6" width="504.75" height="85.07"/></clipPath><clipPath id="clip-path-4" transform="translate(37.2 -0.23)"><rect class="cls-1" x="467.52" y="5.15" width="499.92" height="10.32"/></clipPath><clipPath id="clip-path-5" transform="translate(37.2 -0.23)"><rect class="cls-1" x="972.4" width="467.6" height="85.07"/></clipPath><clipPath id="clip-path-6" transform="translate(37.2 -0.23)"><rect class="cls-1" x="972.24" y="5.15" width="467.76" height="10.32"/></clipPath></defs><title>Asset 2</title><g id="Layer_2" data-name="Layer 2"><g id="Layer_1-2" data-name="Layer 1"><g class="cls-2"><rect class="cls-3" width="504.75" height="95.55"/><path class="cls-4" d="M452.4,30.4H432.21V20.34H452.4Zm10.1,5V45.49H442.31V35.43H462.5ZM452.4,60.57H432.21V50.51H452.4Zm10.1,5V75.66H442.31V65.6H462.5ZM452.4,90.75H432.21V80.69H452.4Zm-45.42,0V80.69h20.19V90.75Zm-25.24,0V80.69h20.19V90.75Zm-25.24,0V80.69h20.19V90.75Zm-25.24,0V80.69h20.19V90.75Zm-25.23,0V80.69h20.19V90.75Zm-25.24,0V80.69H301V90.75Zm-25.24,0V80.69h20.19V90.75Zm-25.24,0V80.69H250.5V90.75Zm-25.23,0V80.69h20.19V90.75Zm-25.24,0V80.69H200V90.75Zm-25.24,0V80.69h20.19V90.75Zm-25.24,0V80.69h20.19V90.75Zm-25.23,0V80.69h20.19V90.75Zm-25.24,0V80.69H99.08V90.75Zm-25.24,0V80.69H73.84V90.75Zm-25.24,0V80.69H48.6V90.75Zm-25.23,0V80.69H23.37V90.75Zm-25.24,0V80.69H-1.87V90.75ZM-12,65.6H8.22V75.66H-12Zm-10.09-5V50.51H-1.87V60.57ZM-12,35.43H8.22V45.49H-12Zm-10.09-5V20.34H-1.87V30.4ZM8.22,20.34H23.37V30.4H3.18V20.34Zm25.24,0H48.6V30.4H28.41V20.34Zm25.24,0H73.84V30.4H53.65V20.34Zm25.24,0H99.08V30.4H78.89V20.34Zm25.23,0h15.15V30.4H104.13V20.34Zm25.24,0h15.14V30.4H129.36V20.34Zm25.24,0h15.14V30.4H154.6V20.34Zm25.24,0H200V30.4H179.84V20.34Zm25.23,0h15.15V30.4H205.08V20.34Zm25.24,0H250.5V30.4H230.31V20.34Zm25.24,0h15.14V30.4H255.55V20.34Zm25.24,0H301V30.4H280.79V20.34Zm25.23,0h15.15V30.4H306V20.34Zm25.24,0h15.14V30.4H331.26V20.34Zm25.24,0h15.14V30.4H356.5V20.34Zm25.24,0h15.14V30.4H381.74V20.34Zm40.38,40.23H407V50.51h20.19Zm-35.34,5H412V75.66H391.83Zm-25.23,0h20.19V75.66H366.6Zm-25.24,0h20.19V75.66H341.36Zm-25.24,0h20.19V75.66H316.12Zm-25.24,0h20.19V75.66H290.88Zm-25.23,0h20.19V75.66H265.65Zm-25.24,0H260.6V75.66H240.41Zm-25.24,0h20.19V75.66H215.17Zm-25.24,0h20.19V75.66H189.93Zm-25.23,0h20.19V75.66H164.7Zm-25.24,0h20.19V75.66H139.46Zm-25.24,0h20.19V75.66H114.22ZM89,65.6h20.19V75.66H89Zm-25.23,0H83.94V75.66H63.75Zm-25.24,0H58.7V75.66H38.51ZM58.7,45.49H38.51V35.43H58.7Zm25.24,0H63.75V35.43H83.94Zm25.23,0H89V35.43h20.19Zm25.24,0H114.22V35.43h20.19Zm25.24,0H139.46V35.43h20.19Zm25.24,0H164.7V35.43h20.19Zm25.23,0H189.93V35.43h20.19Zm25.24,0H215.17V35.43h20.19Zm25.24,0H240.41V35.43H260.6Zm25.24,0H265.65V35.43h20.19Zm25.23,0H290.88V35.43h20.19Zm25.24,0H316.12V35.43h20.19Zm25.24,0H341.36V35.43h20.19Zm25.24,0H366.6V35.43h20.19Zm-30.29,5h20.19V60.57H356.5Zm-25.24,0h20.19V60.57H331.26Zm-25.23,0h20.19V60.57H306Zm-25.24,0H301V60.57H280.79Zm-25.24,0h20.19V60.57H255.55Zm-25.24,0H250.5V60.57H230.31Zm-25.23,0h20.19V60.57H205.08Zm-25.24,0H200V60.57H179.84Zm-25.24,0h20.19V60.57H154.6Zm-25.24,0h20.19V60.57H129.36Zm-25.23,0h20.19V60.57H104.13Zm-25.24,0H99.08V60.57H78.89Zm-25.24,0H73.84V60.57H53.65Zm-25.24,0H48.6V60.57H28.41ZM401.93,60.57H381.74V50.51h20.19ZM412,45.49H391.83V35.43H412ZM13.27,35.43H33.46V45.49H13.27ZM3.18,50.51H23.37V60.57H3.18ZM13.27,65.6H33.46V75.66H13.27Zm424,10.06H417.07V65.6h20.19Zm0-30.17H417.07V35.43h20.19ZM412,20.34h15.15V30.4H407V20.34ZM462.5,5.25V15.31H442.31V5.25h-5.05V15.31H417.07V5.25H412V15.31H391.83V5.25h-5V15.31H366.6V5.25h-5.05V15.31H341.36V5.25h-5.05V15.31H316.12V5.25h-5.05V15.31H290.88V5.25h-5V15.31H265.65V5.25h-5V15.31H240.41V5.25h-5V15.31H215.17V5.25h-5V15.31H189.93V5.25h-5V15.31H164.7V5.25h-5V15.31H139.46V5.25h-5.05V15.31H114.22V5.25h-5V15.31H89V5.25h-5V15.31H63.75V5.25h-5V15.31H38.51V5.25h-5V15.31H13.27V5.25h-5V15.31H-12V5.25h-5V15.31H-37.2v5h10.09V30.4H-37.2v5H-17V45.49H-37.2v5h10.09V60.57H-37.2v5H-17V75.66H-37.2v5h10.09V90.75H-37.2v5H467.55v-5h-10.1V80.69h10.1V60.57h-10.1V50.51h10.1V30.4h-10.1V20.34h10.1V5.25Z" transform="translate(37.2 -0.23)"/><rect class="cls-5" width="504.75" height="5.03"/><rect class="cls-6" x="40.38" y="5.03" width="5.05" height="5.03"/><rect class="cls-7" x="35.33" y="10.06" width="5.05" height="5.03"/><rect class="cls-7" x="50.47" y="10.06" width="5.05" height="5.03"/><rect class="cls-5" x="55.52" y="10.06" width="5.05" height="5.03"/><rect class="cls-6" x="65.62" y="5.03" width="5.05" height="5.03"/><rect class="cls-6" x="50.47" y="5.03" width="5.05" height="5.03"/><rect class="cls-7" x="60.57" y="10.06" width="5.05" height="5.03"/><rect class="cls-7" x="75.71" y="10.06" width="5.05" height="5.03"/><rect class="cls-5" x="80.76" y="10.06" width="5.05" height="5.03"/><rect class="cls-6" x="90.85" y="5.03" width="5.05" height="5.03"/><rect class="cls-6" x="75.71" y="5.03" width="5.05" height="5.03"/><rect class="cls-7" x="85.81" y="10.06" width="5.05" height="5.03"/><rect class="cls-7" x="100.95" y="10.06" width="5.05" height="5.03"/><rect class="cls-5" x="106" y="10.06" width="5.05" height="5.03"/><rect class="cls-6" x="116.09" y="5.03" width="5.05" height="5.03"/><rect class="cls-6" x="100.95" y="5.03" width="5.05" height="5.03"/><rect class="cls-7" x="111.04" y="10.06" width="5.05" height="5.03"/><rect class="cls-7" x="126.19" y="10.06" width="5.05" height="5.03"/><rect class="cls-5" x="131.23" y="10.06" width="5.05" height="5.03"/><rect class="cls-6" x="141.33" y="5.03" width="5.05" height="5.03"/><rect class="cls-6" x="126.19" y="5.03" width="5.05" height="5.03"/><rect class="cls-7" x="136.28" y="10.06" width="5.05" height="5.03"/><rect class="cls-7" x="151.42" y="10.06" width="5.05" height="5.03"/><rect class="cls-5" x="156.47" y="10.06" width="5.05" height="5.03"/><rect class="cls-6" x="166.57" y="5.03" width="5.05" height="5.03"/><rect class="cls-6" x="151.42" y="5.03" width="5.05" height="5.03"/><rect class="cls-7" x="161.52" y="10.06" width="5.05" height="5.03"/><rect class="cls-7" x="176.66" y="10.06" width="5.05" height="5.03"/><rect class="cls-5" x="181.71" y="10.06" width="5.05" height="5.03"/><rect class="cls-6" x="191.8" y="5.03" width="5.05" height="5.03"/><rect class="cls-6" x="176.66" y="5.03" width="5.05" height="5.03"/><rect class="cls-7" x="186.76" y="10.06" width="5.05" height="5.03"/><rect class="cls-7" x="201.9" y="10.06" width="5.05" height="5.03"/><rect class="cls-5" x="206.95" y="10.06" width="5.05" height="5.03"/><rect class="cls-6" x="217.04" y="5.03" width="5.05" height="5.03"/><rect class="cls-6" x="201.9" y="5.03" width="5.05" height="5.03"/><rect class="cls-7" x="211.99" y="10.06" width="5.05" height="5.03"/><rect class="cls-7" x="227.14" y="10.06" width="5.05" height="5.03"/><rect class="cls-5" x="232.18" y="10.06" width="5.05" height="5.03"/><rect class="cls-6" x="242.28" y="5.03" width="5.05" height="5.03"/><rect class="cls-6" x="227.14" y="5.03" width="5.05" height="5.03"/><rect class="cls-7" x="237.23" y="10.06" width="5.05" height="5.03"/><rect class="cls-7" x="252.37" y="10.06" width="5.05" height="5.03"/><rect class="cls-5" x="257.42" y="10.06" width="5.05" height="5.03"/><rect class="cls-6" x="267.52" y="5.03" width="5.05" height="5.03"/><rect class="cls-6" x="252.37" y="5.03" width="5.05" height="5.03"/><rect class="cls-7" x="262.47" y="10.06" width="5.05" height="5.03"/><rect class="cls-7" x="277.61" y="10.06" width="5.05" height="5.03"/><rect class="cls-5" x="282.66" y="10.06" width="5.05" height="5.03"/><rect class="cls-6" x="292.75" y="5.03" width="5.05" height="5.03"/><rect class="cls-6" x="277.61" y="5.03" width="5.05" height="5.03"/><rect class="cls-7" x="287.71" y="10.06" width="5.05" height="5.03"/><rect class="cls-7" x="302.85" y="10.06" width="5.05" height="5.03"/><rect class="cls-5" x="307.9" y="10.06" width="5.05" height="5.03"/><rect class="cls-6" x="317.99" y="5.03" width="5.05" height="5.03"/><rect class="cls-6" x="302.85" y="5.03" width="5.05" height="5.03"/><rect class="cls-7" x="312.94" y="10.06" width="5.05" height="5.03"/><rect class="cls-7" x="328.09" y="10.06" width="5.05" height="5.03"/><rect class="cls-5" x="333.13" y="10.06" width="5.05" height="5.03"/><rect class="cls-6" x="343.23" y="5.03" width="5.05" height="5.03"/><rect class="cls-6" x="328.09" y="5.03" width="5.05" height="5.03"/><rect class="cls-7" x="338.18" y="10.06" width="5.05" height="5.03"/><rect class="cls-7" x="353.32" y="10.06" width="5.05" height="5.03"/><rect class="cls-5" x="358.37" y="10.06" width="5.05" height="5.03"/><rect class="cls-6" x="368.47" y="5.03" width="5.05" height="5.03"/><rect class="cls-6" x="353.32" y="5.03" width="5.05" height="5.03"/><rect class="cls-7" x="363.42" y="10.06" width="5.05" height="5.03"/><rect class="cls-7" x="378.56" y="10.06" width="5.05" height="5.03"/><rect class="cls-5" x="383.61" y="10.06" width="5.05" height="5.03"/><rect class="cls-6" x="393.7" y="5.03" width="5.05" height="5.03"/><rect class="cls-6" x="378.56" y="5.03" width="5.05" height="5.03"/><rect class="cls-7" x="388.66" y="10.06" width="5.05" height="5.03"/><rect class="cls-7" x="403.8" y="10.06" width="5.05" height="5.03"/><rect class="cls-5" x="408.85" y="10.06" width="5.05" height="5.03"/><rect class="cls-6" x="418.94" y="5.03" width="5.05" height="5.03"/><rect class="cls-6" x="403.8" y="5.03" width="5.05" height="5.03"/><rect class="cls-7" x="413.89" y="10.06" width="5.05" height="5.03"/><rect class="cls-7" x="429.04" y="10.06" width="5.05" height="5.03"/><rect class="cls-5" x="434.08" y="10.06" width="5.05" height="5.03"/><rect class="cls-6" x="444.18" y="5.03" width="5.05" height="5.03"/><rect class="cls-6" x="429.04" y="5.03" width="5.05" height="5.03"/><rect class="cls-7" x="439.13" y="10.06" width="5.05" height="5.03"/><rect class="cls-7" x="454.27" y="10.06" width="5.05" height="5.03"/><rect class="cls-5" x="459.32" y="10.06" width="5.05" height="5.03"/><rect class="cls-6" x="469.42" y="5.03" width="5.05" height="5.03"/><rect class="cls-6" x="454.27" y="5.03" width="5.05" height="5.03"/><rect class="cls-7" x="464.37" y="10.06" width="5.05" height="5.03"/><rect class="cls-7" x="479.51" y="10.06" width="5.05" height="5.03"/><rect class="cls-5" x="484.56" y="10.06" width="5.05" height="5.03"/><rect class="cls-6" x="494.65" y="5.03" width="5.05" height="5.03"/><rect class="cls-6" x="479.51" y="5.03" width="5.05" height="5.03"/><rect class="cls-7" x="489.61" y="10.06" width="5.05" height="5.03"/><rect class="cls-5" x="40.38" y="40.23" width="5.05" height="5.03"/><rect class="cls-7" x="35.33" y="40.23" width="5.05" height="5.03"/><rect class="cls-7" x="55.52" y="70.41" width="5.05" height="5.03"/><rect class="cls-7" x="80.76" y="70.41" width="5.05" height="5.03"/><rect class="cls-7" x="106" y="70.41" width="5.05" height="5.03"/><rect class="cls-7" x="131.23" y="70.41" width="5.05" height="5.03"/><rect class="cls-7" x="156.47" y="70.41" width="5.05" height="5.03"/><rect class="cls-7" x="181.71" y="70.41" width="5.05" height="5.03"/><rect class="cls-7" x="206.95" y="70.41" width="5.05" height="5.03"/><rect class="cls-7" x="232.18" y="70.41" width="5.05" height="5.03"/><rect class="cls-7" x="257.42" y="70.41" width="5.05" height="5.03"/><rect class="cls-7" x="282.66" y="70.41" width="5.05" height="5.03"/><rect class="cls-7" x="307.9" y="70.41" width="5.05" height="5.03"/><rect class="cls-7" x="333.13" y="70.41" width="5.05" height="5.03"/><rect class="cls-7" x="358.37" y="70.41" width="5.05" height="5.03"/><rect class="cls-7" x="383.61" y="70.41" width="5.05" height="5.03"/><rect class="cls-7" x="408.85" y="70.41" width="5.05" height="5.03"/><rect class="cls-7" x="434.08" y="70.41" width="5.05" height="5.03"/><rect class="cls-7" x="459.32" y="70.41" width="5.05" height="5.03"/><rect class="cls-7" x="484.56" y="70.41" width="5.05" height="5.03"/><rect class="cls-5" x="50.47" y="55.32" width="5.05" height="5.03"/><rect class="cls-7" x="45.43" y="55.32" width="5.05" height="5.03"/><rect class="cls-5" x="75.71" y="55.32" width="5.05" height="5.03"/><rect class="cls-7" x="70.66" y="55.32" width="5.05" height="5.03"/><rect class="cls-5" x="100.95" y="55.32" width="5.05" height="5.03"/><rect class="cls-7" x="95.9" y="55.32" width="5.05" height="5.03"/><rect class="cls-5" x="126.19" y="55.32" width="5.05" height="5.03"/><rect class="cls-7" x="121.14" y="55.32" width="5.05" height="5.03"/><rect class="cls-5" x="151.42" y="55.32" width="5.05" height="5.03"/><rect class="cls-7" x="146.38" y="55.32" width="5.05" height="5.03"/><rect class="cls-5" x="176.66" y="55.32" width="5.05" height="5.03"/><rect class="cls-7" x="171.61" y="55.32" width="5.05" height="5.03"/><rect class="cls-5" x="201.9" y="55.32" width="5.05" height="5.03"/><rect class="cls-7" x="196.85" y="55.32" width="5.05" height="5.03"/><rect class="cls-5" x="227.14" y="55.32" width="5.05" height="5.03"/><rect class="cls-7" x="222.09" y="55.32" width="5.05" height="5.03"/><rect class="cls-5" x="252.37" y="55.32" width="5.05" height="5.03"/><rect class="cls-7" x="247.33" y="55.32" width="5.05" height="5.03"/><rect class="cls-5" x="277.61" y="55.32" width="5.05" height="5.03"/><rect class="cls-7" x="272.56" y="55.32" width="5.05" height="5.03"/><rect class="cls-5" x="302.85" y="55.32" width="5.05" height="5.03"/><rect class="cls-7" x="297.8" y="55.32" width="5.05" height="5.03"/><rect class="cls-5" x="328.09" y="55.32" width="5.05" height="5.03"/><rect class="cls-7" x="323.04" y="55.32" width="5.05" height="5.03"/><rect class="cls-5" x="353.32" y="55.32" width="5.05" height="5.03"/><rect class="cls-7" x="348.28" y="55.32" width="5.05" height="5.03"/><rect class="cls-5" x="378.56" y="55.32" width="5.05" height="5.03"/><rect class="cls-7" x="373.51" y="55.32" width="5.05" height="5.03"/><rect class="cls-5" x="403.8" y="55.32" width="5.05" height="5.03"/><rect class="cls-7" x="398.75" y="55.32" width="5.05" height="5.03"/><rect class="cls-5" x="429.04" y="55.32" width="5.05" height="5.03"/><rect class="cls-7" x="423.99" y="55.32" width="5.05" height="5.03"/><rect class="cls-5" x="454.27" y="55.32" width="5.05" height="5.03"/><rect class="cls-7" x="449.23" y="55.32" width="5.05" height="5.03"/><rect class="cls-5" x="479.51" y="55.32" width="5.05" height="5.03"/><rect class="cls-7" x="474.46" y="55.32" width="5.05" height="5.03"/><rect class="cls-7" x="499.7" y="55.32" width="5.05" height="5.03"/><rect class="cls-7" x="50.47" y="35.2" width="5.05" height="5.03"/><rect class="cls-5" x="65.62" y="40.23" width="5.05" height="5.03"/><rect class="cls-7" x="60.57" y="40.23" width="5.05" height="5.03"/><rect class="cls-7" x="75.71" y="35.2" width="5.05" height="5.03"/><rect class="cls-5" x="90.85" y="40.23" width="5.05" height="5.03"/><rect class="cls-7" x="85.81" y="40.23" width="5.05" height="5.03"/><rect class="cls-7" x="100.95" y="35.2" width="5.05" height="5.03"/><rect class="cls-5" x="116.09" y="40.23" width="5.05" height="5.03"/><rect class="cls-7" x="111.04" y="40.23" width="5.05" height="5.03"/><rect class="cls-7" x="126.19" y="35.2" width="5.05" height="5.03"/><rect class="cls-5" x="141.33" y="40.23" width="5.05" height="5.03"/><rect class="cls-7" x="136.28" y="40.23" width="5.05" height="5.03"/><rect class="cls-7" x="151.42" y="35.2" width="5.05" height="5.03"/><rect class="cls-5" x="166.57" y="40.23" width="5.05" height="5.03"/><rect class="cls-7" x="161.52" y="40.23" width="5.05" height="5.03"/><rect class="cls-7" x="176.66" y="35.2" width="5.05" height="5.03"/><rect class="cls-5" x="191.8" y="40.23" width="5.05" height="5.03"/><rect class="cls-7" x="186.76" y="40.23" width="5.05" height="5.03"/><rect class="cls-7" x="201.9" y="35.2" width="5.05" height="5.03"/><rect class="cls-5" x="217.04" y="40.23" width="5.05" height="5.03"/><rect class="cls-7" x="211.99" y="40.23" width="5.05" height="5.03"/><rect class="cls-7" x="227.14" y="35.2" width="5.05" height="5.03"/><rect class="cls-5" x="242.28" y="40.23" width="5.05" height="5.03"/><rect class="cls-7" x="237.23" y="40.23" width="5.05" height="5.03"/><rect class="cls-7" x="252.37" y="35.2" width="5.05" height="5.03"/><rect class="cls-5" x="267.52" y="40.23" width="5.05" height="5.03"/><rect class="cls-7" x="262.47" y="40.23" width="5.05" height="5.03"/><rect class="cls-7" x="277.61" y="35.2" width="5.05" height="5.03"/><rect class="cls-5" x="292.75" y="40.23" width="5.05" height="5.03"/><rect class="cls-7" x="287.71" y="40.23" width="5.05" height="5.03"/><rect class="cls-7" x="302.85" y="35.2" width="5.05" height="5.03"/><rect class="cls-5" x="317.99" y="40.23" width="5.05" height="5.03"/><rect class="cls-7" x="312.94" y="40.23" width="5.05" height="5.03"/><rect class="cls-7" x="328.09" y="35.2" width="5.05" height="5.03"/><rect class="cls-5" x="343.23" y="40.23" width="5.05" height="5.03"/><rect class="cls-7" x="338.18" y="40.23" width="5.05" height="5.03"/><rect class="cls-7" x="353.32" y="35.2" width="5.05" height="5.03"/><rect class="cls-5" x="368.47" y="40.23" width="5.05" height="5.03"/><rect class="cls-7" x="363.42" y="40.23" width="5.05" height="5.03"/><rect class="cls-7" x="378.56" y="35.2" width="5.05" height="5.03"/><rect class="cls-5" x="393.7" y="40.23" width="5.05" height="5.03"/><rect class="cls-7" x="388.66" y="40.23" width="5.05" height="5.03"/><rect class="cls-7" x="403.8" y="35.2" width="5.05" height="5.03"/><rect class="cls-5" x="418.94" y="40.23" width="5.05" height="5.03"/><rect class="cls-7" x="413.89" y="40.23" width="5.05" height="5.03"/><rect class="cls-7" x="429.04" y="35.2" width="5.05" height="5.03"/><rect class="cls-5" x="444.18" y="40.23" width="5.05" height="5.03"/><rect class="cls-7" x="439.13" y="40.23" width="5.05" height="5.03"/><rect class="cls-7" x="454.27" y="35.2" width="5.05" height="5.03"/><rect class="cls-5" x="469.42" y="40.23" width="5.05" height="5.03"/><rect class="cls-7" x="464.37" y="40.23" width="5.05" height="5.03"/><rect class="cls-7" x="479.51" y="35.2" width="5.05" height="5.03"/><rect class="cls-5" x="494.65" y="40.23" width="5.05" height="5.03"/><rect class="cls-7" x="489.61" y="40.23" width="5.05" height="5.03"/><rect class="cls-7" x="40.38" y="20.12" width="5.05" height="5.03"/><rect class="cls-5" x="45.43" y="25.14" width="5.05" height="5.03"/><rect class="cls-6" x="55.52" y="20.12" width="5.05" height="5.03"/><rect class="cls-7" x="50.47" y="25.14" width="5.05" height="5.03"/><rect class="cls-7" x="65.62" y="20.12" width="5.05" height="5.03"/><rect class="cls-5" x="70.66" y="25.14" width="5.05" height="5.03"/><rect class="cls-6" x="80.76" y="20.12" width="5.05" height="5.03"/><rect class="cls-7" x="75.71" y="25.14" width="5.05" height="5.03"/><rect class="cls-7" x="90.85" y="20.12" width="5.05" height="5.03"/><rect class="cls-5" x="95.9" y="25.14" width="5.05" height="5.03"/><rect class="cls-6" x="106" y="20.12" width="5.05" height="5.03"/><rect class="cls-7" x="100.95" y="25.14" width="5.05" height="5.03"/><rect class="cls-7" x="116.09" y="20.12" width="5.05" height="5.03"/><rect class="cls-5" x="121.14" y="25.14" width="5.05" height="5.03"/><rect class="cls-6" x="131.23" y="20.12" width="5.05" height="5.03"/><rect class="cls-7" x="126.19" y="25.14" width="5.05" height="5.03"/><rect class="cls-7" x="141.33" y="20.12" width="5.05" height="5.03"/><rect class="cls-5" x="146.38" y="25.14" width="5.05" height="5.03"/><rect class="cls-6" x="156.47" y="20.12" width="5.05" height="5.03"/><rect class="cls-7" x="151.42" y="25.14" width="5.05" height="5.03"/><rect class="cls-7" x="166.57" y="20.12" width="5.05" height="5.03"/><rect class="cls-5" x="171.61" y="25.14" width="5.05" height="5.03"/><rect class="cls-6" x="181.71" y="20.12" width="5.05" height="5.03"/><rect class="cls-7" x="176.66" y="25.14" width="5.05" height="5.03"/><rect class="cls-7" x="191.8" y="20.12" width="5.05" height="5.03"/><rect class="cls-5" x="196.85" y="25.14" width="5.05" height="5.03"/><rect class="cls-6" x="206.95" y="20.12" width="5.05" height="5.03"/><rect class="cls-7" x="201.9" y="25.14" width="5.05" height="5.03"/><rect class="cls-7" x="217.04" y="20.12" width="5.05" height="5.03"/><rect class="cls-5" x="222.09" y="25.14" width="5.05" height="5.03"/><rect class="cls-6" x="232.18" y="20.12" width="5.05" height="5.03"/><rect class="cls-7" x="227.14" y="25.14" width="5.05" height="5.03"/><rect class="cls-7" x="242.28" y="20.12" width="5.05" height="5.03"/><rect class="cls-5" x="247.33" y="25.14" width="5.05" height="5.03"/><rect class="cls-6" x="257.42" y="20.12" width="5.05" height="5.03"/><rect class="cls-7" x="252.37" y="25.14" width="5.05" height="5.03"/><rect class="cls-7" x="267.52" y="20.12" width="5.05" height="5.03"/><rect class="cls-5" x="272.56" y="25.14" width="5.05" height="5.03"/><rect class="cls-6" x="282.66" y="20.12" width="5.05" height="5.03"/><rect class="cls-7" x="277.61" y="25.14" width="5.05" height="5.03"/><rect class="cls-7" x="292.75" y="20.12" width="5.05" height="5.03"/><rect class="cls-5" x="297.8" y="25.14" width="5.05" height="5.03"/><rect class="cls-6" x="307.9" y="20.12" width="5.05" height="5.03"/><rect class="cls-7" x="302.85" y="25.14" width="5.05" height="5.03"/><rect class="cls-7" x="317.99" y="20.12" width="5.05" height="5.03"/><rect class="cls-5" x="323.04" y="25.14" width="5.05" height="5.03"/><rect class="cls-6" x="333.13" y="20.12" width="5.05" height="5.03"/><rect class="cls-7" x="328.09" y="25.14" width="5.05" height="5.03"/><rect class="cls-7" x="343.23" y="20.12" width="5.05" height="5.03"/><rect class="cls-5" x="348.28" y="25.14" width="5.05" height="5.03"/><rect class="cls-6" x="358.37" y="20.12" width="5.05" height="5.03"/><rect class="cls-7" x="353.32" y="25.14" width="5.05" height="5.03"/><rect class="cls-7" x="368.47" y="20.12" width="5.05" height="5.03"/><rect class="cls-5" x="373.51" y="25.14" width="5.05" height="5.03"/><rect class="cls-6" x="383.61" y="20.12" width="5.05" height="5.03"/><rect class="cls-7" x="378.56" y="25.14" width="5.05" height="5.03"/><rect class="cls-7" x="393.7" y="20.12" width="5.05" height="5.03"/><rect class="cls-5" x="398.75" y="25.14" width="5.05" height="5.03"/><rect class="cls-6" x="408.85" y="20.12" width="5.05" height="5.03"/><rect class="cls-7" x="403.8" y="25.14" width="5.05" height="5.03"/><rect class="cls-7" x="418.94" y="20.12" width="5.05" height="5.03"/><rect class="cls-5" x="423.99" y="25.14" width="5.05" height="5.03"/><rect class="cls-6" x="434.08" y="20.12" width="5.05" height="5.03"/><rect class="cls-7" x="429.04" y="25.14" width="5.05" height="5.03"/><rect class="cls-7" x="444.18" y="20.12" width="5.05" height="5.03"/><rect class="cls-5" x="449.23" y="25.14" width="5.05" height="5.03"/><rect class="cls-6" x="459.32" y="20.12" width="5.05" height="5.03"/><rect class="cls-7" x="454.27" y="25.14" width="5.05" height="5.03"/><rect class="cls-7" x="469.42" y="20.12" width="5.05" height="5.03"/><rect class="cls-5" x="474.46" y="25.14" width="5.05" height="5.03"/><rect class="cls-6" x="484.56" y="20.12" width="5.05" height="5.03"/><rect class="cls-7" x="479.51" y="25.14" width="5.05" height="5.03"/><rect class="cls-7" x="494.65" y="20.12" width="5.05" height="5.03"/><rect class="cls-5" x="499.7" y="25.14" width="5.05" height="5.03"/><rect class="cls-8" x="40.38" y="20.12" width="20.19" height="10.06"/><rect class="cls-8" x="65.62" y="20.12" width="20.19" height="10.06"/><rect class="cls-8" x="90.85" y="20.12" width="20.19" height="10.06"/><rect class="cls-8" x="116.09" y="20.12" width="20.19" height="10.06"/><rect class="cls-8" x="141.33" y="20.12" width="20.19" height="10.06"/><rect class="cls-8" x="166.57" y="20.12" width="20.19" height="10.06"/><rect class="cls-8" x="191.8" y="20.12" width="20.19" height="10.06"/><rect class="cls-8" x="217.04" y="20.12" width="20.19" height="10.06"/><rect class="cls-8" x="242.28" y="20.12" width="20.19" height="10.06"/><rect class="cls-8" x="267.52" y="20.12" width="20.19" height="10.06"/><rect class="cls-8" x="292.75" y="20.12" width="20.19" height="10.06"/><rect class="cls-8" x="317.99" y="20.12" width="20.19" height="10.06"/><rect class="cls-8" x="343.23" y="20.12" width="20.19" height="10.06"/><rect class="cls-8" x="368.47" y="20.12" width="20.19" height="10.06"/><rect class="cls-8" x="393.7" y="20.12" width="20.19" height="10.06"/><rect class="cls-8" x="418.94" y="20.12" width="20.19" height="10.06"/><rect class="cls-8" x="444.18" y="20.12" width="20.19" height="10.06"/><rect class="cls-8" x="469.42" y="20.12" width="20.19" height="10.06"/><rect class="cls-8" x="494.65" y="20.12" width="10.1" height="10.06"/><g class="cls-9"><g class="cls-10"><rect class="cls-6" x="25.24" y="5.03" width="20.19" height="10.06"/><rect class="cls-6" x="50.47" y="5.03" width="20.19" height="10.06"/><rect class="cls-6" x="75.71" y="5.03" width="20.19" height="10.06"/><rect class="cls-6" x="100.95" y="5.03" width="20.19" height="10.06"/><rect class="cls-6" x="126.19" y="5.03" width="20.19" height="10.06"/><rect class="cls-6" x="151.42" y="5.03" width="20.19" height="10.06"/><rect class="cls-6" x="176.66" y="5.03" width="20.19" height="10.06"/><rect class="cls-6" x="201.9" y="5.03" width="20.19" height="10.06"/><rect class="cls-6" x="227.14" y="5.03" width="20.19" height="10.06"/><rect class="cls-6" x="252.37" y="5.03" width="20.19" height="10.06"/><rect class="cls-6" x="277.61" y="5.03" width="20.19" height="10.06"/><rect class="cls-6" x="302.85" y="5.03" width="20.19" height="10.06"/><rect class="cls-6" x="328.09" y="5.03" width="20.19" height="10.06"/><rect class="cls-6" x="353.32" y="5.03" width="20.19" height="10.06"/><rect class="cls-6" x="378.56" y="5.03" width="20.19" height="10.06"/><rect class="cls-6" x="403.8" y="5.03" width="20.19" height="10.06"/><rect class="cls-6" x="429.04" y="5.03" width="20.19" height="10.06"/><rect class="cls-6" x="454.27" y="5.03" width="20.19" height="10.06"/><rect class="cls-6" x="479.51" y="5.03" width="20.19" height="10.06"/></g></g></g><g class="cls-11"><rect class="cls-3" x="504.8" width="504.75" height="95.55"/><path class="cls-4" d="M957.21,30.4H937V20.34h20.19Zm10.09,5V45.49H947.11V35.43H967.3ZM957.21,60.57H937V50.51h20.19Zm10.09,5V75.66H947.11V65.6H967.3ZM957.21,90.75H937V80.69h20.19Zm-45.43,0V80.69H932V90.75Zm-25.24,0V80.69h20.19V90.75Zm-25.23,0V80.69H881.5V90.75Zm-25.24,0V80.69h20.19V90.75Zm-25.24,0V80.69H831V90.75Zm-25.24,0V80.69h20.19V90.75Zm-25.23,0V80.69h20.19V90.75Zm-25.24,0V80.69h20.19V90.75Zm-25.24,0V80.69h20.19V90.75Zm-25.24,0V80.69h20.19V90.75Zm-25.23,0V80.69H679.6V90.75Zm-25.24,0V80.69h20.19V90.75Zm-25.24,0V80.69h20.19V90.75Zm-25.24,0V80.69h20.19V90.75Zm-25.23,0V80.69h20.19V90.75Zm-25.24,0V80.69h20.19V90.75Zm-25.24,0V80.69h20.19V90.75Zm-25.24,0V80.69h20.19V90.75Zm10.1-25.15H513V75.66H492.84Zm-10.1-5V50.51h20.19V60.57Zm10.1-25.14H513V45.49H492.84Zm-10.1-5V20.34h20.19V30.4ZM513,20.34h15.14V30.4H508V20.34Zm25.24,0h15.14V30.4H533.22V20.34Zm25.23,0h15.15V30.4H558.46V20.34Zm25.24,0h15.14V30.4H583.69V20.34Zm25.24,0h15.14V30.4H608.93V20.34Zm25.24,0h15.14V30.4H634.17V20.34Zm25.23,0H679.6V30.4H659.41V20.34Zm25.24,0h15.14V30.4H684.64V20.34Zm25.24,0h15.14V30.4H709.88V20.34Zm25.24,0h15.14V30.4H735.12V20.34Zm25.23,0h15.15V30.4H760.36V20.34Zm25.24,0h15.14V30.4H785.59V20.34Zm25.24,0H831V30.4H810.83V20.34Zm25.24,0h15.14V30.4H836.07V20.34Zm25.23,0H881.5V30.4H861.31V20.34Zm25.24,0h15.14V30.4H886.54V20.34ZM932,60.57H911.78V50.51H932Zm-35.33,5h20.19V75.66H896.64Zm-25.24,0h20.19V75.66H871.4Zm-25.24,0h20.19V75.66H846.16Zm-25.23,0h20.19V75.66H820.93Zm-25.24,0h20.19V75.66H795.69Zm-25.24,0h20.19V75.66H770.45Zm-25.24,0H765.4V75.66H745.21ZM720,65.6h20.19V75.66H720Zm-25.24,0h20.19V75.66H694.74Zm-25.24,0h20.19V75.66H669.5Zm-25.24,0h20.19V75.66H644.26ZM619,65.6h20.19V75.66H619Zm-25.24,0H614V75.66H593.79Zm-25.24,0h20.19V75.66H568.55Zm-25.24,0H563.5V75.66H543.31ZM563.5,45.49H543.31V35.43H563.5Zm25.24,0H568.55V35.43h20.19Zm25.24,0H593.79V35.43H614Zm25.24,0H619V35.43h20.19Zm25.23,0H644.26V35.43h20.19Zm25.24,0H669.5V35.43h20.19Zm25.24,0H694.74V35.43h20.19Zm25.24,0H720V35.43h20.19Zm25.23,0H745.21V35.43H765.4Zm25.24,0H770.45V35.43h20.19Zm25.24,0H795.69V35.43h20.19Zm25.24,0H820.93V35.43h20.19Zm25.23,0H846.16V35.43h20.19Zm25.24,0H871.4V35.43h20.19Zm-30.28,5H881.5V60.57H861.31Zm-25.24,0h20.19V60.57H836.07Zm-25.24,0H831V60.57H810.83Zm-25.24,0h20.19V60.57H785.59Zm-25.23,0h20.19V60.57H760.36Zm-25.24,0h20.19V60.57H735.12Zm-25.24,0h20.19V60.57H709.88Zm-25.24,0h20.19V60.57H684.64Zm-25.23,0H679.6V60.57H659.41Zm-25.24,0h20.19V60.57H634.17Zm-25.24,0h20.19V60.57H608.93Zm-25.24,0h20.19V60.57H583.69Zm-25.23,0h20.19V60.57H558.46Zm-25.24,0h20.19V60.57H533.22ZM906.73,60.57H886.54V50.51h20.19Zm10.1-15.08H896.64V35.43h20.19ZM518.08,35.43h20.19V45.49H518.08ZM508,50.51h20.19V60.57H508Zm10.1,15.09h20.19V75.66H518.08Zm424,10.06H921.88V65.6h20.19Zm0-30.17H921.88V35.43h20.19ZM916.83,20.34H932V30.4H911.78V20.34ZM967.3,5.25V15.31H947.11V5.25h-5V15.31H921.88V5.25h-5V15.31H896.64V5.25h-5V15.31H871.4V5.25h-5V15.31H846.16V5.25h-5V15.31H820.93V5.25h-5V15.31H795.69V5.25h-5.05V15.31H770.45V5.25H765.4V15.31H745.21V5.25h-5V15.31H720V5.25h-5.05V15.31H694.74V5.25h-5V15.31H669.5V5.25h-5V15.31H644.26V5.25h-5V15.31H619V5.25h-5V15.31H593.79V5.25h-5V15.31H568.55V5.25h-5V15.31H543.31V5.25h-5V15.31H518.08V5.25H513V15.31H492.84V5.25h-5V15.31H467.6v5h10.1V30.4H467.6v5h20.19V45.49H467.6v5h10.1V60.57H467.6v5h20.19V75.66H467.6v5h10.1V90.75H467.6v5H972.35v-5H962.26V80.69h10.09V60.57H962.26V50.51h10.09V30.4H962.26V20.34h10.09V5.25Z" transform="translate(37.2 -0.23)"/><rect class="cls-5" x="504.8" width="504.75" height="5.03"/><rect class="cls-7" x="504.8" y="10.06" width="5.05" height="5.03"/><rect class="cls-5" x="509.85" y="10.06" width="5.05" height="5.03"/><rect class="cls-6" x="519.95" y="5.03" width="5.05" height="5.03"/><rect class="cls-6" x="504.8" y="5.03" width="5.05" height="5.03"/><rect class="cls-7" x="514.9" y="10.06" width="5.05" height="5.03"/><rect class="cls-7" x="530.04" y="10.06" width="5.05" height="5.03"/><rect class="cls-5" x="535.09" y="10.06" width="5.05" height="5.03"/><rect class="cls-6" x="545.18" y="5.03" width="5.05" height="5.03"/><rect class="cls-6" x="530.04" y="5.03" width="5.05" height="5.03"/><rect class="cls-7" x="540.14" y="10.06" width="5.05" height="5.03"/><rect class="cls-7" x="555.28" y="10.06" width="5.05" height="5.03"/><rect class="cls-5" x="560.33" y="10.06" width="5.05" height="5.03"/><rect class="cls-6" x="570.42" y="5.03" width="5.05" height="5.03"/><rect class="cls-6" x="555.28" y="5.03" width="5.05" height="5.03"/><rect class="cls-7" x="565.37" y="10.06" width="5.05" height="5.03"/><rect class="cls-7" x="580.52" y="10.06" width="5.05" height="5.03"/><rect class="cls-5" x="585.56" y="10.06" width="5.05" height="5.03"/><rect class="cls-6" x="595.66" y="5.03" width="5.05" height="5.03"/><rect class="cls-6" x="580.52" y="5.03" width="5.05" height="5.03"/><rect class="cls-7" x="590.61" y="10.06" width="5.05" height="5.03"/><rect class="cls-7" x="605.75" y="10.06" width="5.05" height="5.03"/><rect class="cls-5" x="610.8" y="10.06" width="5.05" height="5.03"/><rect class="cls-6" x="620.9" y="5.03" width="5.05" height="5.03"/><rect class="cls-6" x="605.75" y="5.03" width="5.05" height="5.03"/><rect class="cls-7" x="615.85" y="10.06" width="5.05" height="5.03"/><rect class="cls-7" x="630.99" y="10.06" width="5.05" height="5.03"/><rect class="cls-5" x="636.04" y="10.06" width="5.05" height="5.03"/><rect class="cls-6" x="646.13" y="5.03" width="5.05" height="5.03"/><rect class="cls-6" x="630.99" y="5.03" width="5.05" height="5.03"/><rect class="cls-7" x="641.09" y="10.06" width="5.05" height="5.03"/><rect class="cls-7" x="656.23" y="10.06" width="5.05" height="5.03"/><rect class="cls-5" x="661.28" y="10.06" width="5.05" height="5.03"/><rect class="cls-6" x="671.37" y="5.03" width="5.05" height="5.03"/><rect class="cls-6" x="656.23" y="5.03" width="5.05" height="5.03"/><rect class="cls-7" x="666.32" y="10.06" width="5.05" height="5.03"/><rect class="cls-7" x="681.47" y="10.06" width="5.05" height="5.03"/><rect class="cls-5" x="686.51" y="10.06" width="5.05" height="5.03"/><rect class="cls-6" x="696.61" y="5.03" width="5.05" height="5.03"/><rect class="cls-6" x="681.47" y="5.03" width="5.05" height="5.03"/><rect class="cls-7" x="691.56" y="10.06" width="5.05" height="5.03"/><rect class="cls-7" x="706.7" y="10.06" width="5.05" height="5.03"/><rect class="cls-5" x="711.75" y="10.06" width="5.05" height="5.03"/><rect class="cls-6" x="721.85" y="5.03" width="5.05" height="5.03"/><rect class="cls-6" x="706.7" y="5.03" width="5.05" height="5.03"/><rect class="cls-7" x="716.8" y="10.06" width="5.05" height="5.03"/><rect class="cls-7" x="731.94" y="10.06" width="5.05" height="5.03"/><rect class="cls-5" x="736.99" y="10.06" width="5.05" height="5.03"/><rect class="cls-6" x="747.08" y="5.03" width="5.05" height="5.03"/><rect class="cls-6" x="731.94" y="5.03" width="5.05" height="5.03"/><rect class="cls-7" x="742.04" y="10.06" width="5.05" height="5.03"/><rect class="cls-7" x="757.18" y="10.06" width="5.05" height="5.03"/><rect class="cls-5" x="762.23" y="10.06" width="5.05" height="5.03"/><rect class="cls-6" x="772.32" y="5.03" width="5.05" height="5.03"/><rect class="cls-6" x="757.18" y="5.03" width="5.05" height="5.03"/><rect class="cls-7" x="767.27" y="10.06" width="5.05" height="5.03"/><rect class="cls-7" x="782.42" y="10.06" width="5.05" height="5.03"/><rect class="cls-5" x="787.46" y="10.06" width="5.05" height="5.03"/><rect class="cls-6" x="797.56" y="5.03" width="5.05" height="5.03"/><rect class="cls-6" x="782.42" y="5.03" width="5.05" height="5.03"/><rect class="cls-7" x="792.51" y="10.06" width="5.05" height="5.03"/><rect class="cls-7" x="807.65" y="10.06" width="5.05" height="5.03"/><rect class="cls-5" x="812.7" y="10.06" width="5.05" height="5.03"/><rect class="cls-6" x="822.8" y="5.03" width="5.05" height="5.03"/><rect class="cls-6" x="807.65" y="5.03" width="5.05" height="5.03"/><rect class="cls-7" x="817.75" y="10.06" width="5.05" height="5.03"/><rect class="cls-7" x="832.89" y="10.06" width="5.05" height="5.03"/><rect class="cls-5" x="837.94" y="10.06" width="5.05" height="5.03"/><rect class="cls-6" x="848.03" y="5.03" width="5.05" height="5.03"/><rect class="cls-6" x="832.89" y="5.03" width="5.05" height="5.03"/><rect class="cls-7" x="842.99" y="10.06" width="5.05" height="5.03"/><rect class="cls-7" x="858.13" y="10.06" width="5.05" height="5.03"/><rect class="cls-5" x="863.18" y="10.06" width="5.05" height="5.03"/><rect class="cls-6" x="873.27" y="5.03" width="5.05" height="5.03"/><rect class="cls-6" x="858.13" y="5.03" width="5.05" height="5.03"/><rect class="cls-7" x="868.22" y="10.06" width="5.05" height="5.03"/><rect class="cls-7" x="883.37" y="10.06" width="5.05" height="5.03"/><rect class="cls-5" x="888.41" y="10.06" width="5.05" height="5.03"/><rect class="cls-6" x="898.51" y="5.03" width="5.05" height="5.03"/><rect class="cls-6" x="883.37" y="5.03" width="5.05" height="5.03"/><rect class="cls-7" x="893.46" y="10.06" width="5.05" height="5.03"/><rect class="cls-7" x="908.6" y="10.06" width="5.05" height="5.03"/><rect class="cls-5" x="913.65" y="10.06" width="5.05" height="5.03"/><rect class="cls-6" x="923.75" y="5.03" width="5.05" height="5.03"/><rect class="cls-6" x="908.6" y="5.03" width="5.05" height="5.03"/><rect class="cls-7" x="918.7" y="10.06" width="5.05" height="5.03"/><rect class="cls-7" x="933.84" y="10.06" width="5.05" height="5.03"/><rect class="cls-5" x="938.89" y="10.06" width="5.05" height="5.03"/><rect class="cls-6" x="948.98" y="5.03" width="5.05" height="5.03"/><rect class="cls-6" x="933.84" y="5.03" width="5.05" height="5.03"/><rect class="cls-7" x="943.94" y="10.06" width="5.05" height="5.03"/><rect class="cls-7" x="959.08" y="10.06" width="5.05" height="5.03"/><rect class="cls-5" x="964.13" y="10.06" width="5.05" height="5.03"/><rect class="cls-6" x="974.22" y="5.03" width="5.05" height="5.03"/><rect class="cls-6" x="959.08" y="5.03" width="5.05" height="5.03"/><rect class="cls-7" x="969.17" y="10.06" width="5.05" height="5.03"/><rect class="cls-7" x="984.32" y="10.06" width="5.05" height="5.03"/><rect class="cls-5" x="989.36" y="10.06" width="5.05" height="5.03"/><rect class="cls-6" x="999.46" y="5.03" width="5.05" height="5.03"/><rect class="cls-6" x="984.32" y="5.03" width="5.05" height="5.03"/><rect class="cls-7" x="994.41" y="10.06" width="5.05" height="5.03"/><rect class="cls-7" x="519.95" y="20.12" width="5.05" height="5.03"/><rect class="cls-5" x="524.99" y="25.14" width="5.05" height="5.03"/><rect class="cls-6" x="535.09" y="20.12" width="5.05" height="5.03"/><rect class="cls-7" x="530.04" y="25.14" width="5.05" height="5.03"/><rect class="cls-7" x="504.8" y="35.2" width="5.05" height="5.03"/><rect class="cls-5" x="519.95" y="40.23" width="5.05" height="5.03"/><rect class="cls-5" x="504.8" y="55.32" width="5.05" height="5.03"/><rect class="cls-7" x="514.9" y="40.23" width="5.05" height="5.03"/><rect class="cls-7" x="530.04" y="35.2" width="5.05" height="5.03"/><rect class="cls-5" x="545.18" y="40.23" width="5.05" height="5.03"/><rect class="cls-7" x="540.14" y="40.23" width="5.05" height="5.03"/><rect class="cls-5" x="530.04" y="55.32" width="5.05" height="5.03"/><rect class="cls-7" x="524.99" y="55.32" width="5.05" height="5.03"/><rect class="cls-7" x="509.85" y="70.41" width="5.05" height="5.03"/><rect class="cls-7" x="535.09" y="70.41" width="5.05" height="5.03"/><rect class="cls-7" x="560.33" y="70.41" width="5.05" height="5.03"/><rect class="cls-7" x="585.56" y="70.41" width="5.05" height="5.03"/><rect class="cls-7" x="610.8" y="70.41" width="5.05" height="5.03"/><rect class="cls-7" x="636.04" y="70.41" width="5.05" height="5.03"/><rect class="cls-7" x="661.28" y="70.41" width="5.05" height="5.03"/><rect class="cls-7" x="686.51" y="70.41" width="5.05" height="5.03"/><rect class="cls-7" x="711.75" y="70.41" width="5.05" height="5.03"/><rect class="cls-7" x="736.99" y="70.41" width="5.05" height="5.03"/><rect class="cls-7" x="762.23" y="70.41" width="5.05" height="5.03"/><rect class="cls-7" x="787.46" y="70.41" width="5.05" height="5.03"/><rect class="cls-7" x="812.7" y="70.41" width="5.05" height="5.03"/><rect class="cls-7" x="837.94" y="70.41" width="5.05" height="5.03"/><rect class="cls-7" x="863.18" y="70.41" width="5.05" height="5.03"/><rect class="cls-7" x="888.41" y="70.41" width="5.05" height="5.03"/><rect class="cls-7" x="913.65" y="70.41" width="5.05" height="5.03"/><rect class="cls-7" x="938.89" y="70.41" width="5.05" height="5.03"/><rect class="cls-7" x="964.13" y="70.41" width="5.05" height="5.03"/><rect class="cls-7" x="989.36" y="70.41" width="5.05" height="5.03"/><rect class="cls-5" x="555.28" y="55.32" width="5.05" height="5.03"/><rect class="cls-7" x="550.23" y="55.32" width="5.05" height="5.03"/><rect class="cls-5" x="580.52" y="55.32" width="5.05" height="5.03"/><rect class="cls-7" x="575.47" y="55.32" width="5.05" height="5.03"/><rect class="cls-5" x="605.75" y="55.32" width="5.05" height="5.03"/><rect class="cls-7" x="600.71" y="55.32" width="5.05" height="5.03"/><rect class="cls-5" x="630.99" y="55.32" width="5.05" height="5.03"/><rect class="cls-7" x="625.94" y="55.32" width="5.05" height="5.03"/><rect class="cls-5" x="656.23" y="55.32" width="5.05" height="5.03"/><rect class="cls-7" x="651.18" y="55.32" width="5.05" height="5.03"/><rect class="cls-5" x="681.47" y="55.32" width="5.05" height="5.03"/><rect class="cls-7" x="676.42" y="55.32" width="5.05" height="5.03"/><rect class="cls-5" x="706.7" y="55.32" width="5.05" height="5.03"/><rect class="cls-7" x="701.66" y="55.32" width="5.05" height="5.03"/><rect class="cls-5" x="731.94" y="55.32" width="5.05" height="5.03"/><rect class="cls-7" x="726.89" y="55.32" width="5.05" height="5.03"/><rect class="cls-5" x="757.18" y="55.32" width="5.05" height="5.03"/><rect class="cls-7" x="752.13" y="55.32" width="5.05" height="5.03"/><rect class="cls-5" x="782.42" y="55.32" width="5.05" height="5.03"/><rect class="cls-7" x="777.37" y="55.32" width="5.05" height="5.03"/><rect class="cls-5" x="807.65" y="55.32" width="5.05" height="5.03"/><rect class="cls-7" x="802.61" y="55.32" width="5.05" height="5.03"/><rect class="cls-5" x="832.89" y="55.32" width="5.05" height="5.03"/><rect class="cls-7" x="827.84" y="55.32" width="5.05" height="5.03"/><rect class="cls-5" x="858.13" y="55.32" width="5.05" height="5.03"/><rect class="cls-7" x="853.08" y="55.32" width="5.05" height="5.03"/><rect class="cls-5" x="883.37" y="55.32" width="5.05" height="5.03"/><rect class="cls-7" x="878.32" y="55.32" width="5.05" height="5.03"/><rect class="cls-5" x="908.6" y="55.32" width="5.05" height="5.03"/><rect class="cls-7" x="903.56" y="55.32" width="5.05" height="5.03"/><rect class="cls-5" x="933.84" y="55.32" width="5.05" height="5.03"/><rect class="cls-7" x="928.79" y="55.32" width="5.05" height="5.03"/><rect class="cls-5" x="959.08" y="55.32" width="5.05" height="5.03"/><rect class="cls-7" x="954.03" y="55.32" width="5.05" height="5.03"/><rect class="cls-5" x="984.32" y="55.32" width="5.05" height="5.03"/><rect class="cls-7" x="979.27" y="55.32" width="5.05" height="5.03"/><rect class="cls-7" x="1004.51" y="55.32" width="5.05" height="5.03"/><rect class="cls-7" x="555.28" y="35.2" width="5.05" height="5.03"/><rect class="cls-5" x="570.42" y="40.23" width="5.05" height="5.03"/><rect class="cls-7" x="565.37" y="40.23" width="5.05" height="5.03"/><rect class="cls-7" x="580.52" y="35.2" width="5.05" height="5.03"/><rect class="cls-5" x="595.66" y="40.23" width="5.05" height="5.03"/><rect class="cls-7" x="590.61" y="40.23" width="5.05" height="5.03"/><rect class="cls-7" x="605.75" y="35.2" width="5.05" height="5.03"/><rect class="cls-5" x="620.9" y="40.23" width="5.05" height="5.03"/><rect class="cls-7" x="615.85" y="40.23" width="5.05" height="5.03"/><rect class="cls-7" x="630.99" y="35.2" width="5.05" height="5.03"/><rect class="cls-5" x="646.13" y="40.23" width="5.05" height="5.03"/><rect class="cls-7" x="641.09" y="40.23" width="5.05" height="5.03"/><rect class="cls-7" x="656.23" y="35.2" width="5.05" height="5.03"/><rect class="cls-5" x="671.37" y="40.23" width="5.05" height="5.03"/><rect class="cls-7" x="666.32" y="40.23" width="5.05" height="5.03"/><rect class="cls-7" x="681.47" y="35.2" width="5.05" height="5.03"/><rect class="cls-5" x="696.61" y="40.23" width="5.05" height="5.03"/><rect class="cls-7" x="691.56" y="40.23" width="5.05" height="5.03"/><rect class="cls-7" x="706.7" y="35.2" width="5.05" height="5.03"/><rect class="cls-5" x="721.85" y="40.23" width="5.05" height="5.03"/><rect class="cls-7" x="716.8" y="40.23" width="5.05" height="5.03"/><rect class="cls-7" x="731.94" y="35.2" width="5.05" height="5.03"/><rect class="cls-5" x="747.08" y="40.23" width="5.05" height="5.03"/><rect class="cls-7" x="742.04" y="40.23" width="5.05" height="5.03"/><rect class="cls-7" x="757.18" y="35.2" width="5.05" height="5.03"/><rect class="cls-5" x="772.32" y="40.23" width="5.05" height="5.03"/><rect class="cls-7" x="767.27" y="40.23" width="5.05" height="5.03"/><rect class="cls-7" x="782.42" y="35.2" width="5.05" height="5.03"/><rect class="cls-5" x="797.56" y="40.23" width="5.05" height="5.03"/><rect class="cls-7" x="792.51" y="40.23" width="5.05" height="5.03"/><rect class="cls-7" x="807.65" y="35.2" width="5.05" height="5.03"/><rect class="cls-5" x="822.8" y="40.23" width="5.05" height="5.03"/><rect class="cls-7" x="817.75" y="40.23" width="5.05" height="5.03"/><rect class="cls-7" x="832.89" y="35.2" width="5.05" height="5.03"/><rect class="cls-5" x="848.03" y="40.23" width="5.05" height="5.03"/><rect class="cls-7" x="842.99" y="40.23" width="5.05" height="5.03"/><rect class="cls-7" x="858.13" y="35.2" width="5.05" height="5.03"/><rect class="cls-5" x="873.27" y="40.23" width="5.05" height="5.03"/><rect class="cls-7" x="868.22" y="40.23" width="5.05" height="5.03"/><rect class="cls-7" x="883.37" y="35.2" width="5.05" height="5.03"/><rect class="cls-5" x="898.51" y="40.23" width="5.05" height="5.03"/><rect class="cls-7" x="893.46" y="40.23" width="5.05" height="5.03"/><rect class="cls-7" x="908.6" y="35.2" width="5.05" height="5.03"/><rect class="cls-5" x="923.75" y="40.23" width="5.05" height="5.03"/><rect class="cls-7" x="918.7" y="40.23" width="5.05" height="5.03"/><rect class="cls-7" x="933.84" y="35.2" width="5.05" height="5.03"/><rect class="cls-5" x="948.98" y="40.23" width="5.05" height="5.03"/><rect class="cls-7" x="943.94" y="40.23" width="5.05" height="5.03"/><rect class="cls-7" x="959.08" y="35.2" width="5.05" height="5.03"/><rect class="cls-5" x="974.22" y="40.23" width="5.05" height="5.03"/><rect class="cls-7" x="969.17" y="40.23" width="5.05" height="5.03"/><rect class="cls-7" x="984.32" y="35.2" width="5.05" height="5.03"/><rect class="cls-5" x="999.46" y="40.23" width="5.05" height="5.03"/><rect class="cls-7" x="994.41" y="40.23" width="5.05" height="5.03"/><rect class="cls-7" x="545.18" y="20.12" width="5.05" height="5.03"/><rect class="cls-5" x="550.23" y="25.14" width="5.05" height="5.03"/><rect class="cls-6" x="560.33" y="20.12" width="5.05" height="5.03"/><rect class="cls-7" x="555.28" y="25.14" width="5.05" height="5.03"/><rect class="cls-7" x="570.42" y="20.12" width="5.05" height="5.03"/><rect class="cls-5" x="575.47" y="25.14" width="5.05" height="5.03"/><rect class="cls-6" x="585.56" y="20.12" width="5.05" height="5.03"/><rect class="cls-7" x="580.52" y="25.14" width="5.05" height="5.03"/><rect class="cls-7" x="595.66" y="20.12" width="5.05" height="5.03"/><rect class="cls-5" x="600.71" y="25.14" width="5.05" height="5.03"/><rect class="cls-6" x="610.8" y="20.12" width="5.05" height="5.03"/><rect class="cls-7" x="605.75" y="25.14" width="5.05" height="5.03"/><rect class="cls-7" x="620.9" y="20.12" width="5.05" height="5.03"/><rect class="cls-5" x="625.94" y="25.14" width="5.05" height="5.03"/><rect class="cls-6" x="636.04" y="20.12" width="5.05" height="5.03"/><rect class="cls-7" x="630.99" y="25.14" width="5.05" height="5.03"/><rect class="cls-7" x="646.13" y="20.12" width="5.05" height="5.03"/><rect class="cls-5" x="651.18" y="25.14" width="5.05" height="5.03"/><rect class="cls-6" x="661.28" y="20.12" width="5.05" height="5.03"/><rect class="cls-7" x="656.23" y="25.14" width="5.05" height="5.03"/><rect class="cls-7" x="671.37" y="20.12" width="5.05" height="5.03"/><rect class="cls-5" x="676.42" y="25.14" width="5.05" height="5.03"/><rect class="cls-6" x="686.51" y="20.12" width="5.05" height="5.03"/><rect class="cls-7" x="681.47" y="25.14" width="5.05" height="5.03"/><rect class="cls-7" x="696.61" y="20.12" width="5.05" height="5.03"/><rect class="cls-5" x="701.66" y="25.14" width="5.05" height="5.03"/><rect class="cls-6" x="711.75" y="20.12" width="5.05" height="5.03"/><rect class="cls-7" x="706.7" y="25.14" width="5.05" height="5.03"/><rect class="cls-7" x="721.85" y="20.12" width="5.05" height="5.03"/><rect class="cls-5" x="726.89" y="25.14" width="5.05" height="5.03"/><rect class="cls-6" x="736.99" y="20.12" width="5.05" height="5.03"/><rect class="cls-7" x="731.94" y="25.14" width="5.05" height="5.03"/><rect class="cls-7" x="747.08" y="20.12" width="5.05" height="5.03"/><rect class="cls-5" x="752.13" y="25.14" width="5.05" height="5.03"/><rect class="cls-6" x="762.23" y="20.12" width="5.05" height="5.03"/><rect class="cls-7" x="757.18" y="25.14" width="5.05" height="5.03"/><rect class="cls-7" x="772.32" y="20.12" width="5.05" height="5.03"/><rect class="cls-5" x="777.37" y="25.14" width="5.05" height="5.03"/><rect class="cls-6" x="787.46" y="20.12" width="5.05" height="5.03"/><rect class="cls-7" x="782.42" y="25.14" width="5.05" height="5.03"/><rect class="cls-7" x="797.56" y="20.12" width="5.05" height="5.03"/><rect class="cls-5" x="802.61" y="25.14" width="5.05" height="5.03"/><rect class="cls-6" x="812.7" y="20.12" width="5.05" height="5.03"/><rect class="cls-7" x="807.65" y="25.14" width="5.05" height="5.03"/><rect class="cls-7" x="822.8" y="20.12" width="5.05" height="5.03"/><rect class="cls-5" x="827.84" y="25.14" width="5.05" height="5.03"/><rect class="cls-6" x="837.94" y="20.12" width="5.05" height="5.03"/><rect class="cls-7" x="832.89" y="25.14" width="5.05" height="5.03"/><rect class="cls-7" x="848.03" y="20.12" width="5.05" height="5.03"/><rect class="cls-5" x="853.08" y="25.14" width="5.05" height="5.03"/><rect class="cls-6" x="863.18" y="20.12" width="5.05" height="5.03"/><rect class="cls-7" x="858.13" y="25.14" width="5.05" height="5.03"/><rect class="cls-7" x="873.27" y="20.12" width="5.05" height="5.03"/><rect class="cls-5" x="878.32" y="25.14" width="5.05" height="5.03"/><rect class="cls-6" x="888.41" y="20.12" width="5.05" height="5.03"/><rect class="cls-7" x="883.37" y="25.14" width="5.05" height="5.03"/><rect class="cls-7" x="898.51" y="20.12" width="5.05" height="5.03"/><rect class="cls-5" x="903.56" y="25.14" width="5.05" height="5.03"/><rect class="cls-6" x="913.65" y="20.12" width="5.05" height="5.03"/><rect class="cls-7" x="908.6" y="25.14" width="5.05" height="5.03"/><rect class="cls-7" x="923.75" y="20.12" width="5.05" height="5.03"/><rect class="cls-5" x="928.79" y="25.14" width="5.05" height="5.03"/><rect class="cls-6" x="938.89" y="20.12" width="5.05" height="5.03"/><rect class="cls-7" x="933.84" y="25.14" width="5.05" height="5.03"/><rect class="cls-7" x="948.98" y="20.12" width="5.05" height="5.03"/><rect class="cls-5" x="954.03" y="25.14" width="5.05" height="5.03"/><rect class="cls-6" x="964.13" y="20.12" width="5.05" height="5.03"/><rect class="cls-7" x="959.08" y="25.14" width="5.05" height="5.03"/><rect class="cls-7" x="974.22" y="20.12" width="5.05" height="5.03"/><rect class="cls-5" x="979.27" y="25.14" width="5.05" height="5.03"/><rect class="cls-6" x="989.36" y="20.12" width="5.05" height="5.03"/><rect class="cls-7" x="984.32" y="25.14" width="5.05" height="5.03"/><rect class="cls-7" x="999.46" y="20.12" width="5.05" height="5.03"/><rect class="cls-5" x="1004.51" y="25.14" width="5.05" height="5.03"/><rect class="cls-6" x="509.85" y="20.12" width="5.05" height="5.03"/><rect class="cls-7" x="504.8" y="25.14" width="5.05" height="5.03"/><rect class="cls-8" x="504.8" y="20.12" width="10.09" height="10.06"/><rect class="cls-8" x="519.95" y="20.12" width="20.19" height="10.06"/><rect class="cls-8" x="545.18" y="20.12" width="20.19" height="10.06"/><rect class="cls-8" x="570.42" y="20.12" width="20.19" height="10.06"/><rect class="cls-8" x="595.66" y="20.12" width="20.19" height="10.06"/><rect class="cls-8" x="620.9" y="20.12" width="20.19" height="10.06"/><rect class="cls-8" x="646.13" y="20.12" width="20.19" height="10.06"/><rect class="cls-8" x="671.37" y="20.12" width="20.19" height="10.06"/><rect class="cls-8" x="696.61" y="20.12" width="20.19" height="10.06"/><rect class="cls-8" x="721.85" y="20.12" width="20.19" height="10.06"/><rect class="cls-8" x="747.08" y="20.12" width="20.19" height="10.06"/><rect class="cls-8" x="772.32" y="20.12" width="20.19" height="10.06"/><rect class="cls-8" x="797.56" y="20.12" width="20.19" height="10.06"/><rect class="cls-8" x="822.8" y="20.12" width="20.19" height="10.06"/><rect class="cls-8" x="848.03" y="20.12" width="20.19" height="10.06"/><rect class="cls-8" x="873.27" y="20.12" width="20.19" height="10.06"/><rect class="cls-8" x="898.51" y="20.12" width="20.19" height="10.06"/><rect class="cls-8" x="923.75" y="20.12" width="20.19" height="10.06"/><rect class="cls-8" x="948.98" y="20.12" width="20.19" height="10.06"/><rect class="cls-8" x="974.22" y="20.12" width="20.19" height="10.06"/><rect class="cls-8" x="999.46" y="20.12" width="10.1" height="10.06"/><g class="cls-9"><g class="cls-12"><rect class="cls-6" x="504.8" y="5.03" width="20.19" height="10.06"/><rect class="cls-6" x="530.04" y="5.03" width="20.19" height="10.06"/><rect class="cls-6" x="555.28" y="5.03" width="20.19" height="10.06"/><rect class="cls-6" x="580.52" y="5.03" width="20.19" height="10.06"/><rect class="cls-6" x="605.75" y="5.03" width="20.19" height="10.06"/><rect class="cls-6" x="630.99" y="5.03" width="20.19" height="10.06"/><rect class="cls-6" x="656.23" y="5.03" width="20.19" height="10.06"/><rect class="cls-6" x="681.47" y="5.03" width="20.19" height="10.06"/><rect class="cls-6" x="706.7" y="5.03" width="20.19" height="10.06"/><rect class="cls-6" x="731.94" y="5.03" width="20.19" height="10.06"/><rect class="cls-6" x="757.18" y="5.03" width="20.19" height="10.06"/><rect class="cls-6" x="782.42" y="5.03" width="20.19" height="10.06"/><rect class="cls-6" x="807.65" y="5.03" width="20.19" height="10.06"/><rect class="cls-6" x="832.89" y="5.03" width="20.19" height="10.06"/><rect class="cls-6" x="858.13" y="5.03" width="20.19" height="10.06"/><rect class="cls-6" x="883.37" y="5.03" width="20.19" height="10.06"/><rect class="cls-6" x="908.6" y="5.03" width="20.19" height="10.06"/><rect class="cls-6" x="933.84" y="5.03" width="20.19" height="10.06"/><rect class="cls-6" x="959.08" y="5.03" width="20.19" height="10.06"/><rect class="cls-6" x="984.32" y="5.03" width="20.19" height="10.06"/></g></g></g><g class="cls-13"><rect class="cls-3" x="1009.6" width="504.75" height="95.55"/><path class="cls-4" d="M1462,30.4h-20.19V20.34H1462Zm10.09,5V45.49h-20.19V35.43h20.19ZM1462,60.57h-20.19V50.51H1462Zm10.09,5V75.66h-20.19V65.6h20.19ZM1462,90.75h-20.19V80.69H1462Zm-45.43,0V80.69h20.19V90.75Zm-25.24,0V80.69h20.19V90.75Zm-25.24,0V80.69h20.19V90.75Zm-25.23,0V80.69h20.19V90.75Zm-25.24,0V80.69h20.19V90.75Zm-25.24,0V80.69h20.19V90.75Zm-25.24,0V80.69h20.19V90.75Zm-25.23,0V80.69h20.19V90.75Zm-25.24,0V80.69h20.19V90.75Zm-25.24,0V80.69h20.19V90.75Zm-25.24,0V80.69h20.19V90.75Zm-25.23,0V80.69h20.19V90.75Zm-25.24,0V80.69h20.19V90.75Zm-25.24,0V80.69h20.19V90.75Zm-25.24,0V80.69h20.19V90.75Zm-25.23,0V80.69h20.19V90.75Zm-25.24,0V80.69H1033V90.75Zm-25.24,0V80.69h20.19V90.75Zm10.1-25.15h20.19V75.66H997.64Zm-10.1-5V50.51h20.19V60.57Zm10.1-25.14h20.19V45.49H997.64Zm-10.1-5V20.34h20.19V30.4Zm30.29-10.06H1033V30.4h-20.19V20.34Zm25.23,0h15.15V30.4H1038V20.34Zm25.24,0h15.14V30.4h-20.19V20.34Zm25.24,0h15.14V30.4h-20.19V20.34Zm25.24,0h15.14V30.4h-20.19V20.34Zm25.23,0h15.15V30.4H1139V20.34Zm25.24,0h15.14V30.4H1164.2V20.34Zm25.24,0h15.14V30.4h-20.19V20.34Zm25.24,0h15.14V30.4h-20.19V20.34Zm25.23,0h15.15V30.4h-20.19V20.34Zm25.24,0h15.14V30.4h-20.19V20.34Zm25.24,0h15.14V30.4h-20.19V20.34Zm25.24,0h15.14V30.4h-20.19V20.34Zm25.23,0h15.15V30.4h-20.19V20.34Zm25.24,0h15.14V30.4H1366.1V20.34Zm25.24,0h15.14V30.4h-20.19V20.34Zm40.38,40.23h-20.19V50.51h20.19Zm-35.33,5h20.19V75.66h-20.19Zm-25.24,0h20.19V75.66H1376.2Zm-25.24,0h20.19V75.66H1351Zm-25.24,0h20.19V75.66h-20.19Zm-25.23,0h20.19V75.66h-20.19Zm-25.24,0h20.19V75.66h-20.19Zm-25.24,0h20.19V75.66H1250Zm-25.24,0H1245V75.66h-20.19Zm-25.23,0h20.19V75.66h-20.19Zm-25.24,0h20.19V75.66H1174.3Zm-25.24,0h20.19V75.66h-20.19Zm-25.24,0H1144V75.66h-20.19Zm-25.23,0h20.19V75.66h-20.19Zm-25.24,0h20.19V75.66h-20.19Zm-25.24,0h20.19V75.66h-20.19Zm20.19-20.11h-20.19V35.43h20.19Zm25.24,0h-20.19V35.43h20.19Zm25.24,0h-20.19V35.43h20.19Zm25.23,0h-20.19V35.43H1144Zm25.24,0h-20.19V35.43h20.19Zm25.24,0H1174.3V35.43h20.19Zm25.24,0h-20.19V35.43h20.19Zm25.23,0h-20.19V35.43H1245Zm25.24,0H1250V35.43h20.19Zm25.24,0h-20.19V35.43h20.19Zm25.24,0h-20.19V35.43h20.19Zm25.23,0h-20.19V35.43h20.19Zm25.24,0H1351V35.43h20.19Zm25.24,0H1376.2V35.43h20.19Zm-30.29,5h20.19V60.57H1366.1Zm-25.23,0h20.19V60.57h-20.19Zm-25.24,0h20.19V60.57h-20.19Zm-25.24,0h20.19V60.57h-20.19Zm-25.24,0h20.19V60.57h-20.19Zm-25.23,0h20.19V60.57h-20.19Zm-25.24,0h20.19V60.57h-20.19Zm-25.24,0h20.19V60.57h-20.19Zm-25.24,0h20.19V60.57H1164.2Zm-25.23,0h20.19V60.57H1139Zm-25.24,0h20.19V60.57h-20.19Zm-25.24,0h20.19V60.57h-20.19Zm-25.24,0h20.19V60.57h-20.19Zm-25.23,0h20.19V60.57H1038Zm373.51,10.06h-20.19V50.51h20.19Zm10.1-15.08h-20.19V35.43h20.19ZM1022.87,35.43h20.19V45.49h-20.19Zm-10.09,15.08H1033V60.57h-20.19Zm10.09,15.09h20.19V75.66h-20.19Zm424,10.06h-20.19V65.6h20.19Zm0-30.17h-20.19V35.43h20.19Zm-25.23-25.15h15.14V30.4h-20.19V20.34ZM1472.1,5.25V15.31h-20.19V5.25h-5.05V15.31h-20.19V5.25h-5V15.31h-20.19V5.25h-5V15.31H1376.2V5.25h-5V15.31H1351V5.25h-5V15.31h-20.19V5.25h-5V15.31h-20.19V5.25h-5V15.31h-20.19V5.25h-5V15.31H1250V5.25h-5V15.31h-20.19V5.25h-5V15.31h-20.19V5.25h-5V15.31H1174.3V5.25h-5V15.31h-20.19V5.25h-5V15.31h-20.19V5.25h-5V15.31h-20.19V5.25h-5V15.31h-20.19V5.25h-5V15.31h-20.19V5.25h-5V15.31h-20.19V5.25h-5V15.31H997.64V5.25h-5V15.31H972.4v5h10.09V30.4H972.4v5h20.19V45.49H972.4v5h10.09V60.57H972.4v5h20.19V75.66H972.4v5h10.09V90.75H972.4v5h504.75v-5h-10.1V80.69h10.1V60.57h-10.1V50.51h10.1V30.4h-10.1V20.34h10.1V5.25Z" transform="translate(37.2 -0.23)"/><rect class="cls-5" x="1009.6" width="504.75" height="5.03"/><rect class="cls-7" x="1009.6" y="10.06" width="5.05" height="5.03"/><rect class="cls-5" x="1014.65" y="10.06" width="5.05" height="5.03"/><rect class="cls-6" x="1024.75" y="5.03" width="5.05" height="5.03"/><rect class="cls-6" x="1009.6" y="5.03" width="5.05" height="5.03"/><rect class="cls-7" x="1019.7" y="10.06" width="5.05" height="5.03"/><rect class="cls-7" x="1034.84" y="10.06" width="5.05" height="5.03"/><rect class="cls-5" x="1039.89" y="10.06" width="5.05" height="5.03"/><rect class="cls-6" x="1049.98" y="5.03" width="5.05" height="5.03"/><rect class="cls-6" x="1034.84" y="5.03" width="5.05" height="5.03"/><rect class="cls-7" x="1044.94" y="10.06" width="5.05" height="5.03"/><rect class="cls-7" x="1060.08" y="10.06" width="5.05" height="5.03"/><rect class="cls-5" x="1065.13" y="10.06" width="5.05" height="5.03"/><rect class="cls-6" x="1075.22" y="5.03" width="5.05" height="5.03"/><rect class="cls-6" x="1060.08" y="5.03" width="5.05" height="5.03"/><rect class="cls-7" x="1070.17" y="10.06" width="5.05" height="5.03"/><rect class="cls-7" x="1085.32" y="10.06" width="5.05" height="5.03"/><rect class="cls-5" x="1090.36" y="10.06" width="5.05" height="5.03"/><rect class="cls-6" x="1100.46" y="5.03" width="5.05" height="5.03"/><rect class="cls-6" x="1085.32" y="5.03" width="5.05" height="5.03"/><rect class="cls-7" x="1095.41" y="10.06" width="5.05" height="5.03"/><rect class="cls-7" x="1110.55" y="10.06" width="5.05" height="5.03"/><rect class="cls-5" x="1115.6" y="10.06" width="5.05" height="5.03"/><rect class="cls-6" x="1125.7" y="5.03" width="5.05" height="5.03"/><rect class="cls-6" x="1110.55" y="5.03" width="5.05" height="5.03"/><rect class="cls-7" x="1120.65" y="10.06" width="5.05" height="5.03"/><rect class="cls-7" x="1135.79" y="10.06" width="5.05" height="5.03"/><rect class="cls-5" x="1140.84" y="10.06" width="5.05" height="5.03"/><rect class="cls-6" x="1150.93" y="5.03" width="5.05" height="5.03"/><rect class="cls-6" x="1135.79" y="5.03" width="5.05" height="5.03"/><rect class="cls-7" x="1145.89" y="10.06" width="5.05" height="5.03"/><rect class="cls-7" x="1161.03" y="10.06" width="5.05" height="5.03"/><rect class="cls-5" x="1166.08" y="10.06" width="5.05" height="5.03"/><rect class="cls-6" x="1176.17" y="5.03" width="5.05" height="5.03"/><rect class="cls-6" x="1161.03" y="5.03" width="5.05" height="5.03"/><rect class="cls-7" x="1171.12" y="10.06" width="5.05" height="5.03"/><rect class="cls-7" x="1186.27" y="10.06" width="5.05" height="5.03"/><rect class="cls-5" x="1191.31" y="10.06" width="5.05" height="5.03"/><rect class="cls-6" x="1201.41" y="5.03" width="5.05" height="5.03"/><rect class="cls-6" x="1186.27" y="5.03" width="5.05" height="5.03"/><rect class="cls-7" x="1196.36" y="10.06" width="5.05" height="5.03"/><rect class="cls-7" x="1211.5" y="10.06" width="5.05" height="5.03"/><rect class="cls-5" x="1216.55" y="10.06" width="5.05" height="5.03"/><rect class="cls-6" x="1226.65" y="5.03" width="5.05" height="5.03"/><rect class="cls-6" x="1211.5" y="5.03" width="5.05" height="5.03"/><rect class="cls-7" x="1221.6" y="10.06" width="5.05" height="5.03"/><rect class="cls-7" x="1236.74" y="10.06" width="5.05" height="5.03"/><rect class="cls-5" x="1241.79" y="10.06" width="5.05" height="5.03"/><rect class="cls-6" x="1251.88" y="5.03" width="5.05" height="5.03"/><rect class="cls-6" x="1236.74" y="5.03" width="5.05" height="5.03"/><rect class="cls-7" x="1246.84" y="10.06" width="5.05" height="5.03"/><rect class="cls-7" x="1261.98" y="10.06" width="5.05" height="5.03"/><rect class="cls-5" x="1267.03" y="10.06" width="5.05" height="5.03"/><rect class="cls-6" x="1277.12" y="5.03" width="5.05" height="5.03"/><rect class="cls-6" x="1261.98" y="5.03" width="5.05" height="5.03"/><rect class="cls-7" x="1272.07" y="10.06" width="5.05" height="5.03"/><rect class="cls-7" x="1287.22" y="10.06" width="5.05" height="5.03"/><rect class="cls-5" x="1292.26" y="10.06" width="5.05" height="5.03"/><rect class="cls-6" x="1302.36" y="5.03" width="5.05" height="5.03"/><rect class="cls-6" x="1287.22" y="5.03" width="5.05" height="5.03"/><rect class="cls-7" x="1297.31" y="10.06" width="5.05" height="5.03"/><rect class="cls-7" x="1312.45" y="10.06" width="5.05" height="5.03"/><rect class="cls-5" x="1317.5" y="10.06" width="5.05" height="5.03"/><rect class="cls-6" x="1327.6" y="5.03" width="5.05" height="5.03"/><rect class="cls-6" x="1312.45" y="5.03" width="5.05" height="5.03"/><rect class="cls-7" x="1322.55" y="10.06" width="5.05" height="5.03"/><rect class="cls-7" x="1337.69" y="10.06" width="5.05" height="5.03"/><rect class="cls-5" x="1342.74" y="10.06" width="5.05" height="5.03"/><rect class="cls-6" x="1352.83" y="5.03" width="5.05" height="5.03"/><rect class="cls-6" x="1337.69" y="5.03" width="5.05" height="5.03"/><rect class="cls-7" x="1347.79" y="10.06" width="5.05" height="5.03"/><rect class="cls-7" x="1362.93" y="10.06" width="5.05" height="5.03"/><rect class="cls-5" x="1367.98" y="10.06" width="5.05" height="5.03"/><rect class="cls-6" x="1378.07" y="5.03" width="5.05" height="5.03"/><rect class="cls-6" x="1362.93" y="5.03" width="5.05" height="5.03"/><rect class="cls-7" x="1373.02" y="10.06" width="5.05" height="5.03"/><rect class="cls-7" x="1388.17" y="10.06" width="5.05" height="5.03"/><rect class="cls-5" x="1393.21" y="10.06" width="5.05" height="5.03"/><rect class="cls-6" x="1403.31" y="5.03" width="5.05" height="5.03"/><rect class="cls-6" x="1388.17" y="5.03" width="5.05" height="5.03"/><rect class="cls-7" x="1398.26" y="10.06" width="5.05" height="5.03"/><rect class="cls-7" x="1413.4" y="10.06" width="5.05" height="5.03"/><rect class="cls-5" x="1418.45" y="10.06" width="5.05" height="5.03"/><rect class="cls-6" x="1428.55" y="5.03" width="5.05" height="5.03"/><rect class="cls-6" x="1413.4" y="5.03" width="5.05" height="5.03"/><rect class="cls-7" x="1423.5" y="10.06" width="5.05" height="5.03"/><rect class="cls-7" x="1438.64" y="10.06" width="5.05" height="5.03"/><rect class="cls-5" x="1443.69" y="10.06" width="5.05" height="5.03"/><rect class="cls-6" x="1453.78" y="5.03" width="5.05" height="5.03"/><rect class="cls-6" x="1438.64" y="5.03" width="5.05" height="5.03"/><rect class="cls-7" x="1448.74" y="10.06" width="5.05" height="5.03"/><rect class="cls-7" x="1463.88" y="10.06" width="5.05" height="5.03"/><rect class="cls-5" x="1468.93" y="10.06" width="5.05" height="5.03"/><rect class="cls-6" x="1463.88" y="5.03" width="5.05" height="5.03"/><rect class="cls-7" x="1473.97" y="10.06" width="5.05" height="5.03"/><rect class="cls-7" x="1024.75" y="20.12" width="5.05" height="5.03"/><rect class="cls-5" x="1029.79" y="25.14" width="5.05" height="5.03"/><rect class="cls-6" x="1039.89" y="20.12" width="5.05" height="5.03"/><rect class="cls-7" x="1034.84" y="25.14" width="5.05" height="5.03"/><rect class="cls-7" x="1009.6" y="35.2" width="5.05" height="5.03"/><rect class="cls-5" x="1024.75" y="40.23" width="5.05" height="5.03"/><rect class="cls-5" x="1009.6" y="55.32" width="5.05" height="5.03"/><rect class="cls-7" x="1019.7" y="40.23" width="5.05" height="5.03"/><rect class="cls-7" x="1034.84" y="35.2" width="5.05" height="5.03"/><rect class="cls-5" x="1049.98" y="40.23" width="5.05" height="5.03"/><rect class="cls-7" x="1044.94" y="40.23" width="5.05" height="5.03"/><rect class="cls-5" x="1034.84" y="55.32" width="5.05" height="5.03"/><rect class="cls-7" x="1029.79" y="55.32" width="5.05" height="5.03"/><rect class="cls-7" x="1014.65" y="70.41" width="5.05" height="5.03"/><rect class="cls-7" x="1039.89" y="70.41" width="5.05" height="5.03"/><rect class="cls-7" x="1065.13" y="70.41" width="5.05" height="5.03"/><rect class="cls-7" x="1090.36" y="70.41" width="5.05" height="5.03"/><rect class="cls-7" x="1115.6" y="70.41" width="5.05" height="5.03"/><rect class="cls-7" x="1140.84" y="70.41" width="5.05" height="5.03"/><rect class="cls-7" x="1166.08" y="70.41" width="5.05" height="5.03"/><rect class="cls-7" x="1191.31" y="70.41" width="5.05" height="5.03"/><rect class="cls-7" x="1216.55" y="70.41" width="5.05" height="5.03"/><rect class="cls-7" x="1241.79" y="70.41" width="5.05" height="5.03"/><rect class="cls-7" x="1267.03" y="70.41" width="5.05" height="5.03"/><rect class="cls-7" x="1292.26" y="70.41" width="5.05" height="5.03"/><rect class="cls-7" x="1317.5" y="70.41" width="5.05" height="5.03"/><rect class="cls-7" x="1342.74" y="70.41" width="5.05" height="5.03"/><rect class="cls-7" x="1367.98" y="70.41" width="5.05" height="5.03"/><rect class="cls-7" x="1393.21" y="70.41" width="5.05" height="5.03"/><rect class="cls-7" x="1418.45" y="70.41" width="5.05" height="5.03"/><rect class="cls-7" x="1443.69" y="70.41" width="5.05" height="5.03"/><rect class="cls-7" x="1468.93" y="70.41" width="5.05" height="5.03"/><rect class="cls-5" x="1060.08" y="55.32" width="5.05" height="5.03"/><rect class="cls-7" x="1055.03" y="55.32" width="5.05" height="5.03"/><rect class="cls-5" x="1085.32" y="55.32" width="5.05" height="5.03"/><rect class="cls-7" x="1080.27" y="55.32" width="5.05" height="5.03"/><rect class="cls-5" x="1110.55" y="55.32" width="5.05" height="5.03"/><rect class="cls-7" x="1105.51" y="55.32" width="5.05" height="5.03"/><rect class="cls-5" x="1135.79" y="55.32" width="5.05" height="5.03"/><rect class="cls-7" x="1130.74" y="55.32" width="5.05" height="5.03"/><rect class="cls-5" x="1161.03" y="55.32" width="5.05" height="5.03"/><rect class="cls-7" x="1155.98" y="55.32" width="5.05" height="5.03"/><rect class="cls-5" x="1186.27" y="55.32" width="5.05" height="5.03"/><rect class="cls-7" x="1181.22" y="55.32" width="5.05" height="5.03"/><rect class="cls-5" x="1211.5" y="55.32" width="5.05" height="5.03"/><rect class="cls-7" x="1206.46" y="55.32" width="5.05" height="5.03"/><rect class="cls-5" x="1236.74" y="55.32" width="5.05" height="5.03"/><rect class="cls-7" x="1231.69" y="55.32" width="5.05" height="5.03"/><rect class="cls-5" x="1261.98" y="55.32" width="5.05" height="5.03"/><rect class="cls-7" x="1256.93" y="55.32" width="5.05" height="5.03"/><rect class="cls-5" x="1287.22" y="55.32" width="5.05" height="5.03"/><rect class="cls-7" x="1282.17" y="55.32" width="5.05" height="5.03"/><rect class="cls-5" x="1312.45" y="55.32" width="5.05" height="5.03"/><rect class="cls-7" x="1307.41" y="55.32" width="5.05" height="5.03"/><rect class="cls-5" x="1337.69" y="55.32" width="5.05" height="5.03"/><rect class="cls-7" x="1332.64" y="55.32" width="5.05" height="5.03"/><rect class="cls-5" x="1362.93" y="55.32" width="5.05" height="5.03"/><rect class="cls-7" x="1357.88" y="55.32" width="5.05" height="5.03"/><rect class="cls-5" x="1388.17" y="55.32" width="5.05" height="5.03"/><rect class="cls-7" x="1383.12" y="55.32" width="5.05" height="5.03"/><rect class="cls-5" x="1413.4" y="55.32" width="5.05" height="5.03"/><rect class="cls-7" x="1408.36" y="55.32" width="5.05" height="5.03"/><rect class="cls-5" x="1438.64" y="55.32" width="5.05" height="5.03"/><rect class="cls-7" x="1433.59" y="55.32" width="5.05" height="5.03"/><rect class="cls-5" x="1463.88" y="55.32" width="5.05" height="5.03"/><rect class="cls-7" x="1458.83" y="55.32" width="5.05" height="5.03"/><rect class="cls-7" x="1060.08" y="35.2" width="5.05" height="5.03"/><rect class="cls-5" x="1075.22" y="40.23" width="5.05" height="5.03"/><rect class="cls-7" x="1070.17" y="40.23" width="5.05" height="5.03"/><rect class="cls-7" x="1085.32" y="35.2" width="5.05" height="5.03"/><rect class="cls-5" x="1100.46" y="40.23" width="5.05" height="5.03"/><rect class="cls-7" x="1095.41" y="40.23" width="5.05" height="5.03"/><rect class="cls-7" x="1110.55" y="35.2" width="5.05" height="5.03"/><rect class="cls-5" x="1125.7" y="40.23" width="5.05" height="5.03"/><rect class="cls-7" x="1120.65" y="40.23" width="5.05" height="5.03"/><rect class="cls-7" x="1135.79" y="35.2" width="5.05" height="5.03"/><rect class="cls-5" x="1150.93" y="40.23" width="5.05" height="5.03"/><rect class="cls-7" x="1145.89" y="40.23" width="5.05" height="5.03"/><rect class="cls-7" x="1161.03" y="35.2" width="5.05" height="5.03"/><rect class="cls-5" x="1176.17" y="40.23" width="5.05" height="5.03"/><rect class="cls-7" x="1171.12" y="40.23" width="5.05" height="5.03"/><rect class="cls-7" x="1186.27" y="35.2" width="5.05" height="5.03"/><rect class="cls-5" x="1201.41" y="40.23" width="5.05" height="5.03"/><rect class="cls-7" x="1196.36" y="40.23" width="5.05" height="5.03"/><rect class="cls-7" x="1211.5" y="35.2" width="5.05" height="5.03"/><rect class="cls-5" x="1226.65" y="40.23" width="5.05" height="5.03"/><rect class="cls-7" x="1221.6" y="40.23" width="5.05" height="5.03"/><rect class="cls-7" x="1236.74" y="35.2" width="5.05" height="5.03"/><rect class="cls-5" x="1251.88" y="40.23" width="5.05" height="5.03"/><rect class="cls-7" x="1246.84" y="40.23" width="5.05" height="5.03"/><rect class="cls-7" x="1261.98" y="35.2" width="5.05" height="5.03"/><rect class="cls-5" x="1277.12" y="40.23" width="5.05" height="5.03"/><rect class="cls-7" x="1272.07" y="40.23" width="5.05" height="5.03"/><rect class="cls-7" x="1287.22" y="35.2" width="5.05" height="5.03"/><rect class="cls-5" x="1302.36" y="40.23" width="5.05" height="5.03"/><rect class="cls-7" x="1297.31" y="40.23" width="5.05" height="5.03"/><rect class="cls-7" x="1312.45" y="35.2" width="5.05" height="5.03"/><rect class="cls-5" x="1327.6" y="40.23" width="5.05" height="5.03"/><rect class="cls-7" x="1322.55" y="40.23" width="5.05" height="5.03"/><rect class="cls-7" x="1337.69" y="35.2" width="5.05" height="5.03"/><rect class="cls-5" x="1352.83" y="40.23" width="5.05" height="5.03"/><rect class="cls-7" x="1347.79" y="40.23" width="5.05" height="5.03"/><rect class="cls-7" x="1362.93" y="35.2" width="5.05" height="5.03"/><rect class="cls-5" x="1378.07" y="40.23" width="5.05" height="5.03"/><rect class="cls-7" x="1373.02" y="40.23" width="5.05" height="5.03"/><rect class="cls-7" x="1388.17" y="35.2" width="5.05" height="5.03"/><rect class="cls-5" x="1403.31" y="40.23" width="5.05" height="5.03"/><rect class="cls-7" x="1398.26" y="40.23" width="5.05" height="5.03"/><rect class="cls-7" x="1413.4" y="35.2" width="5.05" height="5.03"/><rect class="cls-5" x="1428.55" y="40.23" width="5.05" height="5.03"/><rect class="cls-7" x="1423.5" y="40.23" width="5.05" height="5.03"/><rect class="cls-7" x="1438.64" y="35.2" width="5.05" height="5.03"/><rect class="cls-5" x="1453.78" y="40.23" width="5.05" height="5.03"/><rect class="cls-7" x="1448.74" y="40.23" width="5.05" height="5.03"/><rect class="cls-7" x="1463.88" y="35.2" width="5.05" height="5.03"/><rect class="cls-7" x="1473.97" y="40.23" width="5.05" height="5.03"/><rect class="cls-7" x="1049.98" y="20.12" width="5.05" height="5.03"/><rect class="cls-5" x="1055.03" y="25.14" width="5.05" height="5.03"/><rect class="cls-6" x="1065.13" y="20.12" width="5.05" height="5.03"/><rect class="cls-7" x="1060.08" y="25.14" width="5.05" height="5.03"/><rect class="cls-7" x="1075.22" y="20.12" width="5.05" height="5.03"/><rect class="cls-5" x="1080.27" y="25.14" width="5.05" height="5.03"/><rect class="cls-6" x="1090.36" y="20.12" width="5.05" height="5.03"/><rect class="cls-7" x="1085.32" y="25.14" width="5.05" height="5.03"/><rect class="cls-7" x="1100.46" y="20.12" width="5.05" height="5.03"/><rect class="cls-5" x="1105.51" y="25.14" width="5.05" height="5.03"/><rect class="cls-6" x="1115.6" y="20.12" width="5.05" height="5.03"/><rect class="cls-7" x="1110.55" y="25.14" width="5.05" height="5.03"/><rect class="cls-7" x="1125.7" y="20.12" width="5.05" height="5.03"/><rect class="cls-5" x="1130.74" y="25.14" width="5.05" height="5.03"/><rect class="cls-6" x="1140.84" y="20.12" width="5.05" height="5.03"/><rect class="cls-7" x="1135.79" y="25.14" width="5.05" height="5.03"/><rect class="cls-7" x="1150.93" y="20.12" width="5.05" height="5.03"/><rect class="cls-5" x="1155.98" y="25.14" width="5.05" height="5.03"/><rect class="cls-6" x="1166.08" y="20.12" width="5.05" height="5.03"/><rect class="cls-7" x="1161.03" y="25.14" width="5.05" height="5.03"/><rect class="cls-7" x="1176.17" y="20.12" width="5.05" height="5.03"/><rect class="cls-5" x="1181.22" y="25.14" width="5.05" height="5.03"/><rect class="cls-6" x="1191.31" y="20.12" width="5.05" height="5.03"/><rect class="cls-7" x="1186.27" y="25.14" width="5.05" height="5.03"/><rect class="cls-7" x="1201.41" y="20.12" width="5.05" height="5.03"/><rect class="cls-5" x="1206.46" y="25.14" width="5.05" height="5.03"/><rect class="cls-6" x="1216.55" y="20.12" width="5.05" height="5.03"/><rect class="cls-7" x="1211.5" y="25.14" width="5.05" height="5.03"/><rect class="cls-7" x="1226.65" y="20.12" width="5.05" height="5.03"/><rect class="cls-5" x="1231.69" y="25.14" width="5.05" height="5.03"/><rect class="cls-6" x="1241.79" y="20.12" width="5.05" height="5.03"/><rect class="cls-7" x="1236.74" y="25.14" width="5.05" height="5.03"/><rect class="cls-7" x="1251.88" y="20.12" width="5.05" height="5.03"/><rect class="cls-5" x="1256.93" y="25.14" width="5.05" height="5.03"/><rect class="cls-6" x="1267.03" y="20.12" width="5.05" height="5.03"/><rect class="cls-7" x="1261.98" y="25.14" width="5.05" height="5.03"/><rect class="cls-7" x="1277.12" y="20.12" width="5.05" height="5.03"/><rect class="cls-5" x="1282.17" y="25.14" width="5.05" height="5.03"/><rect class="cls-6" x="1292.26" y="20.12" width="5.05" height="5.03"/><rect class="cls-7" x="1287.22" y="25.14" width="5.05" height="5.03"/><rect class="cls-7" x="1302.36" y="20.12" width="5.05" height="5.03"/><rect class="cls-5" x="1307.41" y="25.14" width="5.05" height="5.03"/><rect class="cls-6" x="1317.5" y="20.12" width="5.05" height="5.03"/><rect class="cls-7" x="1312.45" y="25.14" width="5.05" height="5.03"/><rect class="cls-7" x="1327.6" y="20.12" width="5.05" height="5.03"/><rect class="cls-5" x="1332.64" y="25.14" width="5.05" height="5.03"/><rect class="cls-6" x="1342.74" y="20.12" width="5.05" height="5.03"/><rect class="cls-7" x="1337.69" y="25.14" width="5.05" height="5.03"/><rect class="cls-7" x="1352.83" y="20.12" width="5.05" height="5.03"/><rect class="cls-5" x="1357.88" y="25.14" width="5.05" height="5.03"/><rect class="cls-6" x="1367.98" y="20.12" width="5.05" height="5.03"/><rect class="cls-7" x="1362.93" y="25.14" width="5.05" height="5.03"/><rect class="cls-7" x="1378.07" y="20.12" width="5.05" height="5.03"/><rect class="cls-5" x="1383.12" y="25.14" width="5.05" height="5.03"/><rect class="cls-6" x="1393.21" y="20.12" width="5.05" height="5.03"/><rect class="cls-7" x="1388.17" y="25.14" width="5.05" height="5.03"/><rect class="cls-7" x="1403.31" y="20.12" width="5.05" height="5.03"/><rect class="cls-5" x="1408.36" y="25.14" width="5.05" height="5.03"/><rect class="cls-6" x="1418.45" y="20.12" width="5.05" height="5.03"/><rect class="cls-7" x="1413.4" y="25.14" width="5.05" height="5.03"/><rect class="cls-7" x="1428.55" y="20.12" width="5.05" height="5.03"/><rect class="cls-5" x="1433.59" y="25.14" width="5.05" height="5.03"/><rect class="cls-6" x="1443.69" y="20.12" width="5.05" height="5.03"/><rect class="cls-7" x="1438.64" y="25.14" width="5.05" height="5.03"/><rect class="cls-7" x="1453.78" y="20.12" width="5.05" height="5.03"/><rect class="cls-5" x="1458.83" y="25.14" width="5.05" height="5.03"/><rect class="cls-6" x="1468.93" y="20.12" width="5.05" height="5.03"/><rect class="cls-7" x="1463.88" y="25.14" width="5.05" height="5.03"/><rect class="cls-6" x="1014.65" y="20.12" width="5.05" height="5.03"/><rect class="cls-7" x="1009.6" y="25.14" width="5.05" height="5.03"/><rect class="cls-8" x="1009.6" y="20.12" width="10.09" height="10.06"/><rect class="cls-8" x="1024.75" y="20.12" width="20.19" height="10.06"/><rect class="cls-8" x="1049.98" y="20.12" width="20.19" height="10.06"/><rect class="cls-8" x="1075.22" y="20.12" width="20.19" height="10.06"/><rect class="cls-8" x="1100.46" y="20.12" width="20.19" height="10.06"/><rect class="cls-8" x="1125.7" y="20.12" width="20.19" height="10.06"/><rect class="cls-8" x="1150.93" y="20.12" width="20.19" height="10.06"/><rect class="cls-8" x="1176.17" y="20.12" width="20.19" height="10.06"/><rect class="cls-8" x="1201.41" y="20.12" width="20.19" height="10.06"/><rect class="cls-8" x="1226.65" y="20.12" width="20.19" height="10.06"/><rect class="cls-8" x="1251.88" y="20.12" width="20.19" height="10.06"/><rect class="cls-8" x="1277.12" y="20.12" width="20.19" height="10.06"/><rect class="cls-8" x="1302.36" y="20.12" width="20.19" height="10.06"/><rect class="cls-8" x="1327.6" y="20.12" width="20.19" height="10.06"/><rect class="cls-8" x="1352.83" y="20.12" width="20.19" height="10.06"/><rect class="cls-8" x="1378.07" y="20.12" width="20.19" height="10.06"/><rect class="cls-8" x="1403.31" y="20.12" width="20.19" height="10.06"/><rect class="cls-8" x="1428.55" y="20.12" width="20.19" height="10.06"/><rect class="cls-8" x="1453.78" y="20.12" width="20.19" height="10.06"/><g class="cls-9"><g class="cls-14"><rect class="cls-6" x="1009.6" y="5.03" width="20.19" height="10.06"/><rect class="cls-6" x="1034.84" y="5.03" width="20.19" height="10.06"/><rect class="cls-6" x="1060.08" y="5.03" width="20.19" height="10.06"/><rect class="cls-6" x="1085.32" y="5.03" width="20.19" height="10.06"/><rect class="cls-6" x="1110.55" y="5.03" width="20.19" height="10.06"/><rect class="cls-6" x="1135.79" y="5.03" width="20.19" height="10.06"/><rect class="cls-6" x="1161.03" y="5.03" width="20.19" height="10.06"/><rect class="cls-6" x="1186.27" y="5.03" width="20.19" height="10.06"/><rect class="cls-6" x="1211.5" y="5.03" width="20.19" height="10.06"/><rect class="cls-6" x="1236.74" y="5.03" width="20.19" height="10.06"/><rect class="cls-6" x="1261.98" y="5.03" width="20.19" height="10.06"/><rect class="cls-6" x="1287.22" y="5.03" width="20.19" height="10.06"/><rect class="cls-6" x="1312.45" y="5.03" width="20.19" height="10.06"/><rect class="cls-6" x="1337.69" y="5.03" width="20.19" height="10.06"/><rect class="cls-6" x="1362.93" y="5.03" width="20.19" height="10.06"/><rect class="cls-6" x="1388.17" y="5.03" width="20.19" height="10.06"/><rect class="cls-6" x="1413.4" y="5.03" width="20.19" height="10.06"/><rect class="cls-6" x="1438.64" y="5.03" width="20.19" height="10.06"/><rect class="cls-6" x="1463.88" y="5.03" width="20.19" height="10.06"/></g></g></g></g></g></svg>