<svg xmlns="http://www.w3.org/2000/svg" viewBox="0 0 448.37 176.31"><defs><style>.cls-1{fill:#fefefe;}.cls-2{fill:#cbcbcb;}</style></defs><title>Asset 8</title><g id="Layer_2" data-name="Layer 2"><g id="Layer_1-2" data-name="Layer 1"><path d="M431.59,143.83c5.26.15,12.08-2.24,15.29.93,2.52,2.5.83,9.43.72,14.38-.13,5.42,2.34,12.66-1,15.72-2.9,2.68-10.09.81-15.38.81q-212.61,0-425.23.12c-4.56,0-6.12-.68-6-5.73.38-17.94.23-35.89.08-53.84,0-3.25.41-4.68,4.17-4.52s9.12,1.93,11.35-.83c1.89-2.31.76-7.33.45-11.11-.29-3.47,1.11-4,4.18-4,3.9,0,9.12,1.9,11.36-.85,1.88-2.33.76-7.34.44-11.12-.29-3.48,1.13-4,4.19-4q35.93.17,71.87,0c3.37,0,4.21,1,4,4.14-.28,4-.11,8-.13,12l.12-.12L80,96c-9.65-.06-19.31,0-28.95-.22-2.46,0-3.1.74-3,3.09.12,4.13,1.48,9.67-.61,12-2.45,2.76-8.11.79-12.37.82-2.48,0-3.06.82-3,3.14.1,4.12,1.47,9.67-.63,12-2.45,2.75-8.12.8-12.38.82-2.51,0-3,.88-3,3.16.12,7.81.38,15.65-.08,23.44-.28,4.75,1.39,5.5,5.71,5.5q197.51-.17,395-.1c4.8,0,11.08,1.63,14-.76s.61-9,.94-13.77c0-.5,0-1,.07-1.5Z"/><path d="M112,95.91l1,0c4.92-.34,11.69,2.15,14.27-1s.74-9.5.76-14.46c0-9.64.11-19.29,0-28.93,0-2.75.62-3.66,3.52-3.64,4.08,0,9.53,1.91,11.89-.8,2-2.3.75-7.59.57-11.55-.13-2.79.69-3.63,3.54-3.62,4.09,0,9.53,1.93,11.88-.81,2-2.32.75-7.6.56-11.56-.13-2.82.75-3.59,3.57-3.59,4.08,0,9.52,1.93,11.87-.82,2-2.34.74-7.62.54-11.57-.14-2.87.8-3.56,3.59-3.55q44.44.15,88.89,0c2.86,0,3.56.81,3.57,3.59,0,4.07-1.94,9.51.84,11.85,2.36,2,7.63.73,11.59.52,2.91-.16,3.53.87,3.55,3.61,0,4.08-2,9.52.86,11.85,2.38,2,7.64.73,11.6.51,2.94-.17,3.52.92,3.49,3.63-.15,14.8-.11,29.6-.13,44.4l.14-.14H288c0-9.45-.2-18.91-.06-28.36,0-2.83-.8-3.68-3.6-3.56-4,.16-9.22,1.39-11.54-.6-2.74-2.36-.83-7.78-.82-11.85,0-2.9-.93-3.62-3.67-3.52-3.94.15-9.23,1.37-11.52-.63-2.69-2.37-.73-7.78-.81-11.86-.05-2.39-.36-3.54-3.2-3.48-9.62.23-19.25.18-28.88.23-9.14-.05-18.3.1-27.43-.26-3.78-.15-4.9.89-4.57,4.61s1.32,8.46-.51,10.58c-2.17,2.53-7.18,1-10.9.76s-4.9.91-4.57,4.63,1.32,8.46-.51,10.58c-2.17,2.52-7.19,1-10.9.76s-4.9.91-4.58,4.63,1.33,8.45-.51,10.58c-2.17,2.52-7.18,1-10.9.75s-4.62.94-4.58,4.63c.21,18.44,0,36.89.17,55.34,0,3.22-.77,4.19-4.06,4.09-8.31-.25-16.63-.17-25,0-2.36,0-3.17-.59-3.08-3,.15-4.31,0-8.63-.11-13l.22-16.07Z"/><path d="M303.73,80c.5,0,1-.06,1.49-.06,4.64-.06,10.48,1.57,13.58-.64s.81-8.32.91-12.72c.05-2.35,1-2.65,3-2.65q45.1.07,90.23,0c2.13,0,2.94.52,2.82,2.76-.18,3.48.07,7-.08,10.46-.1,2.12.48,3,2.74,2.84,3.15-.19,6.33.15,9.47-.11,3-.24,3.92.55,3.89,3.74-.19,20.09-.13,40.17-.15,60.26l.14-.15c-4.29,0-8.58-.11-12.85.13-2.66.15-3.29-.77-3.26-3.31.09-9.54-.05-19.09-.1-28.64.05-4.31,0-8.63.2-12.94.11-2.35-.58-3.2-3-3.12-4.13.13-9.65,1.47-12-.61-2.79-2.43-.85-8.09-.88-12.33,0-2.47-.84-3-3.16-3-9.64.16-19.28.15-28.92.2-9.32,0-18.64,0-27.95-.24-3.33-.1-4.24.9-4.05,4.11.24,3.78,1.37,8.86-.55,11.07-2.27,2.61-7.5.89-11.4.76-3.37-.12-4.09,1-4.06,4.16.05,3.9,1.92,9.26-.81,11.33-2.56,1.94-7.67.34-11.63.64-2.95.22-3.55-.91-3.5-3.63.18-9.47.11-19,.13-28.43Z"/><path class="cls-1" d="M415.52,111.86c.05,9.55.19,19.1.1,28.64,0,2.54.6,3.46,3.26,3.31,4.27-.24,8.56-.11,12.85-.13,0,.5,0,1-.07,1.5-.33,4.75,2.1,11.27-.94,13.77s-9.18.75-14,.76q-197.51,0-395,.1c-4.32,0-6-.75-5.71-5.5.46-7.79.2-15.63.08-23.44,0-2.28.45-3.16,3-3.16,4.26,0,9.93,1.93,12.38-.82,2.1-2.34.73-7.89.63-12-.06-2.32.52-3.12,3-3.14,4.26,0,9.92,1.94,12.37-.82,2.09-2.36.73-7.9.61-12-.07-2.35.57-3.14,3-3.09C60.71,96,70.37,96,80,96c0,4,.19,8,0,11.91-.16,3.09,1,4,4,3.94,9.28-.13,18.56,0,27.83,0,.06,4.32.26,8.64.11,13-.09,2.44.72,3.07,3.08,3,8.32-.14,16.64-.22,25,0,3.29.1,4.09-.87,4.06-4.09-.15-18.45,0-36.9-.17-55.34,0-3.69.78-4.86,4.58-4.63s8.73,1.77,10.9-.75c1.84-2.13.83-7,.51-10.58s.78-4.86,4.58-4.63,8.73,1.76,10.9-.76c1.83-2.12.82-7,.51-10.58s.78-4.86,4.57-4.63,8.73,1.77,10.9-.76c1.83-2.12.82-7,.51-10.58s.79-4.76,4.57-4.61c9.13.36,18.29.21,27.43.26,0,1.16,0,2.32.05,3.48.09,3.8-1.2,8.64.67,11.13,2.24,3,7.41,1,11.29,1.11,2.93.06,4.3.8,4.06,3.95-.21,2.8.1,5.64-.08,8.44s1,3.67,3.76,3.74c3.91.09,8.92-1.85,11.45.9s.69,7.62.75,11.55c0,2.58.94,3.45,3.5,3.49,3.94.07,8.89-1.71,11.56.75s.81,7.54.9,11.45c.07,2.76.91,3.88,3.75,3.75,4.14-.19,8.29-.09,12.44-.11h15.92c0,9.48.05,19-.13,28.43-.05,2.72.55,3.85,3.5,3.63,4-.3,9.07,1.3,11.63-.64,2.73-2.07.86-7.43.81-11.33,0-3.16.69-4.28,4.06-4.16,3.9.13,9.13,1.85,11.4-.76,1.92-2.21.79-7.29.55-11.07-.19-3.21.72-4.21,4.05-4.11,9.31.29,18.63.19,27.95.24,0,3.82.19,7.65,0,11.46-.16,3.11.66,4.51,4.11,4.44,3.75-.08,8.53-1.73,11,.79s.86,7.29.78,11c-.07,3.46,1.36,4.15,4.45,4.1C397.22,111.73,406.37,111.85,415.52,111.86Z"/><path class="cls-2" d="M111.86,111.86c-9.27,0-18.55-.12-27.83,0-3,0-4.18-.85-4-3.94.2-4,0-7.94,0-11.91l32.06-.23Z"/><path class="cls-2" d="M288,79.82c-4.15,0-8.3-.08-12.44.11-2.84.13-3.68-1-3.75-3.75-.09-3.91,1.86-8.91-.9-11.45s-7.62-.68-11.56-.75c-2.56,0-3.46-.91-3.5-3.49-.06-3.93,1.71-8.87-.75-11.55s-7.54-.81-11.45-.9c-2.75-.07-3.93-.89-3.76-3.74s-.13-5.64.08-8.44c.24-3.15-1.13-3.89-4.06-3.95-3.88-.07-9.05,1.89-11.29-1.11-1.87-2.49-.58-7.33-.67-11.13,0-1.16,0-2.32-.05-3.48,9.63-.05,19.26,0,28.88-.23,2.84-.06,3.15,1.09,3.2,3.48.08,4.08-1.88,9.49.81,11.86,2.29,2,7.58.78,11.52.63,2.74-.1,3.69.62,3.67,3.52,0,4.07-1.92,9.49.82,11.85,2.32,2,7.59.76,11.54.6,2.8-.12,3.64.73,3.6,3.56C287.75,60.91,287.91,70.37,288,79.82Z"/><path class="cls-2" d="M415.52,111.86c-9.15,0-18.3-.13-27.45,0-3.09.05-4.52-.64-4.45-4.1.08-3.75,1.73-8.52-.78-11s-7.3-.87-11-.79c-3.45.07-4.27-1.33-4.11-4.44.2-3.81,0-7.64,0-11.46,9.64,0,19.28,0,28.92-.2,2.32,0,3.14.54,3.16,3,0,4.24-1.91,9.9.88,12.33,2.39,2.08,7.91.74,12,.61,2.45-.08,3.14.77,3,3.12C415.51,103.23,415.57,107.55,415.52,111.86Z"/></g></g></svg>