<svg xmlns="http://www.w3.org/2000/svg" viewBox="0 0 415.85 491.23"><defs><style>.cls-1{fill:#232237;}.cls-2{fill:#e5e5e5;}.cls-3{fill:#dc5c26;}.cls-4{fill:#f38f62;}.cls-5{fill:#fefefe;}.cls-6{fill:#e96923;}</style></defs><title>Asset 6</title><g id="Layer_2" data-name="Layer 2"><g id="Layer_1-2" data-name="Layer 1"><path class="cls-1" d="M247.84,0c4.29.09,8.57.36,12.84.19,3-.11,4.14.87,4,3.91-.15,3.94.07,7.89.14,11.84q0,15,0,30c-.08,5.92-.22,11.83-.23,17.75,0,12.82,0,12.82,13.15,12l24.44.35q.21,14.91.4,29.81a306.46,306.46,0,0,0,0,31.06,249.46,249.46,0,0,0,0,28.81l-.72,23.2c-11.39.09-22.77.14-34.15.3-2.23,0-3.47-.61-3.31-3q.09-53.42.15-106.83a5.33,5.33,0,0,0-.41-1.42.34.34,0,0,0-.11-.52c-.32-2.88-2.56-1.45-3.82-1.47-11.08-.13-22.17-.09-33.25-.1l-.39-36c.3-1.75-.86-1.82-2.09-1.82l-33.13.08c-1.22,0-2.4,0-2.15,1.77l-.45,36-37.87.09c.43-10,.39-20,0-30,.48-10,.36-20,0-30,.09-3.42.54-6.89.2-10.28-.43-4.33,1-6.12,5.38-5.44a15.18,15.18,0,0,0,3.4-.24c9.32.43,18.65.48,28,0,10,.39,20,.42,30,0Q232.87.71,247.84,0Z"/><path class="cls-2" d="M264.45,186.15c-.16,2.39,1.08,3,3.31,3,11.38-.16,22.76-.21,34.15-.3l-.09-.12c-.09.09-.26.23-.24.26a4.09,4.09,0,0,0,.4.53l.06,97.89-75.18.07q0-50.72-.08-101.42C239.34,185.75,251.89,185.57,264.45,186.15Z"/><path class="cls-3" d="M264.45,186.15c-12.56-.58-25.11-.4-37.67-.09l.12-.42q0-53.8,0-107.61l1.12-.32,18.67,0,1.37,0,14.59,0,1.56.31a5.33,5.33,0,0,1,.41,1.42Q264.54,132.74,264.45,186.15Z"/><path class="cls-4" d="M228,77.71l-1.12.32-38.12-.33c0-.62,0-1.24,0-1.86l.45-36,37.37,0,.39,36Z"/><path class="cls-4" d="M226.62,39.81l-37.37,0c-.25-1.76.93-1.77,2.15-1.77L224.53,38C225.76,38,226.92,38.06,226.62,39.81Z"/><path class="cls-4" d="M188.8,75.84c0,.62,0,1.24,0,1.86h0l-37.55-.06L151,75.81l0,.12Z"/><path class="cls-4" d="M228,77.71l-1-1.9c11.08,0,22.17,0,33.25.1,1.26,0,3.5-1.41,3.82,1.47l-1.45.21-14.59,0a.84.84,0,0,0-1.37,0Z"/><path class="cls-4" d="M262.63,77.59l1.45-.21a.34.34,0,0,1,.11.52Z"/><path class="cls-1" d="M8.05,453.42C.2,452.9.22,452.9.19,444.64c0-3.1-.12-6.2-.19-9.3v-30c.07-7.31.5-14.64.09-21.92-.27-4.89,1.23-6.7,6-5.84a6.73,6.73,0,0,0,2-.23l30,.09-.08-.08v76l.07-.07Z"/><path class="cls-1" d="M37.89,466.3q.09-6.51.19-13l-.07.07L75.12,453l.45.14L76,453q47.7.08,95.4.14c18.47,0,37-.14,55.43-.22,1.82.09,3.64.24,5.46.24,46.71,0,93.42-.13,140.13,0,4.64,0,5.38-1.45,5.35-5.6-.18-23.42-.07-46.84-.07-70.27l21,.06c4.45.07,8.89.3,13.33.16,2.77-.09,3.7.7,3.65,3.58-.13,8.07.08,16.13.15,24.2q0,15,0,30c-.08,4.95-.27,9.9-.18,14.84.05,2.38-.71,3.12-3.09,3.06-4.94-.1-9.9.1-14.85.17-2.81-.07-5.62-.2-8.43-.21-12.12,0-12.12,0-11.3,12.11-.07,6.9-.43,13.82-.11,20.71.19,4.23-1.24,5.55-5.25,5a25.39,25.39,0,0,0-4.91.2c-10-.44-20-.41-30,0h-30q-15-.58-30,0c-10-.47-20-.41-30,0-10-.47-20-.41-30,0-10-.38-20-.46-30,0-10-.44-20-.39-30,0q-15-.61-30,0c-10-.43-20-.39-30,0-10-.41-20-.46-30,0l-29.79-.3Z"/><path class="cls-1" d="M151,75.81c.08.61.15,1.23.23,1.84,0,12.11,0,24.22,0,36.33.05,11.93.2,23.86.31,35.79-.63,12-.47,24.06-.08,36.1-.09,1-.19,1.93-.28,2.89l-.17.13-1,.29-36,0q-.37-11.79-.74-23.57a272,272,0,0,0,0-29.81,247.77,247.77,0,0,0,0-30.1l.57-29.9,15.2-.14Z"/><path class="cls-3" d="M377.72,377.36c0,23.43-.11,46.85.07,70.27,0,4.15-.71,5.62-5.35,5.6-46.71-.17-93.42-.05-140.13,0-1.82,0-3.64-.15-5.46-.24q0-10.47,0-20.94.06-72,.11-144.07l-.12-.46,75.18-.07c.94,1.55.45,3.24.45,4.86,0,14.4.08,28.81,0,43.21,0,3,.6,4.52,4.07,4.45,11.26-.23,22.52-.17,33.78-.23l.23.11c-1.62,11.86-.36,23.77-.68,35.65-.06,2.1,1.65,2.19,3.18,2.18l34.75-.22Z"/><path class="cls-5" d="M114,189.21l36,0c.5.47.81.24,1-.29l.17-.13c1-.6.85-1.63.9-2.57,1.8-.14,3.61-.39,5.42-.4q34.71-.1,69.41-.15l-.12.42q0,50.72.08,101.42l.12.46H152.06l-38.24-.19c-.08-.82-.21-1.64-.21-2.47q0-46.09,0-92.18a34.79,34.79,0,0,1,.43-3.92Z"/><path class="cls-1" d="M340.31,339.7c-11.26.06-22.52,0-33.78.23-3.47.07-4.1-1.41-4.07-4.45.11-14.4.06-28.81,0-43.21,0-1.62.49-3.31-.45-4.86L302,189.52l1.31-.45,4.5-.36q15,.61,30,0c4.09,1.19,1.27,4.82,2.48,7q0,14.93,0,29.85t0,30.09v29.82q-.63,15,0,30.08A223.25,223.25,0,0,0,340.31,339.7Z"/><path class="cls-3" d="M303.29,189.07l-1.31.45a4.09,4.09,0,0,1-.4-.53s.15-.17.24-.26Z"/><path class="cls-6" d="M226.9,185.64q-34.71.06-69.41.15c-1.81,0-3.62.26-5.43.4l-.61-.32c-.39-12-.55-24.07.08-36.11,11.12,0,22.24-.07,33.36.05,2.93,0,4.11-.82,4.09-3.94-.16-22.72-.17-45.44-.22-68.16h0l38.12.33Z"/><path class="cls-4" d="M246.67,77.69a.84.84,0,0,1,1.37,0Z"/><path class="cls-4" d="M188.76,77.71c.05,22.72.06,45.44.22,68.16,0,3.12-1.16,4-4.09,3.94-11.12-.12-22.24-.05-33.36-.05-.11-11.92-.26-23.85-.31-35.78-.05-12.11,0-24.22,0-36.33Z"/><path class="cls-1" d="M38.09,377.46l-.29-2.07q0-14.94,0-29.9c.06-1.74.13-3.48.19-5.21l30-.64c2.58,1.15,5.46-.47,8,.84l-.08-.06c0,11.13-.11,22.25,0,33.38,0,2.6-.46,3.94-3.51,3.88-11.46-.22-22.92-.22-34.38-.3Z"/><path class="cls-4" d="M38,377.38c11.46.08,22.92.08,34.38.3,3,.06,3.52-1.28,3.51-3.88-.08-11.13,0-22.25,0-33.38,12.4-.72,24.8-.29,37.2-.23,0,1.17-.13,2.33-.08,3.49.8,17.08,1,34.16.86,51.25-.06,6.13-.34,6.4-6.56,6.41-8.82,0-17.64.2-26.44-.09-4.08-.14-5,1.32-5,5.15.19,15.28.08,30.57.08,45.86l-.88.76L38,453.34Z"/><path class="cls-6" d="M76,452.26c0-15.29.11-30.58-.08-45.86,0-3.83.91-5.29,5-5.15,8.8.29,17.62.1,26.44.09,6.22,0,6.5-.28,6.56-6.41.16-17.09-.06-34.17-.86-51.25,0-1.16,0-2.32.08-3.49,1.33-4.84,0-9.81.74-14.68,10.82,0,21.64-.16,32.45.07,3.8.08,4.77-1.18,4.75-4.85-.06-10.94-.74-21.91,1-32.8H227q-.06,72-.11,144.07,0,10.47,0,20.94c-18.48.08-37,.22-55.43.22q-47.7,0-95.4-.14A6.6,6.6,0,0,0,76,452.26Z"/><path class="cls-3" d="M76,452.26a6.6,6.6,0,0,1,0,.77l-.45.13-.45-.14Z"/><path class="cls-1" d="M377.79,377.42l-34.75.22c-1.53,0-3.24-.08-3.18-2.18.32-11.88-.94-23.79.68-35.65l.31-.13-.12-.31,1,.28a234,234,0,0,0,25.95,0,20.14,20.14,0,0,0,4.42.28c4.51-.68,6.42,1.13,5.91,5.61v29.88Z"/><path class="cls-2" d="M151.45,185.87l.61.32c0,.94.15,2-.89,2.57C151.26,187.8,151.36,186.83,151.45,185.87Z"/><path class="cls-2" d="M151,188.89c-.21.53-.52.76-1,.29Z"/><path class="cls-1" d="M98,188.69l16.05.48a34.79,34.79,0,0,0-.43,3.92q0,46.1,0,92.18c0,.83.13,1.65.21,2.47a352.49,352.49,0,0,0,.05,37.77c-.75,4.87.59,9.84-.74,14.68-12.4-.06-24.8-.49-37.2.23l.08.06q-.18-12.51-.37-25l-.06-29.85c.36-10,.44-20,0-30.07.42-9.95.39-19.9,0-29.85.5-10,.41-20,0-30.05.45-6.71.45-6.68,7.14-6.72C87.82,188.89,92.9,188.77,98,188.69Z"/><path class="cls-4" d="M113.87,325.51a352.49,352.49,0,0,1-.05-37.77l38.24.19c-1.73,10.89-1.05,21.86-1,32.8,0,3.67-.95,4.93-4.75,4.85C135.51,325.35,124.69,325.5,113.87,325.51Z"/><path class="cls-2" d="M340.73,339.37c.56-.73.84-.4,1,.28Z"/></g></g></svg>