<svg xmlns="http://www.w3.org/2000/svg" viewBox="0 0 375.47 601.48"><defs><style>.cls-1{fill:#010104;}.cls-2{fill:#101e3a;}.cls-3{fill:#c08c74;}.cls-4{fill:#b5b2d1;}.cls-5{fill:#263552;}.cls-6{fill:#729e97;}.cls-7{fill:#e29fcf;}.cls-8{fill:#fff;}.cls-9{fill:#a06d58;}</style></defs><title>Asset 2</title><g id="Layer_2" data-name="Layer 2"><g id="Layer_1-2" data-name="Layer 1"><path class="cls-1" d="M264.31,95c18.33-.08,36.65-.08,55-.11.17-13.69.33-27.38.38-41.07-5-3.71-9.84-7.6-14.67-11.54-15.3-12.48-35.4-17.91-53.91-23.64C241,15.55,231,11.5,220.5,10.1a93.75,93.75,0,0,0-22,0c-.23,2.87-1.94,4-5.17,4Q180.46,14,167.59,14c-6.83,3.47-14.1,5.55-22,4.32a49.67,49.67,0,0,1-17.08-6.26,9.51,9.51,0,0,1-6.72,6.42C109.17,22.2,96,21.2,83.26,24.05c-10.9,2.45-19,9.19-27,16.47q.06,24.07.13,48.17c0,2.12-.4,4.33.8,6.31,5,0,10.06.06,15.08-.08,3.27-.1,4.45,1.32,4.43,4.5,0,5.2.24,10.4.38,15.59,5.21,0,10.43-.11,15.64.09,3.38.12,4.93-.85,4.62-4.54s.16-7.57-.13-11.32,1.31-4.67,4.68-4.49c3.77.21,7.56-.14,11.32.09,3.4.22,4.6-1.2,4.18-4.4a5.57,5.57,0,0,1,0-1.08c.42-4.77-2.12-11,1.13-14s9.27-.81,14.08-.85c13.48-.11,27,0,40.45-.13,3.49,0,5.13.54,5.07,4.6-.07,5.11-2.39,11.71,1,15,3.14,3,9.61.92,14.59.81,3.68-.09,4.84,1.27,4.47,4.68a41.27,41.27,0,0,0,0,4.31c0,3.53-1.5,8.45.25,10.25,2.5,2.57,7.47.78,11.38,1a31,31,0,0,0,4.31-.06c3.33-.3,4.48,1.23,4.3,4.46-.2,3.58.18,7.21-.13,10.78-.36,4.2,1.53,5.28,5.33,5,3.58-.24,7.2.1,10.78-.08,2.93-.15,4.15.7,4.14,3.88q-.15,36.39,0,72.79c0,3.08-1,4.13-4,4-4.13-.19-8.28.13-12.4-.11-3.18-.19-4,1-3.82,4,.25,4.3.16,8.63,0,12.94-.08,2.78,1.07,3.81,3.82,3.73,5.39-.16,10.79-.11,16.18-.14,5,0,10-.26,15,0,4.09.19,6-1.09,5.65-5.44-.27-3.38.12-6.8-.09-10.19-.23-3.8,1.47-4.85,5.08-5,4.9-.14,11.15,2.32,14.38-1.27s.7-9.61,1-14.56c.1-1.42,0-2.86,0-4.29l.06-40.25c0-11.67-.16-23.35,0-35,.07-4.48-1.67-6.33-6.05-5.89a8.59,8.59,0,0,1-2.15,0c-3.94-.64-9.49,2.16-11.54-1.63-2.36-4.4-.94-10.21-.57-15.37C259.39,94.26,262.32,95.05,264.31,95Z"/><path class="cls-1" d="M238.32,236.3c5,0,10-.26,15,0,4.09.19,6-1.09,5.65-5.44-.27-3.38.12-6.8-.09-10.19-.23-3.8,1.47-4.85,5.08-5,4.9-.14,11.15,2.32,14.38-1.27s.7-9.61,1-14.56c.1-1.42,0-2.86,0-4.29,5.37,0,10.75,0,16.12.07,2.28.05,3.73-.32,3.73-3.13q0-16.92.26-33.85c0-2.52-.78-3.47-3.39-3.39-5.55.17-11.1,0-16.66,0,0-11.67-.16-23.35,0-35,.07-4.48-1.67-6.33-6.05-5.89a8.59,8.59,0,0,1-2.15,0c-3.94-.64-9.49,2.16-11.54-1.63-2.36-4.4-.94-10.21-.57-15.37.23-3.14,3.16-2.35,5.15-2.36,18.33-.08,36.65-.08,55-.11,0,18.14.2,36.28,0,54.42-.06,4.79,1.51,6.42,6.19,6.09s9.7-.11,14.55-.13l-.1-.11,0,60.8.13-.13-16.58-.06c-2.12,0-4.15.31-4,3,.22,5.78.61,11.56.93,17.34l-1.05,1.13c-12.21-2.28-24.52-.6-36.77-.89-2.13-.05-3.19,1.56-3.15,3.59.09,5.49-1,11.07,1.11,16.43l-1.41,1.41c-6.63-2.1-13.46-1.06-20.21-1.23l-20-.09C237.83,249.82,238.88,243,238.32,236.3Z"/><path class="cls-1" d="M339.76,458.39c0,5.21-.19,10.43.16,15.62.26,3.91-.77,5.15-4.93,5.09-17.06-.26-34.13,0-51.18-.2-3.87,0-4.75,1.12-4.66,4.81.26,10.59.21,21.19,0,31.78-.05,3,.71,4.15,3.79,4,4.3-.2,8.62,0,12.92-.1,2.55-.09,3.53.88,3.53,3.42q-.07,37.19,0,74.35c0,2.2-.76,3.33-3.14,3.24-6.27-.26-12.56.48-18.81-.5,2.95-6.41,1.88-13.17,1.66-19.85q0-20.25.07-40.51c.11-5,.08-10,.36-15.06.21-3.66-1.06-5.17-4.89-5.05-5.18.15-10.38-.21-15.58-.36l.08-60.51,20.17,0,60.59,0Z"/><path class="cls-1" d="M238.33,600.06c-5.19.11-10.39,0-15.57.39-3.76.25-4.4-1.43-4.37-4.75.14-17-.06-34.09.17-51.13.05-4-.83-5.3-5-5.14-4.92.2-11.53,2.3-14.36-1-2.44-2.81-.81-9.23-.82-14.05,0-13.63-.17-27.27.08-40.9.08-3.88-1.17-4.82-4.8-4.6-5.18.31-10.4.11-15.6.12L178,479q.06-10.05.11-20.08l6.45-.1a2.28,2.28,0,0,0,3.13,0h7.65l1,0,2,.29-.1,4.79c-.22.72-.45,1.44-.67,2.16a36.37,36.37,0,0,0,.05,8.47c.39,3.63,1.92,5,5.73,4.77,4.94-.32,9.92,0,14.89.08l.42,40.33c0,5.33,0,10.65-.12,16-.07,2.94,1.21,4.16,4.14,4.06,5.14-.18,10.28-.2,15.42-.29.17,1.94.47,3.89.49,5.83.08,11.63.1,23.26.14,34.89Q238.52,590.09,238.33,600.06Z"/><path class="cls-1" d="M339.84,67.18a191.59,191.59,0,0,1-20.18-13.32c-.05,13.69-.21,27.38-.38,41.07,0,18.14.2,36.28,0,54.42-.06,4.79,1.51,6.42,6.19,6.09s9.7-.11,14.55-.13c-.06-9.52-.15-19-.15-28.56Q339.83,97,339.84,67.18Z"/><path class="cls-1" d="M57.16,95c-1.2-2-.8-4.19-.8-6.31q-.09-24.09-.13-48.17Q54.63,42,53,43.46C47.45,48.58,42,54,36.52,59.31q.06,48,.06,95.92l.15.16c5,0,10-.26,15,.05,4.39.26,5.48-1.62,5.44-5.68C57.06,131.5,57.15,113.25,57.16,95Z"/><path class="cls-1" d="M97.25,275.18c0-5-.27-10-.08-15,.11-2.83-.74-3.66-3.57-3.62-10.74.16-21.49-.1-32.22.15-3.79.09-4.94-1.07-4.86-4.8.11-5.09,2.3-11.93-.89-14.8-2.8-2.53-9.54-1-14.5-.71-3.89.23-4.86-1.14-4.65-4.81.29-5.17.05-10.37,0-15.57l.21-.23c5.21,0,10.42.14,15.62,0,3.41-.1,5,1.1,4.81,4.66-.17,3.4.16,6.84-.08,10.23-.28,4.09,1.08,5.83,5.46,5.71q13.73-.39,27.47,0c4.34.13,5.9-2,6-5.69.16-4.85,0-9.7,0-14.54,2.36,4.87.88,10,.93,15.05,0,3.82.74,5.27,5,5.15,10.57-.3,21.15,0,31.73,0,1.91,0,4.19-.53,4,2.69-.38,5.86.77,11.79-.68,17.61-5-.09-10-.05-15.06-.31-3.58-.19-4.75,1.34-4.62,4.75.2,5,.1,10.05.12,15.07l-19.35.08Z"/><path class="cls-1" d="M178.07,479c0,38.56-.14,77.12.09,115.68,0,5-1.45,6.16-6,5.74-4.8-.45-9.65-.33-14.48-.46q-.12-9.84-.23-19.67l.09-41.05.3-55.88v-1.27c0-1,.09-2,.14-2.95l20-.22Z"/><path class="cls-1" d="M96.94,580.14c.06-19,.08-38,.22-57,0-2.69-.58-3.89-3.56-3.7-4.11.25-8.25-.13-12.37.09-3.44.19-4.58-.9-4.52-4.52.19-12,0-24,0-36h0L97,479c0,11.67.35,23.35,0,35-.12,4.66,1.4,5.81,5.76,5.54,4.81-.3,9.66.14,14.5.26l.33,19.43q0,20.58.07,41.14Z"/><path class="cls-1" d="M339.77,377.65c5.56,0,11.13.2,16.69.07,2.76-.07,3.74.77,3.73,3.65q-.13,36.88,0,73.77c0,2.39-.48,3.65-3.23,3.54-5.72-.22-11.46-.2-17.19-.29l.15.17q0-40.53,0-81.05Z"/><path class="cls-1" d="M18.82,377.76l15.91.11,1.6.76c.06,2,.17,3.93.17,5.89q.09,37,.14,74l.2-.19c-5.73.09-11.46,0-17.18.33-3,.15-3.51-1.07-3.5-3.71.12-25.09.13-50.19.16-75.28,1-.3,1.85-.69,2.1-1.81l.36-.14Z"/><path class="cls-1" d="M258.89,256.63c6.75.17,13.58-.87,20.21,1.23,0,5.19.22,10.39.09,15.58-.07,2.62.83,3.42,3.4,3.31,4.3-.19,8.61.12,12.9-.11,3.16-.16,4.06,1.14,3.95,4.08-.17,4.29.1,8.61-.1,12.9-.12,2.6.76,3.42,3.32,3.31,4.48-.18,9,.06,13.44-.1,2.52-.09,3.47.7,3.43,3.32-.18,12.54-.2,25.08-.28,37.62l.16-.16c-5.77.05-11.58-.78-17.3.44-1.68.36-1.88-1-2.69-1.67.08-11.46-.06-22.93.35-34.38.17-4.64-1.41-5.85-5.73-5.42-3.73.37-7.53-.05-11.28.12-2.55.12-3.46-.71-3.36-3.32.18-4.65-.07-9.32.1-14,.08-2.4-.79-3.07-3.07-3-4.12.15-8.26-.18-12.36.12-3.81.29-5.47-.6-5.12-4.88C259.36,266.68,259,261.64,258.89,256.63Z"/><path class="cls-2" d="M76.6,580.14l27.64.25,53.13-.06q.15,9.84.31,19.67c-27,.63-54,.55-81,0q0-10,0-19.92Z"/><path class="cls-1" d="M36.51,216c-5.55,0-11.1-.17-16.65,0-2.69.07-3.73-.6-3.71-3.54q.18-26.85,0-53.71c0-3.08,1.26-3.45,3.81-3.4,5.54.1,11.09,0,16.64-.09l.15.16v60.37Z"/><path class="cls-1" d="M339.93,216l0-60.8c5.55.06,11.11.25,16.67.1,2.83-.07,3.65.84,3.63,3.66q-.18,26.64,0,53.28c0,3.35-1.38,3.8-4.15,3.73C350.69,215.84,345.31,216,339.93,216Z"/><path class="cls-2" d="M238.33,600.06q.18-10,.37-19.95l40.41-.06c.22,6.68,1.29,13.44-1.66,19.85C264.41,600.79,251.37,600.44,238.33,600.06Z"/><path class="cls-1" d="M319.25,337.77l19.54,0c.31.69.61,1.39.92,2.08l.06,37.84.13-.14c-5,.07-10-.07-15,.29-4.07.29-5.55-.79-5.43-5.23.31-11.65,0-23.31,0-35Z"/><path class="cls-1" d="M280.51,256.45c-2.09-5.36-1-10.94-1.11-16.43,0-2,1-3.64,3.15-3.59,12.25.29,24.56-1.39,36.77.89.05,5.19,0,10.39.19,15.58.1,2.65-.55,3.79-3.53,3.74C304.16,256.44,292.33,256.49,280.51,256.45Z"/><path class="cls-1" d="M76.66,479c-12,0-24-.08-35.94.1-3.18.05-4.47-.64-4.23-4.1.37-5.51.26-11.06.35-16.59l-.2.19,2.3.29a167.92,167.92,0,0,0,33.25,0l4.36-.08L76.67,479Z"/><path class="cls-1" d="M64.76,297H75.68a1.21,1.21,0,0,0,.79.67q.09,19.79.19,39.57l-19.51.38h0c.09-8,.33-16,.24-24-.06-6.36-1.05-12.95,7-15.63C64.55,297.87,64.62,297.33,64.76,297Z"/><path class="cls-1" d="M39.87,337.67h8.77c.58,2.47,1.8,3.31,4.2,1.89a42.18,42.18,0,0,1,4.26-2h0c-1,1.66-.5,3.48-.51,5.23,0,10.37,0,20.74-.09,31.11,0,1.64.57,3.9-2.35,3.74-5.84-.32-11.73.93-17.51-.71,1-1.55,1.36-3.11.06-4.68,0-.78,0-1.56,0-2.34a2.83,2.83,0,0,0,1.93-2.91V350.37a2.84,2.84,0,0,0-1.93-2.91l0-5.53C39,341.37,39.44,339.54,39.87,337.67Z"/><path class="cls-1" d="M97,580.11q0,10,0,19.92a96.19,96.19,0,0,1-16.8.09l-3-.41c-1-5.46-.15-11-.46-16.45-.17-2.93,1.52-3,3.68-3C86,580.25,91.48,580.16,97,580.11Z"/><path class="cls-1" d="M320.37,236.19c-.32-5.78-.71-11.56-.93-17.34-.11-2.73,1.92-3,4-3l16.58.06c-.07,5.37-.41,10.74-.13,16.09.19,3.66-1.14,4.56-4.53,4.38C330.4,236.07,325.38,236.22,320.37,236.19Z"/><path class="cls-1" d="M82.83,276.94h2.71a13.62,13.62,0,0,0,8.07,0l3.57-.78-.13,0q0,10.22-.08,20.43l-19.36-.09a.72.72,0,0,0-.6-.71L77,279.45Z"/><path class="cls-2" d="M36.71,347.46a2.84,2.84,0,0,1,1.93,2.91v16.68A2.83,2.83,0,0,1,36.71,370,187.67,187.67,0,0,1,36.71,347.46Z"/><path class="cls-2" d="M39.87,337.67c-.43,1.87-.91,3.7-3.13,4.26C36.35,339.45,35.31,336.5,39.87,337.67Z"/><path class="cls-2" d="M82.83,276.94,77,279.45C76.82,273.73,80.75,277.48,82.83,276.94Z"/><path class="cls-2" d="M93.61,276.91a13.62,13.62,0,0,1-8.07,0A17.47,17.47,0,0,1,93.61,276.91Z"/><path class="cls-2" d="M36.75,372.3c1.3,1.57,1,3.13-.06,4.68l-.36,1.65-1.6-.76C38,377,35.55,374,36.75,372.3Z"/><path class="cls-2" d="M77.25,599.71l3,.41C78.88,602.49,78,601.37,77.25,599.71Z"/><path class="cls-2" d="M18.42,377.9c-.25,1.12-1.14,1.51-2.1,1.81C16,377.89,16.82,377.46,18.42,377.9Z"/><path class="cls-2" d="M77,295.73a.72.72,0,0,1,.6.71l-1.14,1.22a1.21,1.21,0,0,1-.79-.67Z"/><path class="cls-2" d="M339.71,339.81c-.31-.69-.61-1.39-.92-2.08C340.29,337.9,339.88,338.91,339.71,339.81Z"/><path class="cls-2" d="M18.82,377.76h0l.26-.33Z"/><path class="cls-2" d="M97.25,275.18l.81,1.08-1-.16.13,0A1,1,0,0,1,97.25,275.18Z"/><path class="cls-1" d="M77.05,115c0,5.36.09,10.73-.16,16.08-.16,3.17,1.11,3.9,4,3.87,10.71-.12,21.44.13,32.15-.07,3.52-.07,4.73,1,4.5,4.5-.31,5-.17,10-.22,15-.08.09-.24.19-.23.27a3.19,3.19,0,0,0,.19.65q-.1,10.24-.2,20.49l-19.7,0c-.08-5.56-.12-11.12-.28-16.67,0-1.29.71-3.61-1.18-3.57-6.49.13-13.09-1.5-19.46.92a12.81,12.81,0,0,0-.8,3.06q-.08,26.28-.06,52.56a4.73,4.73,0,0,0,1.09,3.48l1.25.5a3,3,0,0,1,.52,0,101.73,101.73,0,0,1,17.54,0c0,4.84.14,9.69,0,14.54-.12,3.71-1.68,5.82-6,5.69q-13.73-.42-27.47,0c-4.38.12-5.74-1.62-5.46-5.71.24-3.39-.09-6.83.08-10.23.19-3.56-1.4-4.76-4.81-4.66-5.2.15-10.41,0-15.62,0V155.39c5,0,10-.26,15,.05,4.39.26,5.48-1.62,5.44-5.68-.14-18.26-.05-36.51,0-54.76,5,0,10.06.06,15.08-.08,3.27-.1,4.45,1.32,4.43,4.5C76.64,104.62,76.91,109.82,77.05,115Z"/><path class="cls-1" d="M189,11.35a128,128,0,0,1-19.45,1.58c-.65.37-1.3.73-2,1.07q12.87,0,25.72.06c3.23,0,4.94-1.12,5.17-4Q193.73,10.57,189,11.35Z"/><path class="cls-3" d="M279.45,155.32c5.56,0,11.11.12,16.66,0,2.61-.08,3.43.87,3.39,3.39q-.25,16.92-.26,33.85c0,2.81-1.45,3.18-3.73,3.13-5.37-.1-10.75,0-16.12-.07Z"/><path class="cls-1" d="M117.25,519.82c-4.84-.12-9.69-.56-14.5-.26-4.36.27-5.88-.88-5.76-5.54.31-11.67,0-23.35,0-35l.18-81c5-.07,10-.47,14.9-.13,4.42.3,5.46-1.49,5.27-5.51-.22-4.95.13-9.93.23-14.89l121-.17.17.17c0,5,.31,9.95.05,14.9-.21,4,.87,5.79,5.28,5.5,4.94-.33,9.92.06,14.89.13l.24,60.52q0,30.26-.08,60.51c-13.46,1.07-27,0-40.44.57l-.42-40.33c.07-5-.16-10,.28-14.92.41-4.67-1.55-5.84-5.79-5.56-4.78.31-9.59.16-14.39.21l-2-.29a1,1,0,0,0-1,0H184.55l-6.45.1c-6.87-.05-13.75-.72-20.6.39-.05-2.51-.14-5-.14-7.54,0-13.28,0-13-13.29-13.24-5.31-.09-6.6,1.7-6.55,6.78.26,22.63,0,45.27.21,67.89.05,5-1.6,6.73-6.5,6.44C126.59,519.32,121.91,519.72,117.25,519.82Z"/><path class="cls-3" d="M258.9,336.85c13.51-.35,27,.61,40.52-.47.81.68,1,2,2.69,1.67,5.72-1.22,11.53-.39,17.3-.44,0,11.65.33,23.31,0,35-.12,4.44,1.36,5.52,5.43,5.23,5-.36,10-.22,15-.29q0,40.53,0,81.05l-60.59,0c0-1.43-.12-2.86-.12-4.3q0-45.72.07-91.46c0-3.28-.08-5.57-4.43-5.17-4.09.38-8.25,0-12.37.13-2.8.11-3.74-.93-3.65-3.72C259,348.33,258.89,342.59,258.9,336.85Z"/><path class="cls-1" d="M258.9,336.85c0,5.74.11,11.48-.08,17.22-.09,2.79.85,3.83,3.65,3.72,4.12-.17,8.28.25,12.37-.13,4.35-.4,4.44,1.89,4.43,5.17q-.13,45.74-.07,91.46c0,1.44.08,2.87.12,4.3l-20.17,0L258.91,398c0-5.16,0-10.33.17-15.49.15-3.61-1.1-5.22-4.89-5.07-5.16.21-10.34,0-15.5,0l-.17-.17q0-19.75,0-39.5.06-10.24.11-20.48c5.53,0,11.06.12,16.59-.07,2.73-.1,3.77.59,3.66,3.52C258.64,326.15,258.86,331.5,258.9,336.85Z"/><path class="cls-3" d="M279.11,580.05l-40.41.06c0-11.63-.06-23.26-.14-34.89,0-1.94-.32-3.89-.48-5.83l41.1.15Q279.15,559.79,279.11,580.05Z"/><path class="cls-1" d="M279.18,539.54l-41.1-.15c-5.15.09-10.29.11-15.43.29-2.93.1-4.21-1.12-4.14-4.06.11-5.33.09-10.65.12-16,13.48-.53,27,.5,40.44-.57,5.2.15,10.4.51,15.58.36,3.83-.12,5.1,1.39,4.89,5.05C279.26,529.49,279.29,534.52,279.18,539.54Z"/><path class="cls-1" d="M198.31,459c4.8-.05,9.61.1,14.39-.21,4.24-.28,6.2.89,5.79,5.56-.44,4.94-.21,9.94-.28,14.92-5-.06-10-.4-14.89-.08-3.81.25-5.34-1.14-5.73-4.77a36.37,36.37,0,0,1-.05-8.47c.22-.72.45-1.44.67-2.16Z"/><path class="cls-1" d="M157.5,459.27c6.85-1.11,13.73-.44,20.6-.39q0,10-.11,20.08l-20,.22Q157.73,469.22,157.5,459.27Z"/><path class="cls-2" d="M184.55,458.78h3.13A2.28,2.28,0,0,1,184.55,458.78Z"/><path class="cls-2" d="M198.21,463.83c-.22.72-.45,1.44-.67,2.16C197.76,465.27,198,464.55,198.21,463.83Z"/><path class="cls-2" d="M195.33,458.77a1,1,0,0,1,1,0Z"/><path class="cls-1" d="M137.22,276c-6.6,1.15-13.2.73-19.81.14,0-5,.08-10.05-.12-15.07-.13-3.41,1-4.94,4.62-4.75,5,.26,10,.22,15.06.31Q137.09,266.36,137.22,276Z"/><path class="cls-1" d="M157.5,459.27q.23,10,.47,19.91c-.05,1-.09,2-.14,2.94,0,.43,0,.86,0,1.28l-.3,55.89-40,0-.33-19.43c4.66-.1,9.34-.5,14-.22,4.9.29,6.55-1.44,6.5-6.44-.22-22.62.05-45.26-.21-67.89-.05-5.08,1.24-6.87,6.55-6.78,13.28.2,13.27,0,13.29,13.24C157.36,454.25,157.45,456.76,157.5,459.27Z"/><path class="cls-3" d="M117.58,539.25l40,0-.09,41-39.8.06Q117.62,559.82,117.58,539.25Z"/><path class="cls-2" d="M157.84,483.4c0-.42,0-.85,0-1.28C157.83,482.55,157.84,483,157.84,483.4Z"/><path class="cls-1" d="M97.13,398,97,479,76.67,479l-.12-20.17c.1-1.24.29-2.48.29-3.72,0-24.16.07-48.33-.1-72.49,0-3.74,1-5.05,4.78-4.85,5.18.26,10.38,0,15.57-.05Q97.1,387.85,97.13,398Z"/><path class="cls-3" d="M97.09,377.67c-5.19,0-10.39.31-15.57.05-3.79-.2-4.81,1.11-4.78,4.85.17,24.16.1,48.33.1,72.49,0,1.24-.19,2.48-.29,3.72l-4.36.08H38.94l-2.3-.29q-.06-37-.14-74c0-2-.11-3.93-.17-5.89l.36-1.65c5.78,1.64,11.67.39,17.51.71,2.92.16,2.34-2.1,2.35-3.74.06-10.37,0-20.74.09-31.11,0-1.75-.5-3.57.51-5.23l19.51-.38,20.26.48.34.05q0,19.9-.1,39.8Z"/><path class="cls-2" d="M38.94,458.85H72.19A167.92,167.92,0,0,1,38.94,458.85Z"/><path class="cls-2" d="M178.31,175.84c-.12-12.52-.19-25-.4-37.55,0-2.59.88-3.38,3.41-3.36q16.91.12,33.81-.07c2.46,0,3.65.74,3.57,3.33-.18,5.71-.26,11.42-.38,17.13-5.38,0-10.77.19-16.15,0-3-.11-4.07.7-4,3.84.17,5.55-.11,11.11-.19,16.67Z"/><path class="cls-4" d="M76.5,156.51c6.37-2.42,13-.79,19.46-.92,1.89,0,1.15,2.28,1.18,3.57.16,5.55.2,11.11.28,16.67q0,9.93,0,19.86L77,196.34C75.9,183.08,77.14,169.78,76.5,156.51Z"/><path class="cls-4" d="M198,175.82c.08-5.56.36-11.12.19-16.67-.1-3.14,1-4,4-3.84,5.38.2,10.77,0,16.15,0,1.21,10.16.61,20.33.26,30.5,0,.88-.65,1.85-.43,2.61,2.07,6.92-1.93,7.26-7.06,6.88-4.27-.33-8.57-.23-12.86-.32Q198.13,185.4,198,175.82Z"/><path class="cls-5" d="M97.38,195.69q0-9.93,0-19.86l19.7,0c.06,5.53,0,11.07.25,16.59.14,2.73-1,3.36-3.39,3.33C108.45,195.62,102.91,195.69,97.38,195.69Z"/><path class="cls-5" d="M198,175.82q.11,9.59.22,19.17c-5.82,1.54-11.76.24-17.63.64-2.33.15-2.51-1.3-2.48-3.11.11-5.56.13-11.12.19-16.68Z"/><path class="cls-1" d="M218.16,257.05c-.08,5.39-.21,10.78-.2,16.16,0,2.07-.34,3.52-2.87,3.42-5.54-.23-11.11.57-16.62-.53,0-5,.28-10,0-15-.17-3.63,1.18-4.67,4.66-4.42C208.15,257,213.16,256.94,218.16,257.05Z"/><path class="cls-1" d="M76.5,156.51c.64,13.27-.6,26.57.52,39.83q-.15,9.63-.29,19.27a4.73,4.73,0,0,1-1.09-3.48q0-26.28.06-52.56A12.81,12.81,0,0,1,76.5,156.51Z"/><path class="cls-1" d="M78.5,216.15a3,3,0,0,0-.52,0A.37.37,0,0,1,78.5,216.15Z"/><path class="cls-5" d="M117.32,155.3a3.19,3.19,0,0,1-.19-.65c0-.08.15-.18.23-.27A.75.75,0,0,1,117.32,155.3Z"/><path class="cls-6" d="M294,296.58c-3.73.37-7.53-.05-11.28.12-2.55.12-3.46-.71-3.36-3.32.18-4.65-.07-9.32.1-14,.08-2.4-.79-3.07-3.07-3-4.12.15-8.26-.18-12.36.12-3.81.29-5.47-.6-5.12-4.88.41-5,0-10-.06-15l-20-.09-20.75.51c-.08,5.39-.21,10.78-.2,16.16,0,2.07-.34,3.52-2.87,3.42-5.54-.23-11.11.57-16.62-.53L137.22,276c-6.6,1.15-13.2.73-19.81.14l-19.35.08-1-.16q0,10.22-.08,20.43l-19.36-.09-1.14,1.22q.09,19.79.19,39.57l20.26.48c.21-3.42.34-6.84.41-10.26-.07,3.42-.2,6.84-.41,10.26l.34.05c5.52-.07,11,0,16.55-.26,2.88-.13,3.68,1,3.64,3.73-.1,5.7.06,11.4.12,17.1l94-.05-94,.05-.33,18.89.29.29,121-.17q0-19.75,0-39.5.06-10.24.11-20.48c5.53,0,11.06.12,16.59-.07,2.73-.1,3.77.59,3.66,3.52-.2,5.34,0,10.69.06,16,13.51-.35,27,.61,40.52-.47.08-11.46-.06-22.93.35-34.38C299.94,297.36,298.36,296.15,294,296.58Zm-176,.38-21-.3h0l21,.3,18.58,0-18.58,0Zm19.21,18.49a3.74,3.74,0,0,0,.14-1.36A3.74,3.74,0,0,1,137.27,315.45ZM204.44,317c.62.06,1.31.09,2.08.11C205.75,317.13,205.06,317.1,204.44,317ZM198.94,297l-62.3-.07h0L199,297l19.34.42Zm19.39.42h0l4-.07Zm17.2-.36a7.72,7.72,0,0,0-1.09,0h0a7.72,7.72,0,0,1,1.09,0,3.38,3.38,0,0,1,1.56.5A3.38,3.38,0,0,0,235.53,297Zm2.83,4.21c0,2,0,4,0,6C238.36,305.27,238.34,303.26,238.36,301.25Z"/><path class="cls-1" d="M238.69,377.51c5.16,0,10.34.18,15.5,0,3.79-.15,5,1.46,4.89,5.07-.21,5.16-.13,10.33-.17,15.49-5-.07-10-.46-14.89-.13-4.41.29-5.49-1.46-5.28-5.5C239,387.46,238.73,382.47,238.69,377.51Z"/><path class="cls-1" d="M97.13,398q0-10.19,0-20.37l.07-.11,20.08-.34.29.29c-.1,5-.45,9.94-.23,14.89.19,4-.85,5.81-5.27,5.51C107.09,397.57,102.1,398,97.13,398Z"/><path class="cls-1" d="M117.24,377.22l-20.08.34q0-19.89.1-39.8c5.52-.07,11,0,16.55-.26,2.88-.13,3.68,1,3.64,3.73-.1,5.7.06,11.4.12,17.1Z"/><rect class="cls-1" x="338.78" y="212.55" width="26.97" height="26.97"/><rect class="cls-1" x="326.91" y="99.26" width="26.97" height="26.97"/><rect class="cls-1" x="23.74" y="108.97" width="26.97" height="26.97"/><rect class="cls-1" x="348.49" y="235.21" width="26.97" height="32.37"/><rect class="cls-1" x="322.6" y="238.44" width="26.97" height="26.97"/><rect class="cls-1" x="312.89" y="230.89" width="26.97" height="26.97"/><rect class="cls-1" x="279.44" y="248.15" width="43.16" height="35.6"/><rect class="cls-1" x="276.21" y="256.78" width="26.97" height="26.97"/><rect class="cls-1" x="298.86" y="277.28" width="26.97" height="26.97"/><rect class="cls-1" x="320.44" y="263.26" width="26.97" height="26.97"/><rect class="cls-1" x="347.41" y="264.34" width="26.97" height="26.97"/><rect class="cls-1" x="318.28" y="288.07" width="26.97" height="26.97"/><rect class="cls-1" x="344.18" y="288.07" width="30.21" height="26.97"/><rect class="cls-1" x="16.18" y="211.47" width="30.21" height="46.39"/><rect class="cls-1" x="42.08" y="211.47" width="30.21" height="46.39"/><rect class="cls-1" x="66.89" y="242.76" width="30.21" height="46.39"/><rect class="cls-1" x="38.84" y="257.86" width="30.21" height="46.39"/><rect class="cls-1" x="9.71" y="256.78" width="30.21" height="46.39"/><rect class="cls-1" y="215.79" width="30.21" height="46.39"/><rect class="cls-1" x="7.55" y="170.47" width="30.21" height="46.39"/><path class="cls-3" d="M238.44,251.5v-6.26c.05-2.25.09-4.5,0-6.75V213.12a9.54,9.54,0,0,0,.08-1.26q-.15-36.39,0-72.79c0-3.18-1.21-4-4.14-3.88-3.58.18-7.2-.16-10.78.08a11.42,11.42,0,0,1-2,0L218.27,132a9.73,9.73,0,0,1,0-1.71c.31-3.57-.07-7.2.13-10.78.18-3.23-1-4.76-4.3-4.46a31,31,0,0,1-4.31.06c-3.91-.22-8.88,1.57-11.38-1-1.75-1.8-.28-6.72-.25-10.25a41.27,41.27,0,0,1,0-4.31c.37-3.41-.79-4.77-4.47-4.68-5,.11-11.45,2.21-14.59-.81-3.43-3.28-1.11-9.88-1-15,.06-4.06-1.58-4.64-5.07-4.6-13.48.18-27,0-40.45.13-4.81,0-10.94-2-14.08.85s-.71,9.18-1.13,14a5.57,5.57,0,0,0,0,1.08c.42,3.2-.78,4.62-4.18,4.4-3.76-.23-7.55.12-11.32-.09-3.37-.18-5,.78-4.68,4.49s-.18,7.57.13,11.32-1.24,4.66-4.62,4.54c-5.21-.2-10.43-.07-15.64-.09,0,2.27,0,4.53,0,6.79l-1.07.36v99H94.77v16.88h42.85a4.54,4.54,0,0,1,0,1c-.38,5.86.77,11.79-.68,17.61l.19,14.8-.14,4.74h61.5v-3.83c.08-3.68.16-7.35,0-11v-1.55c.19-2.63,1.61-3.4,4.65-3.18,5,.37,10,.3,15,.41l20.75-.51A42.93,42.93,0,0,1,238.44,251.5Z"/><rect class="cls-7" x="76.6" y="579.38" width="101.42" height="21.58"/><rect class="cls-7" x="216.86" y="579.38" width="82" height="21.58"/><rect class="cls-6" x="258.94" y="336.63" width="60.42" height="21.58"/><rect class="cls-6" x="56.1" y="336.63" width="42.08" height="21.58"/><rect class="cls-1" x="63.66" y="284.84" width="14.03" height="12.95"/><rect class="cls-1" x="35.6" y="334.47" width="20.5" height="45.31"/><path d="M214.15,304.75H205V294h1.5v-3.07H208v-3.07h3.07v3.06h1.55V294h1.52Z"/><path d="M192.63,295.55v1.51h3.08v1.54h3.07v1.54h1.54v1.53h1.54v1.54h1.52v1.53H192.65v-3h-1.53v-6.15Z"/><path d="M226.47,304.75H215.74v-1.52h1.5V301.7h1.54v-1.54h1.53v-1.55h3.08v-1.52h3.08v-1.54H228v6.12h-1.52Z"/><path d="M224.93,306.31v1.5H194.2v-1.5Z"/><path d="M197.28,309.37h24.56v1.51H197.28Z"/><path d="M206.46,315.5H205V314h-4.6v-1.53h6.11Z"/><path d="M218.77,312.46V314h-4.59v1.53h-1.53v-3Z"/><path d="M211.07,315.5h-3v-3h3Z"/><rect class="cls-1" x="92.79" y="128.39" width="51.79" height="12.95"/><rect class="cls-1" x="106.81" y="149.97" width="23.74" height="12.95"/><rect class="cls-1" x="175.87" y="149.97" width="23.74" height="12.95"/><rect class="cls-1" x="160.76" y="128.39" width="51.79" height="12.95"/><rect class="cls-8" x="124.08" y="192.05" width="59.34" height="18.34"/><rect class="cls-9" x="137.02" y="238.44" width="26.97" height="17.26"/><rect class="cls-9" x="137.02" y="255.71" width="26.97" height="20.5"/><rect class="cls-1" x="31.29" y="49.63" width="24.82" height="19.42"/><rect class="cls-1" x="45.31" y="32.37" width="24.82" height="19.42"/><rect class="cls-1" x="65.81" y="19.42" width="24.82" height="19.42"/><rect class="cls-1" x="87.39" y="11.87" width="24.82" height="19.42"/><rect class="cls-1" x="110.05" y="7.55" width="24.82" height="19.42"/><rect class="cls-1" x="130.55" y="14.03" width="24.82" height="19.42"/><rect class="cls-1" x="155.37" y="4.32" width="24.82" height="19.42"/><rect class="cls-1" x="178.02" y="1.08" width="24.82" height="19.42"/><rect class="cls-1" x="201.76" width="24.82" height="19.42"/><rect class="cls-1" x="224.42" y="7.55" width="24.82" height="19.42"/><rect class="cls-1" x="246" y="14.03" width="24.82" height="19.42"/><rect class="cls-1" x="263.26" y="22.66" width="24.82" height="19.42"/><rect class="cls-1" x="279.44" y="30.21" width="24.82" height="19.42"/><rect class="cls-1" x="294.55" y="41" width="24.82" height="19.42"/><rect class="cls-1" x="310.73" y="51.79" width="24.82" height="19.42"/><rect class="cls-1" x="327.99" y="62.58" width="24.82" height="19.42"/><rect class="cls-1" x="329.07" y="80.92" width="24.82" height="19.42"/><rect class="cls-1" x="323.68" y="123" width="24.82" height="19.42"/></g></g></svg>