<svg xmlns="http://www.w3.org/2000/svg" viewBox="0 0 375.47 740.78"><defs><style>.cls-1{fill:#010104;}.cls-2{fill:#101e3a;}.cls-3{fill:#c08c74;}.cls-4{fill:#b5b2d1;}.cls-5{fill:#263552;}.cls-6{fill:#729e97;}.cls-7{fill:#e29fcf;}.cls-8{fill:#fff;}.cls-9{fill:#a06d58;}.cls-10{fill:#ec1c24;}.cls-11{fill:#feadc8;}</style></defs><title>Asset 9</title><g id="Layer_2" data-name="Layer 2"><g id="Layer_1-2" data-name="Layer 1"><path class="cls-1" d="M264.31,234.34c18.33-.08,36.65-.08,55-.11.17-13.69.33-27.38.38-41.07-5-3.71-9.84-7.6-14.67-11.54-15.3-12.48-35.4-17.91-53.91-23.64-10.1-3.13-20-7.18-30.58-8.58a93.75,93.75,0,0,0-22,0c-.23,2.88-1.94,4-5.17,4q-12.85-.06-25.72-.06c-6.83,3.47-14.1,5.55-22,4.32a49.67,49.67,0,0,1-17.08-6.26,9.51,9.51,0,0,1-6.72,6.42c-12.58,3.72-25.79,2.73-38.49,5.57-10.9,2.45-19,9.19-27,16.47q.06,24.09.13,48.17c0,2.13-.4,4.33.8,6.31,5,0,10.06.06,15.08-.08,3.27-.1,4.45,1.32,4.43,4.5,0,5.2.24,10.4.38,15.6,5.21,0,10.43-.12,15.64.08,3.38.12,4.93-.85,4.62-4.54s.16-7.57-.13-11.32,1.31-4.67,4.68-4.49c3.77.21,7.56-.14,11.32.1,3.4.21,4.6-1.21,4.18-4.41a5.47,5.47,0,0,1,0-1.07c.42-4.78-2.12-11,1.13-14s9.27-.81,14.08-.85c13.48-.11,27,0,40.45-.12,3.49-.05,5.13.53,5.07,4.59-.07,5.12-2.39,11.71,1,15,3.14,3,9.61.92,14.59.81,3.68-.08,4.84,1.27,4.47,4.68a41.27,41.27,0,0,0,0,4.31c0,3.53-1.5,8.46.25,10.25,2.5,2.58,7.47.78,11.38,1a31,31,0,0,0,4.31-.06c3.33-.3,4.48,1.23,4.3,4.46-.2,3.58.18,7.21-.13,10.78-.36,4.2,1.53,5.28,5.33,5,3.58-.24,7.2.1,10.78-.08,2.93-.15,4.15.7,4.14,3.88q-.15,36.39,0,72.8c0,3.07-1,4.12-4,4-4.13-.19-8.28.13-12.4-.11-3.18-.19-4,1-3.82,4,.25,4.3.16,8.63,0,12.94-.08,2.78,1.07,3.81,3.82,3.73,5.39-.16,10.79-.1,16.18-.14,5,0,10-.25,15,0,4.09.2,6-1.09,5.65-5.44-.27-3.37.12-6.8-.09-10.18-.23-3.81,1.47-4.86,5.08-5,4.9-.14,11.15,2.32,14.38-1.27s.7-9.61,1-14.56c.1-1.42,0-2.86,0-4.29l.06-40.25c0-11.67-.16-23.35,0-35,.07-4.47-1.67-6.33-6.05-5.89a8.59,8.59,0,0,1-2.15,0c-3.94-.63-9.49,2.17-11.54-1.63-2.36-4.4-.94-10.21-.57-15.37C259.39,233.56,262.32,234.35,264.31,234.34Z"/><path class="cls-1" d="M238.32,375.6c5,0,10-.25,15,0,4.09.2,6-1.09,5.65-5.44-.27-3.37.12-6.8-.09-10.18-.23-3.81,1.47-4.86,5.08-5,4.9-.14,11.15,2.32,14.38-1.27s.7-9.61,1-14.56c.1-1.42,0-2.86,0-4.29,5.37,0,10.75,0,16.12.08,2.28,0,3.73-.33,3.73-3.14q0-16.92.26-33.85c0-2.52-.78-3.47-3.39-3.39-5.55.17-11.1.05-16.66.05,0-11.67-.16-23.35,0-35,.07-4.47-1.67-6.33-6.05-5.89a8.59,8.59,0,0,1-2.15,0c-3.94-.63-9.49,2.17-11.54-1.63-2.36-4.4-.94-10.21-.57-15.37.23-3.14,3.16-2.35,5.15-2.36,18.33-.08,36.65-.08,55-.11,0,18.14.2,36.29,0,54.42-.06,4.79,1.51,6.42,6.19,6.09s9.7-.11,14.55-.13l-.1-.1,0,60.79.13-.13-16.58-.06c-2.12,0-4.15.32-4,3,.22,5.78.61,11.56.93,17.34l-1.05,1.13c-12.21-2.28-24.52-.59-36.77-.89-2.13-.05-3.19,1.56-3.15,3.59.09,5.49-1,11.07,1.11,16.43l-1.41,1.41c-6.63-2.1-13.46-1.06-20.21-1.23l-20-.09C237.83,389.12,238.88,382.34,238.32,375.6Z"/><path class="cls-1" d="M339.76,597.69c0,5.21-.19,10.43.16,15.62.26,3.91-.77,5.16-4.93,5.09-17.06-.26-34.13,0-51.18-.19-3.87-.05-4.75,1.11-4.66,4.8.26,10.59.21,21.19,0,31.79-.05,3,.71,4.14,3.79,4,4.3-.2,8.62,0,12.92-.1,2.55-.09,3.53.89,3.53,3.42q-.07,37.18,0,74.35c0,2.2-.76,3.33-3.14,3.24-6.27-.25-12.56.48-18.81-.5,2.95-6.41,1.88-13.17,1.66-19.85q0-20.25.07-40.51c.11-5,.08-10.05.36-15.06.21-3.66-1.06-5.17-4.89-5-5.18.15-10.38-.21-15.58-.35l.08-60.52,20.17,0,60.59,0Z"/><path class="cls-1" d="M238.33,739.36c-5.19.11-10.39,0-15.57.39-3.76.25-4.4-1.43-4.37-4.75.14-17-.06-34.09.17-51.13.05-4-.83-5.3-5-5.13-4.92.19-11.53,2.29-14.36-1-2.44-2.81-.81-9.22-.82-14,0-13.64-.17-27.28.08-40.91.08-3.88-1.17-4.81-4.8-4.6-5.18.31-10.4.11-15.6.12l-.08-.08q.06-10,.11-20.08l6.45-.1a2.28,2.28,0,0,0,3.13,0h7.65l1,0,2,.29-.1,4.79c-.22.72-.45,1.44-.67,2.16a36.36,36.36,0,0,0,.05,8.47c.39,3.63,1.92,5,5.73,4.77,4.94-.32,9.92,0,14.89.08l.42,40.33c0,5.33,0,10.66-.12,16-.07,2.94,1.21,4.17,4.14,4.06,5.14-.18,10.28-.2,15.42-.29.17,1.95.47,3.89.49,5.84.08,11.62.1,23.25.14,34.88Q238.52,729.39,238.33,739.36Z"/><path class="cls-1" d="M339.84,206.48a191.59,191.59,0,0,1-20.18-13.32c-.05,13.69-.21,27.38-.38,41.07,0,18.14.2,36.29,0,54.42-.06,4.79,1.51,6.42,6.19,6.09s9.7-.11,14.55-.13c-.06-9.52-.15-19-.15-28.56Q339.83,236.27,339.84,206.48Z"/><path class="cls-1" d="M57.16,234.3c-1.2-2-.8-4.18-.8-6.31q-.09-24.08-.13-48.17L53,182.76c-5.57,5.12-11,10.49-16.5,15.85q.06,48,.06,95.92l.15.16c5,0,10-.25,15,.05,4.39.26,5.48-1.62,5.44-5.68C57.06,270.81,57.15,252.55,57.16,234.3Z"/><path class="cls-1" d="M97.25,414.48c0-5-.27-10-.08-15,.11-2.82-.74-3.65-3.57-3.61-10.74.15-21.49-.11-32.22.14-3.79.09-4.94-1.07-4.86-4.8.11-5.09,2.3-11.93-.89-14.8-2.8-2.53-9.54-1-14.5-.7-3.89.22-4.86-1.15-4.65-4.81.29-5.18.05-10.38,0-15.58l.21-.23c5.21,0,10.42.14,15.62,0,3.41-.1,5,1.1,4.81,4.66-.17,3.4.16,6.84-.08,10.23-.28,4.1,1.08,5.83,5.46,5.71q13.73-.39,27.47,0c4.34.13,5.9-2,6-5.69.16-4.84,0-9.7,0-14.54,2.36,4.87.88,10.05.93,15.05,0,3.82.74,5.27,5,5.15,10.57-.3,21.15,0,31.73,0,1.91,0,4.19-.53,4,2.69-.38,5.86.77,11.79-.68,17.61-5-.09-10-.05-15.06-.31-3.58-.19-4.75,1.34-4.62,4.75.2,5,.1,10,.12,15.08l-19.35.07Z"/><path class="cls-1" d="M178.07,618.34c0,38.56-.14,77.12.09,115.68,0,5-1.45,6.17-6,5.74-4.8-.45-9.65-.33-14.48-.46q-.12-9.84-.23-19.67l.09-41,.3-55.88v-1.28c0-1,.09-2,.14-2.95l20-.22Z"/><path class="cls-1" d="M96.94,719.44c.06-19,.08-38,.22-57,0-2.68-.58-3.88-3.56-3.7-4.11.25-8.25-.13-12.37.09-3.44.19-4.58-.9-4.52-4.52.19-12,0-24,0-36h0l20.28,0c0,11.67.35,23.36,0,35-.12,4.66,1.4,5.81,5.76,5.54,4.81-.3,9.66.14,14.5.26l.33,19.43q0,20.58.07,41.15Z"/><path class="cls-1" d="M339.77,517c5.56,0,11.13.2,16.69.06,2.76-.07,3.74.77,3.73,3.65q-.13,36.89,0,73.77c0,2.39-.48,3.65-3.23,3.55-5.72-.23-11.46-.21-17.19-.3l.15.17q0-40.53,0-81.05Z"/><path class="cls-1" d="M18.82,517.06l15.91.11,1.6.76c.06,2,.17,3.93.17,5.89q.09,37,.14,74l.2-.19c-5.73.09-11.46,0-17.18.33-3,.16-3.51-1.06-3.5-3.71.12-25.09.13-50.19.16-75.28,1-.3,1.85-.69,2.1-1.81l.36-.14Z"/><path class="cls-1" d="M258.89,395.93c6.75.17,13.58-.87,20.21,1.23,0,5.19.22,10.39.09,15.58-.07,2.63.83,3.42,3.4,3.31,4.3-.19,8.61.12,12.9-.1,3.16-.17,4.06,1.14,3.95,4.07-.17,4.29.1,8.61-.1,12.9-.12,2.6.76,3.42,3.32,3.32,4.48-.18,9,.05,13.44-.11,2.52-.09,3.47.7,3.43,3.33-.18,12.53-.2,25.07-.28,37.61l.16-.16c-5.77,0-11.58-.77-17.3.44-1.68.36-1.88-1-2.69-1.67.08-11.46-.06-22.93.35-34.38.17-4.64-1.41-5.85-5.73-5.42-3.73.38-7.53-.05-11.28.12-2.55.12-3.46-.71-3.36-3.32.18-4.65-.07-9.32.1-14,.08-2.4-.79-3.07-3.07-3-4.12.16-8.26-.18-12.36.13-3.81.28-5.47-.6-5.12-4.89C259.36,406,259,400.94,258.89,395.93Z"/><path class="cls-2" d="M76.6,719.44l27.64.26,53.13-.07q.15,9.84.31,19.67c-27,.63-54,.55-81,0q0-10,0-19.93Z"/><path class="cls-1" d="M36.51,355.29c-5.55,0-11.1-.16-16.65,0-2.69.08-3.73-.6-3.71-3.54q.18-26.85,0-53.71c0-3.08,1.26-3.45,3.81-3.4,5.54.1,11.09,0,16.64-.09l.15.16v60.37Z"/><path class="cls-1" d="M339.93,355.3l0-60.79c5.55.05,11.11.25,16.67.09,2.83-.07,3.65.85,3.63,3.66q-.18,26.64,0,53.28c0,3.35-1.38,3.8-4.15,3.74C350.69,355.15,345.31,355.28,339.93,355.3Z"/><path class="cls-2" d="M238.33,739.36q.18-10,.37-20l40.41-.06c.22,6.68,1.29,13.44-1.66,19.85C264.41,740.09,251.37,739.74,238.33,739.36Z"/><path class="cls-1" d="M319.25,477.07l19.54,0c.31.69.61,1.39.92,2.08l.06,37.85.13-.15c-5,.08-10-.07-15,.29-4.07.29-5.55-.79-5.43-5.23.31-11.65,0-23.31,0-35Z"/><path class="cls-1" d="M280.51,395.75c-2.09-5.36-1-10.94-1.11-16.43,0-2,1-3.64,3.15-3.59,12.25.3,24.56-1.39,36.77.89.05,5.19,0,10.39.19,15.58.1,2.65-.55,3.79-3.53,3.74C304.16,395.74,292.33,395.79,280.51,395.75Z"/><path class="cls-1" d="M76.66,618.26c-12,0-24-.08-35.94.11-3.18,0-4.47-.65-4.23-4.11.37-5.51.26-11.06.35-16.59l-.2.19,2.3.3a167.92,167.92,0,0,0,33.25,0l4.36-.08.12,20.17Z"/><path class="cls-1" d="M64.76,436.3H75.68a1.21,1.21,0,0,0,.79.67q.09,19.79.19,39.57l-19.51.38h0c.09-8,.33-16,.24-24-.06-6.37-1.05-13,7-15.64C64.55,437.17,64.62,436.63,64.76,436.3Z"/><path class="cls-1" d="M39.87,477h8.77c.58,2.47,1.8,3.31,4.2,1.89a42.18,42.18,0,0,1,4.26-2h0c-1,1.66-.5,3.48-.51,5.23,0,10.37,0,20.74-.09,31.11,0,1.65.57,3.9-2.35,3.74-5.84-.32-11.73.93-17.51-.71,1-1.55,1.36-3.1.06-4.68,0-.78,0-1.56,0-2.34a2.83,2.83,0,0,0,1.93-2.91V489.67a2.84,2.84,0,0,0-1.93-2.91l0-5.53C39,480.68,39.44,478.84,39.87,477Z"/><path class="cls-1" d="M97,719.41q0,10,0,19.93a97.17,97.17,0,0,1-16.8.08l-3-.41c-1-5.46-.15-11-.46-16.45-.17-2.93,1.52-3,3.68-3C86,719.55,91.48,719.46,97,719.41Z"/><path class="cls-1" d="M320.37,375.49c-.32-5.78-.71-11.56-.93-17.34-.11-2.72,1.92-3,4-3l16.58.06c-.07,5.37-.41,10.75-.13,16.09.19,3.67-1.14,4.56-4.53,4.38C330.4,375.37,325.38,375.52,320.37,375.49Z"/><path class="cls-1" d="M82.83,416.24h2.71a13.62,13.62,0,0,0,8.07,0l3.57-.78-.13,0q0,10.22-.08,20.43l-19.36-.09a.7.7,0,0,0-.6-.7L77,418.76Z"/><path class="cls-2" d="M36.71,486.76a2.84,2.84,0,0,1,1.93,2.91v16.68a2.83,2.83,0,0,1-1.93,2.91A187.67,187.67,0,0,1,36.71,486.76Z"/><path class="cls-2" d="M39.87,477c-.43,1.87-.91,3.71-3.13,4.26C36.35,478.75,35.31,475.8,39.87,477Z"/><path class="cls-2" d="M82.83,416.24,77,418.76C76.82,413,80.75,416.79,82.83,416.24Z"/><path class="cls-2" d="M93.61,416.21a13.62,13.62,0,0,1-8.07,0A17.6,17.6,0,0,1,93.61,416.21Z"/><path class="cls-2" d="M36.75,511.6c1.3,1.58,1,3.13-.06,4.68l-.36,1.65-1.6-.76C38,516.26,35.55,513.27,36.75,511.6Z"/><path class="cls-2" d="M77.25,739l3,.41C78.88,741.79,78,740.68,77.25,739Z"/><path class="cls-2" d="M18.42,517.2c-.25,1.12-1.14,1.51-2.1,1.81C16,517.19,16.82,516.76,18.42,517.2Z"/><path class="cls-2" d="M77,435a.7.7,0,0,1,.6.7L76.47,437a1.21,1.21,0,0,1-.79-.67Z"/><path class="cls-2" d="M339.71,479.11c-.31-.69-.61-1.39-.92-2.08C340.29,477.2,339.88,478.21,339.71,479.11Z"/><path class="cls-2" d="M18.82,517.06h0l.26-.33Z"/><path class="cls-2" d="M97.25,414.48l.81,1.08-1-.16.13,0A1,1,0,0,1,97.25,414.48Z"/><path class="cls-1" d="M77.05,254.32c0,5.35.09,10.72-.16,16.07-.16,3.17,1.11,3.91,4,3.87,10.71-.12,21.44.13,32.15-.07,3.52-.07,4.73.95,4.5,4.5-.31,5-.17,10-.22,15-.08.09-.24.19-.23.27a3.19,3.19,0,0,0,.19.65q-.1,10.25-.2,20.49l-19.7,0c-.08-5.56-.12-11.12-.28-16.67,0-1.29.71-3.61-1.18-3.57-6.49.13-13.09-1.5-19.46.92a12.81,12.81,0,0,0-.8,3.06q-.08,26.28-.06,52.56a4.72,4.72,0,0,0,1.09,3.48l1.25.5a3,3,0,0,1,.52,0,102.74,102.74,0,0,1,17.54,0c0,4.84.14,9.7,0,14.54-.12,3.71-1.68,5.82-6,5.69q-13.73-.42-27.47,0c-4.38.12-5.74-1.61-5.46-5.71.24-3.39-.09-6.83.08-10.23.19-3.56-1.4-4.76-4.81-4.66-5.2.15-10.41,0-15.62,0V294.69c5,0,10-.25,15,.05,4.39.26,5.48-1.62,5.44-5.68-.14-18.25-.05-36.51,0-54.76,5,0,10.06.06,15.08-.08,3.27-.1,4.45,1.32,4.43,4.5C76.64,243.92,76.91,249.12,77.05,254.32Z"/><path class="cls-1" d="M189,150.65a129.29,129.29,0,0,1-19.45,1.59c-.65.36-1.3.73-2,1.06q12.87,0,25.72.06c3.23,0,4.94-1.11,5.17-4Q193.73,149.86,189,150.65Z"/><path class="cls-3" d="M279.45,294.62c5.56,0,11.11.12,16.66-.05,2.61-.08,3.43.87,3.39,3.39q-.25,16.94-.26,33.85c0,2.81-1.45,3.18-3.73,3.14-5.37-.11-10.75-.06-16.12-.08Z"/><path class="cls-1" d="M117.25,659.12c-4.84-.12-9.69-.56-14.5-.26-4.36.27-5.88-.88-5.76-5.54.31-11.66,0-23.35,0-35l.18-80.95c5-.08,10-.48,14.9-.14,4.42.3,5.46-1.49,5.27-5.51-.22-5,.13-9.92.23-14.89l121-.17.17.17c0,5,.31,10,.05,14.9-.21,4,.87,5.8,5.28,5.5,4.94-.33,9.92.06,14.89.13l.24,60.52q0,30.25-.08,60.51c-13.46,1.07-27,0-40.44.58l-.42-40.34c.07-5-.16-10,.28-14.92.41-4.66-1.55-5.84-5.79-5.56-4.78.31-9.59.16-14.39.21l-2-.29a1,1,0,0,0-1,0H184.55l-6.45.1c-6.87,0-13.75-.72-20.6.39-.05-2.51-.14-5-.14-7.54,0-13.28,0-13-13.29-13.24-5.31-.09-6.6,1.7-6.55,6.79.26,22.62,0,45.26.21,67.89.05,5-1.6,6.72-6.5,6.43C126.59,658.62,121.91,659,117.25,659.12Z"/><path class="cls-3" d="M258.9,476.15c13.51-.35,27,.61,40.52-.47.81.68,1,2,2.69,1.67,5.72-1.21,11.53-.39,17.3-.44,0,11.65.33,23.31,0,35-.12,4.44,1.36,5.52,5.43,5.23,5-.36,10-.21,15-.29q0,40.53,0,81.05l-60.59,0c0-1.43-.12-2.86-.12-4.29q0-45.74.07-91.47c0-3.28-.08-5.57-4.43-5.17-4.09.38-8.25,0-12.37.13-2.8.11-3.74-.93-3.65-3.72C259,487.64,258.89,481.89,258.9,476.15Z"/><path class="cls-1" d="M258.9,476.15c0,5.74.11,11.49-.08,17.22-.09,2.79.85,3.83,3.65,3.72,4.12-.17,8.28.25,12.37-.13,4.35-.4,4.44,1.89,4.43,5.17q-.13,45.74-.07,91.47c0,1.43.08,2.86.12,4.29l-20.17,0-.24-60.52c0-5.16,0-10.33.17-15.49.15-3.61-1.1-5.22-4.89-5.07-5.16.21-10.34,0-15.5,0l-.17-.17q0-19.74,0-39.5.06-10.25.11-20.48c5.53,0,11.06.12,16.59-.07,2.73-.1,3.77.59,3.66,3.52C258.64,465.45,258.86,470.81,258.9,476.15Z"/><path class="cls-3" d="M279.11,719.35l-40.41.06c0-11.63-.06-23.26-.14-34.88,0-1.95-.32-3.89-.48-5.84l41.1.15Q279.15,699.09,279.11,719.35Z"/><path class="cls-1" d="M279.18,678.84l-41.1-.15c-5.15.09-10.29.11-15.43.29-2.93.11-4.21-1.12-4.14-4.06.11-5.32.09-10.65.12-16,13.48-.53,27,.5,40.44-.57,5.2.15,10.4.51,15.58.36,3.83-.12,5.1,1.39,4.89,5C279.26,668.79,279.29,673.82,279.18,678.84Z"/><path class="cls-1" d="M198.31,598.34c4.8-.05,9.61.1,14.39-.21,4.24-.28,6.2.9,5.79,5.56-.44,4.94-.21,9.95-.28,14.92-5-.06-10-.4-14.89-.08-3.81.25-5.34-1.14-5.73-4.77a36.36,36.36,0,0,1-.05-8.47c.22-.72.45-1.44.67-2.16Z"/><path class="cls-1" d="M157.5,598.57c6.85-1.11,13.73-.44,20.6-.39q0,10-.11,20.08l-20,.22Q157.73,608.54,157.5,598.57Z"/><path class="cls-2" d="M184.55,598.08h3.13A2.28,2.28,0,0,1,184.55,598.08Z"/><path class="cls-2" d="M198.21,603.13c-.22.72-.45,1.44-.67,2.16C197.76,604.57,198,603.85,198.21,603.13Z"/><path class="cls-2" d="M195.33,598.07a1,1,0,0,1,1,0Z"/><path class="cls-1" d="M137.22,415.34c-6.6,1.15-13.2.74-19.81.15,0-5,.08-10.06-.12-15.08-.13-3.41,1-4.94,4.62-4.75,5,.26,10,.22,15.06.31Q137.09,405.66,137.22,415.34Z"/><path class="cls-1" d="M157.5,598.57q.23,10,.47,19.91c-.05,1-.09,2-.14,2.95,0,.42,0,.85,0,1.28l-.3,55.88-40,0-.33-19.43c4.66-.1,9.34-.5,14-.22,4.9.29,6.55-1.44,6.5-6.43-.22-22.63.05-45.27-.21-67.89-.05-5.09,1.24-6.88,6.55-6.79,13.28.21,13.27,0,13.29,13.24C157.36,593.55,157.45,596.06,157.5,598.57Z"/><path class="cls-3" d="M117.58,678.55l40,0-.09,41-39.8.07Q117.62,699.12,117.58,678.55Z"/><path class="cls-2" d="M157.84,622.71c0-.43,0-.86,0-1.28C157.83,621.85,157.84,622.28,157.84,622.71Z"/><path class="cls-1" d="M97.13,537.35,97,618.3l-20.28,0-.12-20.17c.1-1.24.29-2.48.29-3.72,0-24.16.07-48.33-.1-72.49,0-3.74,1-5,4.78-4.85,5.18.26,10.38,0,15.57,0Q97.1,527.16,97.13,537.35Z"/><path class="cls-3" d="M97.09,517c-5.19,0-10.39.31-15.57,0-3.79-.19-4.81,1.11-4.78,4.85.17,24.16.1,48.33.1,72.49,0,1.24-.19,2.48-.29,3.72l-4.36.08H38.94l-2.3-.3q-.06-37-.14-74c0-2-.11-3.93-.17-5.89l.36-1.65c5.78,1.64,11.67.39,17.51.71,2.92.16,2.34-2.09,2.35-3.74.06-10.37,0-20.74.09-31.11,0-1.75-.5-3.57.51-5.23l19.51-.38,20.26.48.34.06q0,19.89-.1,39.79Z"/><path class="cls-2" d="M38.94,598.16H72.19A167.92,167.92,0,0,1,38.94,598.16Z"/><path class="cls-2" d="M178.31,315.14c-.12-12.52-.19-25-.4-37.55,0-2.59.88-3.38,3.41-3.36q16.91.12,33.81-.07c2.46,0,3.65.74,3.57,3.33-.18,5.71-.26,11.42-.38,17.13-5.38,0-10.77.19-16.15,0-3-.11-4.07.7-4,3.84.17,5.55-.11,11.11-.19,16.67Z"/><path class="cls-4" d="M76.5,295.81c6.37-2.42,13-.79,19.46-.92,1.89,0,1.15,2.28,1.18,3.57.16,5.55.2,11.11.28,16.67q0,9.93,0,19.86L77,335.64C75.9,322.38,77.14,309.08,76.5,295.81Z"/><path class="cls-4" d="M198,315.12c.08-5.56.36-11.12.19-16.67-.1-3.14,1-3.95,4-3.84,5.38.2,10.77,0,16.15,0,1.21,10.16.61,20.33.26,30.5,0,.88-.65,1.85-.43,2.61,2.07,6.92-1.93,7.27-7.06,6.88-4.27-.33-8.57-.23-12.86-.32Q198.13,324.7,198,315.12Z"/><path class="cls-5" d="M97.38,335q0-9.93,0-19.86l19.7,0c.06,5.53,0,11.07.25,16.59.14,2.74-1,3.37-3.39,3.33C108.45,334.92,102.91,335,97.38,335Z"/><path class="cls-5" d="M198,315.12q.11,9.58.22,19.17c-5.82,1.54-11.76.24-17.63.64-2.33.15-2.51-1.3-2.48-3.11.11-5.56.13-11.12.19-16.68Z"/><path class="cls-1" d="M218.16,396.35c-.08,5.39-.21,10.78-.2,16.16,0,2.08-.34,3.52-2.87,3.42-5.54-.23-11.11.58-16.62-.52,0-5,.28-10,0-15-.17-3.64,1.18-4.68,4.66-4.42C208.15,396.31,213.16,396.24,218.16,396.35Z"/><path class="cls-1" d="M76.5,295.81c.64,13.27-.6,26.57.52,39.83q-.15,9.64-.29,19.27a4.72,4.72,0,0,1-1.09-3.48q0-26.28.06-52.56A12.81,12.81,0,0,1,76.5,295.81Z"/><path class="cls-1" d="M78.5,355.45a3,3,0,0,0-.52,0A.37.37,0,0,1,78.5,355.45Z"/><path class="cls-5" d="M117.32,294.6a3.19,3.19,0,0,1-.19-.65c0-.08.15-.18.23-.27A.75.75,0,0,1,117.32,294.6Z"/><path class="cls-6" d="M294,435.88c-3.73.38-7.53-.05-11.28.12-2.55.12-3.46-.71-3.36-3.32.18-4.65-.07-9.32.1-14,.08-2.4-.79-3.07-3.07-3-4.12.16-8.26-.18-12.36.13-3.81.28-5.47-.6-5.12-4.89.41-5,0-10-.06-15l-20-.09-20.75.51c-.08,5.39-.21,10.78-.2,16.16,0,2.08-.34,3.52-2.87,3.42-5.54-.23-11.11.58-16.62-.52l-61.25-.07c-6.6,1.15-13.2.74-19.81.15l-19.35.07-1-.16q0,10.22-.08,20.43l-19.36-.09L76.47,437q.09,19.79.19,39.57l20.26.48c.21-3.42.34-6.84.41-10.26-.07,3.42-.2,6.84-.41,10.26l.34.06c5.52-.08,11,0,16.55-.27,2.88-.13,3.68,1,3.64,3.73-.1,5.7.06,11.4.12,17.11l94-.06-94,.06-.33,18.88.29.29,121-.17q0-19.74,0-39.5.06-10.25.11-20.48c5.53,0,11.06.12,16.59-.07,2.73-.1,3.77.59,3.66,3.52-.2,5.34,0,10.7.06,16,13.51-.35,27,.61,40.52-.47.08-11.46-.06-22.93.35-34.38C299.94,436.66,298.36,435.45,294,435.88Zm-176,.39-21-.31h0l21,.3,18.58-.05-18.58.06Zm19.21,18.48a3.72,3.72,0,0,0,.14-1.36A3.72,3.72,0,0,1,137.27,454.75Zm67.17,1.59c.62.06,1.31.1,2.08.11C205.75,456.44,205.06,456.4,204.44,456.34Zm-5.5-20.06-62.3-.07h0l62.31.07,19.34.42Zm19.39.42h0l4-.07Zm17.2-.36a7.72,7.72,0,0,0-1.09,0h0a7.72,7.72,0,0,1,1.09,0,3.5,3.5,0,0,1,1.56.5A3.5,3.5,0,0,0,235.53,436.34Zm2.83,4.21c0,2,0,4,0,6C238.36,444.58,238.34,442.56,238.36,440.55Z"/><path class="cls-1" d="M238.69,516.81c5.16,0,10.34.18,15.5,0,3.79-.15,5,1.46,4.89,5.07-.21,5.16-.13,10.33-.17,15.49-5-.07-10-.46-14.89-.13-4.41.3-5.49-1.46-5.28-5.5C239,526.76,238.73,521.78,238.69,516.81Z"/><path class="cls-1" d="M97.13,537.35q0-10.19,0-20.38l.07-.11,20.08-.34.29.29c-.1,5-.45,9.94-.23,14.89.19,4-.85,5.81-5.27,5.51C107.09,536.87,102.1,537.27,97.13,537.35Z"/><path class="cls-1" d="M117.24,516.52l-20.08.34q0-19.89.1-39.79c5.52-.08,11,0,16.55-.27,2.88-.13,3.68,1,3.64,3.73-.1,5.7.06,11.4.12,17.11Z"/><rect class="cls-1" x="338.78" y="351.85" width="26.97" height="26.97"/><rect class="cls-1" x="326.91" y="238.56" width="26.97" height="26.97"/><rect class="cls-1" x="23.74" y="248.27" width="26.97" height="26.97"/><rect class="cls-1" x="348.49" y="374.51" width="26.97" height="32.37"/><rect class="cls-1" x="322.6" y="377.74" width="26.97" height="26.97"/><rect class="cls-1" x="312.89" y="370.19" width="26.97" height="26.97"/><rect class="cls-1" x="279.44" y="387.45" width="43.16" height="35.6"/><rect class="cls-1" x="276.21" y="396.09" width="26.97" height="26.97"/><rect class="cls-1" x="298.86" y="416.59" width="26.97" height="26.97"/><rect class="cls-1" x="320.44" y="402.56" width="26.97" height="26.97"/><rect class="cls-1" x="347.41" y="403.64" width="26.97" height="26.97"/><rect class="cls-1" x="318.28" y="427.37" width="26.97" height="26.97"/><rect class="cls-1" x="344.18" y="427.37" width="30.21" height="26.97"/><rect class="cls-1" x="16.18" y="350.77" width="30.21" height="46.39"/><rect class="cls-1" x="42.08" y="350.77" width="30.21" height="46.39"/><rect class="cls-1" x="66.89" y="382.06" width="30.21" height="46.39"/><rect class="cls-1" x="38.84" y="397.16" width="30.21" height="46.39"/><rect class="cls-1" x="9.71" y="396.09" width="30.21" height="46.39"/><rect class="cls-1" y="355.09" width="30.21" height="46.39"/><rect class="cls-1" x="7.55" y="309.77" width="30.21" height="46.39"/><path class="cls-3" d="M238.44,390.81v-6.27c.05-2.25.09-4.5,0-6.75V352.42a9.38,9.38,0,0,0,.08-1.25q-.15-36.41,0-72.8c0-3.18-1.21-4-4.14-3.88-3.58.18-7.2-.16-10.78.08a10.56,10.56,0,0,1-2,0l-3.29-3.29a9.73,9.73,0,0,1,0-1.71c.31-3.57-.07-7.2.13-10.78.18-3.23-1-4.76-4.3-4.46a31,31,0,0,1-4.31.06c-3.91-.22-8.88,1.58-11.38-1-1.75-1.79-.28-6.72-.25-10.25a41.27,41.27,0,0,1,0-4.31c.37-3.41-.79-4.76-4.47-4.68-5,.11-11.45,2.21-14.59-.81-3.43-3.28-1.11-9.87-1-15,.06-4.06-1.58-4.64-5.07-4.59-13.48.17-27,0-40.45.12-4.81,0-10.94-2-14.08.85s-.71,9.18-1.13,14a5.47,5.47,0,0,0,0,1.07c.42,3.2-.78,4.62-4.18,4.41-3.76-.24-7.55.11-11.32-.1-3.37-.18-5,.78-4.68,4.49s-.18,7.57.13,11.32-1.24,4.66-4.62,4.54c-5.21-.2-10.43-.07-15.64-.08,0,2.26,0,4.52,0,6.79l-1.07.35v99H94.77v16.88h42.85a4.56,4.56,0,0,1,0,1c-.38,5.86.77,11.79-.68,17.61l.19,14.8-.14,4.74h61.5v-3.83c.08-3.67.16-7.35,0-11v-1.55c.19-2.63,1.61-3.4,4.65-3.17,5,.36,10,.29,15,.4l20.75-.51A42.76,42.76,0,0,1,238.44,390.81Z"/><rect class="cls-7" x="76.6" y="718.68" width="101.42" height="21.58"/><rect class="cls-7" x="216.86" y="718.68" width="82" height="21.58"/><rect class="cls-6" x="258.94" y="475.93" width="60.42" height="21.58"/><rect class="cls-6" x="56.1" y="475.93" width="42.08" height="21.58"/><rect class="cls-1" x="63.66" y="424.14" width="14.03" height="12.95"/><rect class="cls-1" x="35.6" y="473.77" width="20.5" height="45.31"/><path d="M214.15,444.05H205V433.3h1.5v-3.06H208v-3.08h3.07v3.06h1.55v3.07h1.52Z"/><path d="M192.63,434.85v1.51h3.08v1.54h3.07v1.54h1.54V441h1.54v1.54h1.52V444H192.65v-3h-1.53v-6.15Z"/><path d="M226.47,444.05H215.74v-1.52h1.5V441h1.54v-1.54h1.53v-1.54h3.08v-1.53h3.08v-1.54H228V441h-1.52Z"/><path d="M224.93,445.61v1.51H194.2v-1.51Z"/><path d="M197.28,448.67h24.56v1.51H197.28Z"/><path d="M206.46,454.8H205v-1.51h-4.6v-1.53h6.11Z"/><path d="M218.77,451.76v1.51h-4.59v1.53h-1.53v-3Z"/><path d="M211.07,454.8h-3v-3h3Z"/><rect class="cls-1" x="92.79" y="267.69" width="51.79" height="12.95"/><rect class="cls-1" x="106.81" y="289.27" width="23.74" height="12.95"/><rect class="cls-1" x="175.87" y="289.27" width="23.74" height="12.95"/><rect class="cls-1" x="160.76" y="267.69" width="51.79" height="12.95"/><rect class="cls-8" x="124.08" y="331.35" width="59.34" height="18.34"/><rect class="cls-9" x="137.02" y="377.74" width="26.97" height="17.26"/><rect class="cls-9" x="137.02" y="395.01" width="26.97" height="20.5"/><rect class="cls-1" x="31.29" y="188.93" width="24.82" height="19.42"/><rect class="cls-1" x="45.31" y="171.67" width="24.82" height="19.42"/><rect class="cls-1" x="65.81" y="158.72" width="24.82" height="19.42"/><rect class="cls-1" x="87.39" y="151.17" width="24.82" height="19.42"/><rect class="cls-1" x="110.05" y="146.85" width="24.82" height="19.42"/><rect class="cls-1" x="130.55" y="153.33" width="24.82" height="19.42"/><rect class="cls-1" x="155.37" y="143.62" width="24.82" height="19.42"/><rect class="cls-1" x="178.02" y="140.38" width="24.82" height="19.42"/><rect class="cls-1" x="201.76" y="139.3" width="24.82" height="19.42"/><rect class="cls-1" x="224.42" y="146.85" width="24.82" height="19.42"/><rect class="cls-1" x="246" y="153.33" width="24.82" height="19.42"/><rect class="cls-1" x="263.26" y="161.96" width="24.82" height="19.42"/><rect class="cls-1" x="279.44" y="169.51" width="24.82" height="19.42"/><rect class="cls-1" x="294.55" y="180.3" width="24.82" height="19.42"/><rect class="cls-1" x="310.73" y="191.09" width="24.82" height="19.42"/><rect class="cls-1" x="327.99" y="201.88" width="24.82" height="19.42"/><rect class="cls-1" x="329.07" y="220.22" width="24.82" height="19.42"/><rect class="cls-1" x="323.68" y="262.3" width="24.82" height="19.42"/><path class="cls-10" d="M176,12.29c4,0,7.93,0,11.9,0,.36,0,.46.08.46.46,0,3.85,0,7.7,0,11.55,0,.28.05.37.36.37q5.79,0,11.58,0c.31,0,.36-.09.36-.37,0-3.88,0-7.75,0-11.62,0-.32.08-.39.39-.39l11.58,0c.32,0,.41-.07.41-.4,0-3.84,0-7.68,0-11.52,0-.29.06-.39.38-.39H237.3c.32,0,.37.1.37.39,0,3.84,0,7.68,0,11.52,0,.32.09.4.41.4l11.51,0c.31,0,.39.07.39.39q0,24.29,0,48.56c0,.34-.11.38-.4.38-3.84,0-7.67,0-11.51,0-.34,0-.4.1-.4.41,0,3.86,0,7.73,0,11.59,0,.31-.08.38-.39.38H225.7c-.31,0-.41.07-.4.4,0,3.82,0,7.65,0,11.48,0,.33-.06.43-.41.43-3.83,0-7.66,0-11.48,0-.36,0-.42.1-.42.43,0,3.85,0,7.7,0,11.55,0,.32-.09.4-.41.4l-11.58,0c-.31,0-.39.07-.39.39,0,3.85,0,7.7,0,11.55,0,.28-.05.37-.36.37q-5.79,0-11.58,0c-.31,0-.36-.09-.36-.38,0-3.85,0-7.7,0-11.55,0-.31-.08-.38-.39-.38l-11.58,0c-.32,0-.41-.08-.41-.4,0-3.87,0-7.73,0-11.59,0-.3-.06-.39-.38-.39H164.17c-.47,0-.47,0-.47-.5,0-3.8,0-7.6,0-11.4,0-.34-.09-.4-.4-.4H151.71c-.31,0-.39-.07-.39-.38,0-3.87,0-7.73,0-11.59,0-.31-.07-.41-.4-.41-3.84,0-7.68,0-11.51,0-.3,0-.4,0-.4-.38q0-24.29,0-48.56c0-.32.09-.39.39-.39q6,0,11.9,0l0,0c0,.07,0,.14,0,.21q0,12,0,24.09c0,.31.11.35.39.35,7.95,0,15.91,0,23.87,0,.35,0,.42-.1.42-.43q0-11.94,0-23.88c0-.12,0-.23,0-.35Z"/><path class="cls-10" d="M151.32,12.29q0-5.83,0-11.69c0-.59,0-.59.59-.59h23.66c.35,0,.42.1.42.43,0,3.81,0,7.63,0,11.44,0,.14,0,.28,0,.42l0,0H151.34Z"/><path class="cls-11" d="M151.34,12.31H176c0,.12,0,.23,0,.35q0,11.94,0,23.88c0,.33-.07.43-.42.43-8,0-15.92,0-23.87,0-.28,0-.39,0-.39-.35q0-12,0-24.09C151.33,12.45,151.34,12.38,151.34,12.31Z"/></g></g></svg>