<svg xmlns="http://www.w3.org/2000/svg" viewBox="0 0 347 97"><defs><style>.cls-1{fill:#010104;}</style></defs><title>Asset 7</title><g id="Layer_2" data-name="Layer 2"><g id="Layer_1-2" data-name="Layer 1"><polygon class="cls-1" points="347 35 332 35 332 26 317 26 317 20 296 20 296 16 278 16 278 12 256 12 256 9 249 9 249 0 170 0 149 0 147 0 129 0 126 0 106 0 106 3 83 3 83 8 61 8 61 12 39 12 39 19 17 19 17 31 3 31 3 43 0 43 0 66 14 66 14 78 36 78 36 85 58 85 58 89 80 89 80 94 103 94 103 97 123 97 126 97 144 97 146 97 167 97 246 97 246 88 253 88 253 85 275 85 275 81 293 81 293 77 314 77 314 71 329 71 329 62 344 62 344 58 347 58 347 35"/></g></g></svg>