<svg xmlns="http://www.w3.org/2000/svg" viewBox="0 0 217.78 501.71"><defs><style>.cls-1{fill:#010104;}.cls-2{fill:#3e3e3e;}.cls-3{fill:#f90000;}.cls-4{fill:#fa9e00;}.cls-5{fill:#030303;}.cls-6{fill:#00fb08;}</style></defs><title>Asset 5</title><g id="Layer_2" data-name="Layer 2"><g id="Layer_1-2" data-name="Layer 1"><path class="cls-1" d="M51.38,358.64l-.49-.07c-4-.41-9.13,1.61-11.56-.83-2.66-2.67-.79-7.9-.83-12-.11-15.67-.16-31.33,0-47,0-3.56-1-4.87-4.41-4.25a5.55,5.55,0,0,1-1,0c-7.47,0-7.71,0-7.39-7.73.17-4-.67-6-5-5.14a2.77,2.77,0,0,1-.5,0c-7.23,0-7.57,0-7.12-7.37.3-4.79-1.41-5.79-5.78-5.57-7.12.34-6.7,0-7.27-6.81-.44-5.37,1.56-6.26,6.35-6.08,9.48.38,19,0,28.48.18,2.79,0,3.65-.7,3.63-3.57q-.18-28.49,0-57c0-2.94-1-3.51-3.7-3.53-8.95-.07-9.13-.18-9.07-8.88,0-3.24-1.08-3.8-4-3.8-8.58,0-8.73-.11-8.68-8.84,0-3-.72-3.93-3.84-3.92-9.38,0-9.26-.15-9.11-9.54.05-2.64.76-3.35,3.37-3.31,10.33.15,20.67-.1,31,.15,3.42.08,4.07-1.06,4.05-4.2q-.21-27.75,0-55.49c0-3.37-.65-5-4.28-4.36a2.78,2.78,0,0,1-.5,0c-8.07,0-8.31,0-8-8.06.15-4-1.09-5.41-5-4.83-1.31.2-2.69-.13-4,.06-3.09.46-3.92-.71-3.9-3.82.05-8.9-.11-9.06-8.64-9C1.05,64.18.05,63.38.11,60c.14-8.66,0-8.66,8.55-8.66,8.83,0,17.66-.1,26.49,0,2.62,0,3.43-.75,3.36-3.37-.17-6.16.13-12.33-.13-18.49-.13-3.11.8-3.91,3.88-3.9,8.9,0,9.05-.12,9-8.93,0-3,.66-4.07,3.84-3.92,6,.26,12-.07,18,.13,2.91.1,4-.5,4-3.76C77,.08,77.21.08,86.53.08c16.5,0,33,.1,49.49-.08,3.71,0,5.28.59,5.09,4.83-.37,8.05-.08,8.06,7.87,8.06,4.5,0,9,.25,13.5-.08,3.48-.25,4.07,1.12,4,4.23-.1,8.57,0,8.76,8.84,8.62,3.43-.06,4.14,1.08,4,4.22-.24,6,.08,12-.14,18-.1,2.89.84,3.61,3.63,3.57,10.33-.16,20.67.07,31-.14,3.14-.06,3.88.86,3.86,3.91-.07,8.76.08,8.92-8.3,8.77-3.36-.06-5.08.7-4.45,4.33a2.77,2.77,0,0,1,0,.5c-.06,8-.07,8.3-8.09,8-4.12-.17-5.3,1.27-4.73,5,.12.81-.12,1.69,0,2.49.92,4.79-1.34,5.77-5.69,5.56-7.19-.33-7.2-.08-7.2,7.27,0,17.5.08,35-.07,52.49,0,3.16.64,4.27,4,4.19,10-.24,20,.06,30-.16,3.39-.07,5,.74,4.37,4.31a2.78,2.78,0,0,0,0,.5c0,8.1,0,8.38-8,8-4.17-.18-5.2,1.34-4.7,5,.17,1.31-.14,2.69.06,4,.46,3.16-.88,3.92-3.9,3.93-8.84.05-9,.18-8.85,8.56.07,3.31-.87,4.16-4.11,4.12-8.84-.08-8.84.07-8.84,9.15,0,16.83.11,33.66-.09,50.49,0,3.54.92,4.41,4.39,4.32,10-.24,20,.07,30-.17,3.39-.08,4.15,1,4.11,4.2-.08,8.55.06,8.71-8.91,8.67-3.09,0-3.92.82-3.91,3.89,0,8.84-.12,9-9,8.94-3.28,0-3.75,1.08-3.74,4,.06,8.8-.07,9-9.12,8.89-3.23,0-3.76,1-3.74,3.94.14,18.5,0,37,.16,55.49,0,3.66-.72,5.14-4.6,4.71a61.54,61.54,0,0,0-8.47.16l-.05-.05q0-157.67.15-315.34c0-3.86-1.23-4.7-4.85-4.69q-52.73.2-105.46,0c-4.23,0-4.85,1.52-4.85,5.19q.13,157.42.09,314.85Z"/><path class="cls-1" d="M166.33,358.33c.47,7.35.47,7.35-12.05,7.35-7.66,0-15.32.05-23,0-2.3,0-3.48.29-3.14,1.79a8.86,8.86,0,0,1,0,2.06c0,42.94-.05,85.89.11,128.83,0,2.69-1.11,3.46-5.69,3.36-9.48-.22-19-.19-28.47,0-3.91.08-4.58-.7-4.58-2.82q.16-55.72.08-111.44c0-6.49-.11-13,.07-19.46.05-1.8-.74-2.36-3.86-2.33-10.15.12-20.32,0-30.47.09-3.22,0-4.5-.45-4.12-2.44a27.81,27.81,0,0,0,.12-5h0c38.31-.64,76.62-.77,114.92,0Zm-51,75.39V422.81q0-23.46,0-46.91c0-.85.55-2.36-.66-2.44a56.28,56.28,0,0,0-10.87.19c-2.75.36-1.47,2.19-1.47,3.34q-.1,56.34,0,112.69c0,5-1,4.15,7.44,4.44,4.78.17,5.74-.85,5.71-3.46C115.3,471.68,115.38,452.7,115.38,433.72Z"/><path class="cls-2" d="M166.28,358.67c-38.3-1.3-76.61-1.08-114.92,0q0-157.43-.09-314.85c0-3.67.62-5.22,4.85-5.19q52.73.27,105.46,0c3.62,0,4.85.83,4.85,4.69Q166.25,201,166.28,358.67ZM141.2,281.82c.18-13.53.18-13.53-12.94-13,0-2.83-.17-5.68.14-8.47.43-3.92-1.3-4.78-4.88-4.66-7.14.24-14.29.07-21.44.07-13.09,0-13.09,0-12.64,13.12-12.35-.7-12.35-.7-12.24,11.35,0,.49,0,1,.06,1.48-2.82,0-5.66.18-8.46-.05-3.38-.27-4.72.81-4.59,4.41.25,7,.07,13.93.07,20.9,0,12.91,0,12.91,12.93,12.86-.07,13.47-.07,13.47,12.2,12.83,0,3.16.07,6.32-.11,9.47-.16,2.86,1,3.77,3.79,3.72,7.48-.13,15,0,22.45,0,13,0,13,0,12.76-13.07,12.92.35,12.92.35,13-12.54v-.49c2.64,0,5.31-.06,7.94.17,3.25.29,4.36-1,4.27-4.23-.19-7.45-.06-14.9-.06-22.36C153.41,281.25,153.41,281.25,141.2,281.82Zm.07-64.18-.12,0c2.32,0,4.67-.12,7,.15,4,.47,5.6-.84,5.4-5.14-.35-7.12-.1-14.27-.1-21.41,0-12.18,0-12.18-12.19-11.48l.06.05c-.15-13.61-.15-13.61-13.05-13.06l.06.06c0-3.16-.09-6.33.09-9.49.17-2.88-1-3.75-3.8-3.7-7.32.13-14.65,0-22,0-13.35,0-13.35,0-13.24,13.15l.07,0c-12.34-.64-12.34-.64-12.23,11.46,0,.49,0,1,0,1.49a1.32,1.32,0,0,1-.39.79c-2.76-1.77-5.83-.58-8.74-.94-3.18-.4-3.94,1.19-3.88,4.08.14,7,0,13.93,0,20.9,0,13.27,0,13.27,13.11,13.16l-.08-.05c-.51,13.33-.51,13.33,12.16,13l-.08,0c0,2.65.13,5.31-.1,7.93-.33,3.84,1.09,5.36,5.06,5.23,7.11-.25,14.22-.07,21.34-.07,12.93,0,12.93,0,12.57-13.08l0,.06c13,.25,13,.25,13-12.55C141.26,218,141.26,217.8,141.27,217.64Zm-.1-102.13-.08.12c2.65,0,5.32-.16,7.95.1,3.6.35,4.53-1.21,4.44-4.59-.21-7.44-.07-14.9-.07-22.36,0-12.15,0-12.15-12.28-11.92l.11.06c-.32-4.08,1.69-9.31-.78-12-2.73-2.95-8.11-.66-12.3-1.1l.07.12c0-2.66-.17-5.33.09-8,.35-3.61-1.21-4.51-4.57-4.42-7.29.21-14.58.07-21.88.07-12.5,0-12.5,0-12.42,12.35l.11-.11C77,63.74,77,63.74,77.27,76.32c0,.16,0,.33,0,.49l.07,0c-3.16,0-6.33.12-9.49,0-2.4-.08-3.67.52-3.65,3.29.11,10.82.06,21.64,0,32.46,0,1.94.24,3,2.8,2.7A84.72,84.72,0,0,1,77,115l.26.35c.17,14.84-2.84,12.54,12.11,12.42l-.06,0c0,3.17.13,6.34,0,9.49-.16,2.87,1,3.76,3.81,3.72,7.32-.13,14.65,0,22,0,13.33,0,13.33,0,13.23-13.15l0,.07C141.47,128.29,141.47,128.29,141.17,115.51Z"/><path class="cls-2" d="M115.38,433.72c0,19-.08,38,.09,56.94,0,2.61-.93,3.63-5.71,3.46-8.46-.29-7.44.57-7.44-4.44q0-56.34,0-112.69c0-1.15-1.28-3,1.47-3.34a56.28,56.28,0,0,1,10.87-.19c1.21.08.66,1.59.66,2.44q0,23.46,0,46.91Z"/><path class="cls-3" d="M77.29,115.31,77,115q.18-19.09.35-38.2l-.07,0c12.27,0,12.27,0,12.27-12.41,0-.17,0-.33,0-.5l-.11.11L128.23,64l-.07-.12c.13,4.11-1.28,9.52.8,12,2.44,2.89,8.07.54,12.28,1.09l-.11-.06q0,19.38,0,38.77l.08-.11a4,4,0,0,0-.48-.07c-12.54-.14-12.54-.14-12.42,12.32l0-.07c-13,.43-26,.45-39,0l.06,0c.68-12,.68-12-11.13-12.32C78,115.4,77.62,115.34,77.29,115.31Z"/><path class="cls-4" d="M76.86,180.54a1.32,1.32,0,0,0,.39-.79c12.92-.11,12.92-.11,12.18-12.95l-.07,0h38.93l-.06-.06c0,3.1.15,6.22,0,9.31-.16,2.61.83,3.37,3.36,3.33,3.24,0,6.54-.54,9.74.42l-.06-.05q0,18.94-.07,37.88l.12,0c-4.13.11-9.58-1.34-12,.74-2.88,2.43-.66,8.08-1,12.3l0-.06H89.39l.08,0c.54-12.86.54-12.86-12.16-13l.08.05Q77.12,199.14,76.86,180.54Z"/><path class="cls-5" d="M89.34,127.68c13,.47,26,.45,39,0,.1,13.15.1,13.15-13.23,13.15-7.33,0-14.66-.09-22,0-2.76,0-4-.85-3.81-3.72C89.47,134,89.34,130.85,89.34,127.68Z"/><path class="cls-5" d="M89.44,268.84c-.45-13.12-.45-13.12,12.64-13.12,7.15,0,14.3.17,21.44-.07,3.58-.12,5.31.74,4.88,4.66-.31,2.79-.11,5.64-.14,8.47l-.07.07-38.63.1Z"/><path class="cls-5" d="M128.3,332.7c.19,13.07.19,13.07-12.76,13.07-7.48,0-15-.09-22.45,0-2.77.05-4-.86-3.79-3.72.18-3.15.09-6.31.11-9.47l.09-.09,38.74.11Z"/><path class="cls-5" d="M128.29,166.83H89.36c-.11-13.15-.11-13.15,13.24-13.15,7.33,0,14.66.09,22,0,2.76,0,4,.82,3.8,3.7C128.2,160.5,128.31,163.67,128.29,166.83Z"/><path class="cls-5" d="M89.39,230.61h38.87c.36,13.08.36,13.08-12.57,13.08-7.12,0-14.23-.18-21.34.07-4,.13-5.39-1.39-5.06-5.23C89.52,235.92,89.37,233.26,89.39,230.61Z"/><path class="cls-5" d="M77.38,76.76Q77.2,95.85,77,115a84.72,84.72,0,0,0-10,.26c-2.56.35-2.8-.76-2.8-2.7,0-10.82.08-21.64,0-32.46,0-2.77,1.25-3.37,3.65-3.29C71.05,76.88,74.22,76.77,77.38,76.76Z"/><path class="cls-5" d="M77.21,319.79c-12.93,0-12.93,0-12.93-12.86,0-7,.18-13.94-.07-20.9-.13-3.6,1.21-4.68,4.59-4.41,2.8.23,5.64.05,8.46.05h0v38.07Z"/><path class="cls-5" d="M76.86,180.54q.27,18.6.53,37.2c-13.11.11-13.11.11-13.11-13.16,0-7,.1-13.94,0-20.9-.06-2.89.7-4.48,3.88-4.08C71,180,74.1,178.77,76.86,180.54Z"/><path class="cls-5" d="M128.23,64,89.45,64c-.08-12.35-.08-12.35,12.42-12.35,7.3,0,14.59.14,21.88-.07,3.36-.09,4.92.81,4.57,4.42C128.06,58.63,128.24,61.3,128.23,64Z"/><path class="cls-5" d="M141.09,115.63q0-19.38,0-38.77c12.28-.23,12.28-.23,12.28,11.92,0,7.46-.14,14.92.07,22.36.09,3.38-.84,4.94-4.44,4.59C146.41,115.47,143.74,115.65,141.09,115.63Z"/><path class="cls-5" d="M141.15,217.66q0-18.93.07-37.88c12.19-.7,12.19-.7,12.19,11.48,0,7.14-.25,14.29.1,21.41.2,4.3-1.38,5.61-5.4,5.14C145.82,217.54,143.47,217.7,141.15,217.66Z"/><path class="cls-5" d="M141.2,281.82c12.21-.57,12.21-.57,12.21,11.43,0,7.46-.13,14.91.06,22.36.09,3.26-1,4.52-4.27,4.23-2.63-.23-5.3-.13-7.94-.17l-.07-.07-.05-37.71Z"/><path class="cls-5" d="M141.24,76.92c-4.21-.55-9.84,1.8-12.28-1.09-2.08-2.47-.67-7.88-.8-12,4.19.44,9.57-1.85,12.3,1.1C142.93,67.61,140.92,72.84,141.24,76.92Z"/><path class="cls-5" d="M128.22,230.68c.35-4.22-1.87-9.87,1-12.3,2.46-2.08,7.91-.63,12-.74,0,.16,0,.33,0,.49C141.19,230.93,141.19,230.93,128.22,230.68Z"/><path class="cls-5" d="M128.26,268.78c13.12-.49,13.12-.49,12.94,13l-.06.07c-4.08-.16-9.42,1.19-11.9-.88-2.88-2.42-.6-8-1.05-12.16Z"/><path class="cls-5" d="M141.26,319.67v.49c0,12.89,0,12.89-13,12.54l-.06-.06v-2c0-10.54,0-10.53,10.52-10.83.81,0,1.62-.16,2.43-.25Z"/><path class="cls-5" d="M141.28,179.83c-3.2-1-6.5-.47-9.74-.42-2.53,0-3.52-.72-3.36-3.33.2-3.09,0-6.21,0-9.31C141.13,166.22,141.13,166.22,141.28,179.83Z"/><path class="cls-5" d="M89.56,63.9c0,.17,0,.33,0,.5,0,12.43,0,12.43-12.27,12.41,0-.16,0-.33,0-.49C77,63.74,77,63.74,89.56,63.9Z"/><path class="cls-5" d="M128.27,127.77c-.12-12.46-.12-12.46,12.42-12.32a4,4,0,0,1,.48.07C141.47,128.29,141.47,128.29,128.27,127.77Z"/><path class="cls-5" d="M77.31,217.69c12.7.11,12.7.11,12.16,13C76.8,231,76.8,231,77.31,217.69Z"/><path class="cls-5" d="M77.26,281.67c0-.49-.05-1-.06-1.48-.11-12.05-.11-12.05,12.24-11.35l.12.11c.07,12.8.07,12.8-12.27,12.73Z"/><path class="cls-5" d="M89.41,332.62c-12.27.64-12.27.64-12.2-12.83l.08,0c3.89.5,9-1.6,11.4.91,2.59,2.7.65,7.82.81,11.87Z"/><path class="cls-5" d="M89.43,166.8c.74,12.84.74,12.84-12.18,12.95,0-.5,0-1,0-1.49C77.09,166.16,77.09,166.16,89.43,166.8Z"/><path class="cls-5" d="M77.29,115.31c.33,0,.66.09,1,.1,11.81.28,11.81.28,11.13,12.32C74.45,127.85,77.46,130.15,77.29,115.31Z"/><path class="cls-6" d="M89.5,332.53c-.16-4,1.78-9.17-.81-11.87-2.4-2.51-7.51-.41-11.4-.91V281.68c12.34.07,12.34.07,12.27-12.73l38.63-.1c.45,4.17-1.83,9.74,1.05,12.16,2.48,2.07,7.82.72,11.9.88q0,18.86.05,37.71c-.81.09-1.62.23-2.43.25-10.54.3-10.54.29-10.52,10.83v2Z"/></g></g></svg>